<mxfile host="Electron" modified="2024-06-22T15:46:30.467Z" agent="Mozilla/5.0 (Macintosh; Intel Mac OS X 10_15_7) AppleWebKit/537.36 (KHTML, like Gecko) draw.io/24.2.5 Chrome/120.0.6099.109 Electron/28.1.0 Safari/537.36" etag="kwpLi1oaRLDhBfy3fRtm" version="24.2.5" type="device" pages="3">
  <diagram name="English" id="8XWXSDWSwh6s_BDKAXpa">
    <mxGraphModel dx="1464" dy="1268" grid="0" gridSize="10" guides="1" tooltips="1" connect="1" arrows="1" fold="1" page="0" pageScale="1" pageWidth="827" pageHeight="1169" math="0" shadow="0">
      <root>
        <mxCell id="0" />
        <mxCell id="1" parent="0" />
        <mxCell id="DwbqeY5MqW88njfZYnf4-26" value="PR/&lt;div&gt;Commit&lt;/div&gt;" style="edgeStyle=orthogonalEdgeStyle;rounded=0;orthogonalLoop=1;jettySize=auto;html=1;fontFamily=Gloria Hallelujah;fontSize=12;fontColor=default;fontStyle=1;curved=1;strokeWidth=2;flowAnimation=1;strokeColor=#7F00FF;fontSource=https%3A%2F%2Ffonts.googleapis.com%2Fcss%3Ffamily%3DGloria%2BHallelujah;" parent="1" source="RDo2QLgvlVAFaTOFHtLj-1" edge="1">
          <mxGeometry relative="1" as="geometry">
            <mxPoint x="360" y="430" as="targetPoint" />
          </mxGeometry>
        </mxCell>
        <mxCell id="RDo2QLgvlVAFaTOFHtLj-1" value="IDE Integration" style="swimlane;html=1;sketch=1;curveFitting=1;jiggle=2;swimlaneLine=1;fontFamily=Gloria Hallelujah;fillColor=#f5f5f5;gradientColor=#b3b3b3;strokeColor=#666666;fontSource=https%3A%2F%2Ffonts.googleapis.com%2Fcss%3Ffamily%3DGloria%2BHallelujah;" parent="1" vertex="1">
          <mxGeometry x="80" y="320" width="200" height="130" as="geometry" />
        </mxCell>
        <mxCell id="RDo2QLgvlVAFaTOFHtLj-8" value="" style="shape=image;imageAspect=0;aspect=fixed;verticalLabelPosition=bottom;verticalAlign=top;image=https://uxwing.com/wp-content/themes/uxwing/download/brands-and-social-media/visual-studio-code-icon.png;fontFamily=Gloria Hallelujah;fontSource=https%3A%2F%2Ffonts.googleapis.com%2Fcss%3Ffamily%3DGloria%2BHallelujah;" parent="RDo2QLgvlVAFaTOFHtLj-1" vertex="1">
          <mxGeometry x="20" y="50" width="60.24" height="60" as="geometry" />
        </mxCell>
        <mxCell id="RDo2QLgvlVAFaTOFHtLj-9" value="" style="shape=image;imageAspect=0;aspect=fixed;verticalLabelPosition=bottom;verticalAlign=top;image=https://upload.wikimedia.org/wikipedia/commons/thumb/9/9c/IntelliJ_IDEA_Icon.svg/2048px-IntelliJ_IDEA_Icon.svg.png;fontFamily=Gloria Hallelujah;fontSource=https%3A%2F%2Ffonts.googleapis.com%2Fcss%3Ffamily%3DGloria%2BHallelujah;" parent="RDo2QLgvlVAFaTOFHtLj-1" vertex="1">
          <mxGeometry x="110" y="50" width="60" height="60" as="geometry" />
        </mxCell>
        <mxCell id="DwbqeY5MqW88njfZYnf4-27" value="Trigger" style="edgeStyle=orthogonalEdgeStyle;curved=1;rounded=0;orthogonalLoop=1;jettySize=auto;html=1;exitX=1;exitY=0.5;exitDx=0;exitDy=0;strokeColor=#7F00FF;strokeWidth=2;align=center;verticalAlign=middle;fontFamily=Gloria Hallelujah;fontSize=12;fontColor=default;fontStyle=1;labelBackgroundColor=default;endArrow=classic;flowAnimation=1;entryX=0;entryY=0.5;entryDx=0;entryDy=0;fontSource=https%3A%2F%2Ffonts.googleapis.com%2Fcss%3Ffamily%3DGloria%2BHallelujah;" parent="1" source="RDo2QLgvlVAFaTOFHtLj-2" target="RDo2QLgvlVAFaTOFHtLj-3" edge="1">
          <mxGeometry relative="1" as="geometry">
            <mxPoint x="640" y="450" as="targetPoint" />
          </mxGeometry>
        </mxCell>
        <mxCell id="RDo2QLgvlVAFaTOFHtLj-2" value="Git Repo" style="swimlane;html=1;sketch=1;curveFitting=1;jiggle=2;swimlaneLine=1;fontFamily=Gloria Hallelujah;fillColor=#f5f5f5;gradientColor=#b3b3b3;strokeColor=#666666;fontSource=https%3A%2F%2Ffonts.googleapis.com%2Fcss%3Ffamily%3DGloria%2BHallelujah;" parent="1" vertex="1">
          <mxGeometry x="360" y="320" width="200" height="200" as="geometry" />
        </mxCell>
        <mxCell id="DwbqeY5MqW88njfZYnf4-1" value="" style="shape=image;imageAspect=0;aspect=fixed;verticalLabelPosition=bottom;verticalAlign=top;image=https://cdn-icons-png.flaticon.com/512/25/25231.png;fontFamily=Gloria Hallelujah;fontSource=https%3A%2F%2Ffonts.googleapis.com%2Fcss%3Ffamily%3DGloria%2BHallelujah;" parent="RDo2QLgvlVAFaTOFHtLj-2" vertex="1">
          <mxGeometry x="23" y="40" width="62" height="62" as="geometry" />
        </mxCell>
        <mxCell id="DwbqeY5MqW88njfZYnf4-2" value="" style="shape=image;imageAspect=0;aspect=fixed;verticalLabelPosition=bottom;verticalAlign=top;image=https://seeklogo.com/images/G/gitlab-logo-757620E430-seeklogo.com.png;fontFamily=Gloria Hallelujah;fontSource=https%3A%2F%2Ffonts.googleapis.com%2Fcss%3Ffamily%3DGloria%2BHallelujah;" parent="RDo2QLgvlVAFaTOFHtLj-2" vertex="1">
          <mxGeometry x="113.79" y="42" width="64.98" height="60" as="geometry" />
        </mxCell>
        <mxCell id="DwbqeY5MqW88njfZYnf4-3" value="" style="shape=image;imageAspect=0;aspect=fixed;verticalLabelPosition=bottom;verticalAlign=top;image=https://cdn4.iconfinder.com/data/icons/logos-and-brands/512/44_Bitbucket_logo_logos-512.png;fontFamily=Gloria Hallelujah;fontSource=https%3A%2F%2Ffonts.googleapis.com%2Fcss%3Ffamily%3DGloria%2BHallelujah;" parent="RDo2QLgvlVAFaTOFHtLj-2" vertex="1">
          <mxGeometry x="18" y="120" width="72" height="72" as="geometry" />
        </mxCell>
        <mxCell id="DwbqeY5MqW88njfZYnf4-4" value="" style="shape=image;imageAspect=0;aspect=fixed;verticalLabelPosition=bottom;verticalAlign=top;image=https://seeklogo.com/images/A/azure-repos-logo-013E078726-seeklogo.com.png;fontFamily=Gloria Hallelujah;fontSource=https%3A%2F%2Ffonts.googleapis.com%2Fcss%3Ffamily%3DGloria%2BHallelujah;" parent="RDo2QLgvlVAFaTOFHtLj-2" vertex="1">
          <mxGeometry x="117.28" y="127" width="58" height="58" as="geometry" />
        </mxCell>
        <mxCell id="DwbqeY5MqW88njfZYnf4-28" value="Image&lt;div&gt;Scan&lt;/div&gt;" style="edgeStyle=orthogonalEdgeStyle;curved=1;rounded=0;orthogonalLoop=1;jettySize=auto;html=1;exitX=0;exitY=0.25;exitDx=0;exitDy=0;entryX=0;entryY=0.75;entryDx=0;entryDy=0;strokeColor=#7F00FF;strokeWidth=2;align=center;verticalAlign=middle;fontFamily=Gloria Hallelujah;fontSize=12;fontColor=default;fontStyle=1;labelBackgroundColor=default;endArrow=classic;flowAnimation=1;fontSource=https%3A%2F%2Ffonts.googleapis.com%2Fcss%3Ffamily%3DGloria%2BHallelujah;" parent="1" source="RDo2QLgvlVAFaTOFHtLj-3" target="RDo2QLgvlVAFaTOFHtLj-4" edge="1">
          <mxGeometry relative="1" as="geometry" />
        </mxCell>
        <mxCell id="DwbqeY5MqW88njfZYnf4-36" value="CD" style="edgeStyle=orthogonalEdgeStyle;curved=1;rounded=0;orthogonalLoop=1;jettySize=auto;html=1;strokeColor=#7F00FF;strokeWidth=2;align=center;verticalAlign=middle;fontFamily=Gloria Hallelujah;fontSize=12;fontColor=default;fontStyle=1;labelBackgroundColor=default;endArrow=classic;flowAnimation=1;fontSource=https%3A%2F%2Ffonts.googleapis.com%2Fcss%3Ffamily%3DGloria%2BHallelujah;" parent="1" source="RDo2QLgvlVAFaTOFHtLj-3" edge="1">
          <mxGeometry relative="1" as="geometry">
            <mxPoint x="930" y="420" as="targetPoint" />
          </mxGeometry>
        </mxCell>
        <mxCell id="RDo2QLgvlVAFaTOFHtLj-3" value="CI/CD Pipelines" style="swimlane;html=1;sketch=1;curveFitting=1;jiggle=2;swimlaneLine=1;fontFamily=Gloria Hallelujah;fillColor=#f5f5f5;gradientColor=#b3b3b3;strokeColor=#666666;fontSource=https%3A%2F%2Ffonts.googleapis.com%2Fcss%3Ffamily%3DGloria%2BHallelujah;" parent="1" vertex="1">
          <mxGeometry x="640" y="300" width="200" height="240" as="geometry" />
        </mxCell>
        <mxCell id="DwbqeY5MqW88njfZYnf4-10" value="" style="image;sketch=0;aspect=fixed;html=1;points=[];align=center;fontSize=12;image=img/lib/mscae/Azure_Pipelines.svg;fontFamily=Gloria Hallelujah;fontSource=https%3A%2F%2Ffonts.googleapis.com%2Fcss%3Ffamily%3DGloria%2BHallelujah;" parent="RDo2QLgvlVAFaTOFHtLj-3" vertex="1">
          <mxGeometry x="29.02" y="40" width="58" height="58" as="geometry" />
        </mxCell>
        <mxCell id="DwbqeY5MqW88njfZYnf4-11" value="" style="editableCssRules=.*;html=1;shape=image;verticalLabelPosition=bottom;labelBackgroundColor=#ffffff;verticalAlign=top;aspect=fixed;imageAspect=0;image=data:image/svg+xml,PHN2ZyB4bWxucz0iaHR0cDovL3d3dy53My5vcmcvMjAwMC9zdmciIHhtbG5zOnY9Imh0dHBzOi8vdmVjdGEuaW8vbmFubyIgd2lkdGg9IjM2NS40NjQ5OTY3NzA0MjQ5MyIgaGVpZ2h0PSIzNzkuMjIyOTk0NDYzNTc3OTUiIHZpZXdCb3g9IjAgMCA5Ni42OTU5OTkxNDU1MDc4MSAxMDAuMzM1OTk4NTM1MTU2MjUiPiYjeGE7PHN0eWxlIHR5cGU9InRleHQvY3NzIj4mI3hhOwkuc3Qwe2ZpbGw6IzQyODVmNDt9JiN4YTsJLnN0MXtmaWxsOiNhZWNiZmE7fSYjeGE7PC9zdHlsZT4mI3hhOwk8cGF0aCBjbGFzcz0ic3QwIiBkPSJNMjkuNzk0IDEwMC4zMzZMNDYuOTIgNTAuMTY4aDQ5Ljc3NnpNMCA5OS42NzFsMTIuOTc2LTQ5LjUwMkgyOS4yMkwxNi44OTcgOTIuMDU0eiIvPiYjeGE7CTxwYXRoIGNsYXNzPSJzdDEiIGQ9Ik0yOS43OTQgMEw0Ni45MiA1MC4xNjhoNDkuNzc2ek0wIC42NjZsMTIuOTc2IDQ5LjUwMkgyOS4yMkwxNi44OTcgOC4yODN6Ii8+JiN4YTs8L3N2Zz4=;fontFamily=Gloria Hallelujah;fontSource=https%3A%2F%2Ffonts.googleapis.com%2Fcss%3Ffamily%3DGloria%2BHallelujah;" parent="RDo2QLgvlVAFaTOFHtLj-3" vertex="1">
          <mxGeometry x="120.00000000000001" y="46" width="52" height="52" as="geometry" />
        </mxCell>
        <mxCell id="DwbqeY5MqW88njfZYnf4-12" value="" style="sketch=0;points=[[0,0,0],[0.25,0,0],[0.5,0,0],[0.75,0,0],[1,0,0],[0,1,0],[0.25,1,0],[0.5,1,0],[0.75,1,0],[1,1,0],[0,0.25,0],[0,0.5,0],[0,0.75,0],[1,0.25,0],[1,0.5,0],[1,0.75,0]];outlineConnect=0;fontColor=#232F3E;fillColor=#C925D1;strokeColor=#ffffff;dashed=0;verticalLabelPosition=bottom;verticalAlign=top;align=center;html=1;fontSize=12;fontStyle=0;aspect=fixed;shape=mxgraph.aws4.resourceIcon;resIcon=mxgraph.aws4.codepipeline;fontFamily=Gloria Hallelujah;fontSource=https%3A%2F%2Ffonts.googleapis.com%2Fcss%3Ffamily%3DGloria%2BHallelujah;" parent="RDo2QLgvlVAFaTOFHtLj-3" vertex="1">
          <mxGeometry x="29.02" y="136" width="58" height="58" as="geometry" />
        </mxCell>
        <mxCell id="DwbqeY5MqW88njfZYnf4-13" value="" style="shape=image;imageAspect=0;aspect=fixed;verticalLabelPosition=bottom;verticalAlign=top;image=https://upload.wikimedia.org/wikipedia/commons/thumb/e/e9/Jenkins_logo.svg/1200px-Jenkins_logo.svg.png;fontFamily=Gloria Hallelujah;fontSource=https%3A%2F%2Ffonts.googleapis.com%2Fcss%3Ffamily%3DGloria%2BHallelujah;" parent="RDo2QLgvlVAFaTOFHtLj-3" vertex="1">
          <mxGeometry x="113.38" y="120" width="65.25" height="90" as="geometry" />
        </mxCell>
        <mxCell id="DwbqeY5MqW88njfZYnf4-29" value="Successful&lt;div&gt;Scan&lt;/div&gt;" style="edgeStyle=orthogonalEdgeStyle;curved=1;rounded=0;orthogonalLoop=1;jettySize=auto;html=1;exitX=1;exitY=0.75;exitDx=0;exitDy=0;entryX=1;entryY=0.25;entryDx=0;entryDy=0;strokeColor=#7F00FF;strokeWidth=2;align=center;verticalAlign=middle;fontFamily=Gloria Hallelujah;fontSize=12;fontColor=default;fontStyle=1;labelBackgroundColor=default;endArrow=classic;flowAnimation=1;fontSource=https%3A%2F%2Ffonts.googleapis.com%2Fcss%3Ffamily%3DGloria%2BHallelujah;" parent="1" source="RDo2QLgvlVAFaTOFHtLj-4" target="RDo2QLgvlVAFaTOFHtLj-3" edge="1">
          <mxGeometry relative="1" as="geometry" />
        </mxCell>
        <mxCell id="RDo2QLgvlVAFaTOFHtLj-4" value="Registry" style="swimlane;html=1;sketch=1;curveFitting=1;jiggle=2;swimlaneLine=1;fontFamily=Gloria Hallelujah;fillColor=#e6d0de;strokeColor=#996185;fontSource=https%3A%2F%2Ffonts.googleapis.com%2Fcss%3Ffamily%3DGloria%2BHallelujah;gradientColor=#d5739d;" parent="1" vertex="1">
          <mxGeometry x="680" y="-70" width="200" height="280" as="geometry" />
        </mxCell>
        <mxCell id="DwbqeY5MqW88njfZYnf4-5" value="" style="shape=image;imageAspect=0;aspect=fixed;verticalLabelPosition=bottom;verticalAlign=top;image=https://static-00.iconduck.com/assets.00/harbor-icon-1018x1024-15bgc40q.png;fontFamily=Gloria Hallelujah;fontSource=https%3A%2F%2Ffonts.googleapis.com%2Fcss%3Ffamily%3DGloria%2BHallelujah;" parent="RDo2QLgvlVAFaTOFHtLj-4" vertex="1">
          <mxGeometry x="24.97" y="50" width="59.65" height="60" as="geometry" />
        </mxCell>
        <mxCell id="DwbqeY5MqW88njfZYnf4-6" value="" style="shape=image;imageAspect=0;aspect=fixed;verticalLabelPosition=bottom;verticalAlign=top;image=https://seeklogo.com/images/Q/quay-logo-068520E315-seeklogo.com.png;fontFamily=Gloria Hallelujah;fontSource=https%3A%2F%2Ffonts.googleapis.com%2Fcss%3Ffamily%3DGloria%2BHallelujah;" parent="RDo2QLgvlVAFaTOFHtLj-4" vertex="1">
          <mxGeometry x="111" y="50" width="65.22" height="60" as="geometry" />
        </mxCell>
        <mxCell id="DwbqeY5MqW88njfZYnf4-7" value="" style="image;aspect=fixed;html=1;points=[];align=center;fontSize=12;image=img/lib/azure2/containers/Container_Registries.svg;fontFamily=Gloria Hallelujah;fontSource=https%3A%2F%2Ffonts.googleapis.com%2Fcss%3Ffamily%3DGloria%2BHallelujah;" parent="RDo2QLgvlVAFaTOFHtLj-4" vertex="1">
          <mxGeometry x="26.37" y="140" width="56.85" height="51" as="geometry" />
        </mxCell>
        <mxCell id="DwbqeY5MqW88njfZYnf4-8" value="" style="sketch=0;points=[[0,0,0],[0.25,0,0],[0.5,0,0],[0.75,0,0],[1,0,0],[0,1,0],[0.25,1,0],[0.5,1,0],[0.75,1,0],[1,1,0],[0,0.25,0],[0,0.5,0],[0,0.75,0],[1,0.25,0],[1,0.5,0],[1,0.75,0]];outlineConnect=0;fontColor=#232F3E;fillColor=#ED7100;strokeColor=#ffffff;dashed=0;verticalLabelPosition=bottom;verticalAlign=top;align=center;html=1;fontSize=12;fontStyle=0;aspect=fixed;shape=mxgraph.aws4.resourceIcon;resIcon=mxgraph.aws4.ecr;fontFamily=Gloria Hallelujah;fontSource=https%3A%2F%2Ffonts.googleapis.com%2Fcss%3Ffamily%3DGloria%2BHallelujah;" parent="RDo2QLgvlVAFaTOFHtLj-4" vertex="1">
          <mxGeometry x="119.05" y="140" width="51" height="51" as="geometry" />
        </mxCell>
        <mxCell id="DwbqeY5MqW88njfZYnf4-9" value="" style="editableCssRules=.*;html=1;shape=image;verticalLabelPosition=bottom;labelBackgroundColor=#ffffff;verticalAlign=top;aspect=fixed;imageAspect=0;image=data:image/svg+xml,PHN2ZyB4bWxucz0iaHR0cDovL3d3dy53My5vcmcvMjAwMC9zdmciIHhtbG5zOnY9Imh0dHBzOi8vdmVjdGEuaW8vbmFubyIgd2lkdGg9IjIxLjk5OTAwMDU0OTMxNjQwNiIgaGVpZ2h0PSIyMC4zOTM5OTkwOTk3MzE0NDUiIHZpZXdCb3g9IjAgMCAyMS45OTkwMDA1NDkzMTY0MDYgMjAuMzkzOTk5MDk5NzMxNDQ1Ij4mI3hhOwk8c3R5bGUgdHlwZT0idGV4dC9jc3MiPiYjeGE7CS5zdDB7ZmlsbDojNDI4NWY0O2ZpbGwtcnVsZTpldmVub2RkfSYjeGE7CTwvc3R5bGU+JiN4YTsJPHBhdGggY2xhc3M9InN0MCIgZD0iTTUgMHYyLjQ1OEwxLjk5OSA0LjE5N3YxMi4wMUw1IDE3LjkzOHYyLjQ1NmwtNS0yLjg4N1YyLjg4NnptMTIgMGw0Ljk5OSAyLjg4NnYxNC42MjFMMTcgMjAuMzk0di0yLjQ1NmwzLTEuNzMxVjQuMTk3bC0zLTEuNzM5em0tNi4wMTYgNi42NzNsMi45NDctMS42NDYtMi45NDctMS42NDYtMi45NDcgMS42NDZ6bTMuMjY4LTEuMDk2bC0yLjg3MSAxLjY3OHYzLjI4N2wyLjg3MS0xLjY3NnpNNy43NzMgOC44NjZsMi44NzEgMS42NzRWNy4yNTZMNy43NzMgNS41Nzd6bS0uMjEyIDMuODc4bDIuODItMS42NDYtMi44Mi0xLjY0Ni0yLjgyIDEuNjQ2em0zLjEzMi0xLjA5OGwtMi44NzEgMS42Nzh2My4yODdsMi44NzEtMS42NzZ6bS02LjI2NCAzLjI4OUw3LjMgMTYuNjA5di0zLjI4NWwtMi44NzEtMS42Nzl6bTEwLjAyOS0yLjE5MWwyLjgyLTEuNjQ2LTIuODItMS42NDYtMi44MiAxLjY0NnptMy4xMzItMS4wOThsLTIuODcxIDEuNjc4djMuMjg3bDIuODcxLTEuNjc2em0tNi4yNjQgMy4yODlsMi44NzEgMS42NzR2LTMuMjg1bC0yLjg3MS0xLjY3OXoiLz4mI3hhOzwvc3ZnPg==;fontFamily=Gloria Hallelujah;fontSource=https%3A%2F%2Ffonts.googleapis.com%2Fcss%3Ffamily%3DGloria%2BHallelujah;" parent="RDo2QLgvlVAFaTOFHtLj-4" vertex="1">
          <mxGeometry x="22.58000000000004" y="210" width="64.44" height="58" as="geometry" />
        </mxCell>
        <mxCell id="DwbqeY5MqW88njfZYnf4-33" style="edgeStyle=orthogonalEdgeStyle;curved=1;rounded=0;orthogonalLoop=1;jettySize=auto;html=1;entryX=0;entryY=0.5;entryDx=0;entryDy=0;strokeColor=#7F00FF;strokeWidth=2;align=center;verticalAlign=middle;fontFamily=Gloria Hallelujah;fontSize=12;fontColor=default;fontStyle=1;labelBackgroundColor=default;endArrow=classic;flowAnimation=1;fontSource=https%3A%2F%2Ffonts.googleapis.com%2Fcss%3Ffamily%3DGloria%2BHallelujah;" parent="1" source="RDo2QLgvlVAFaTOFHtLj-5" target="RDo2QLgvlVAFaTOFHtLj-6" edge="1">
          <mxGeometry relative="1" as="geometry" />
        </mxCell>
        <mxCell id="DwbqeY5MqW88njfZYnf4-58" value="Deploy" style="edgeLabel;html=1;align=center;verticalAlign=middle;resizable=0;points=[];sketch=1;jiggle=2;curveFitting=1;strokeColor=default;fontFamily=Gloria Hallelujah;fontSize=12;fontColor=default;fontStyle=1;labelBackgroundColor=default;fillColor=default;fontSource=https%3A%2F%2Ffonts.googleapis.com%2Fcss%3Ffamily%3DGloria%2BHallelujah;" parent="DwbqeY5MqW88njfZYnf4-33" vertex="1" connectable="0">
          <mxGeometry x="-0.1714" y="-3" relative="1" as="geometry">
            <mxPoint as="offset" />
          </mxGeometry>
        </mxCell>
        <mxCell id="RDo2QLgvlVAFaTOFHtLj-5" value="IaC Security" style="swimlane;html=1;sketch=1;curveFitting=1;jiggle=2;swimlaneLine=1;fontFamily=Gloria Hallelujah;fillColor=#f5f5f5;gradientColor=#b3b3b3;strokeColor=#666666;fontSource=https%3A%2F%2Ffonts.googleapis.com%2Fcss%3Ffamily%3DGloria%2BHallelujah;" parent="1" vertex="1">
          <mxGeometry x="930" y="330" width="200" height="200" as="geometry" />
        </mxCell>
        <mxCell id="DwbqeY5MqW88njfZYnf4-14" value="" style="shape=image;imageAspect=0;aspect=fixed;verticalLabelPosition=bottom;verticalAlign=top;image=https://static-00.iconduck.com/assets.00/terraform-icon-1803x2048-hodrzd3t.png;fontFamily=Gloria Hallelujah;fontSource=https%3A%2F%2Ffonts.googleapis.com%2Fcss%3Ffamily%3DGloria%2BHallelujah;" parent="RDo2QLgvlVAFaTOFHtLj-5" vertex="1">
          <mxGeometry x="20" y="36" width="61.65" height="70" as="geometry" />
        </mxCell>
        <mxCell id="DwbqeY5MqW88njfZYnf4-15" value="" style="sketch=0;points=[[0,0,0],[0.25,0,0],[0.5,0,0],[0.75,0,0],[1,0,0],[0,1,0],[0.25,1,0],[0.5,1,0],[0.75,1,0],[1,1,0],[0,0.25,0],[0,0.5,0],[0,0.75,0],[1,0.25,0],[1,0.5,0],[1,0.75,0]];points=[[0,0,0],[0.25,0,0],[0.5,0,0],[0.75,0,0],[1,0,0],[0,1,0],[0.25,1,0],[0.5,1,0],[0.75,1,0],[1,1,0],[0,0.25,0],[0,0.5,0],[0,0.75,0],[1,0.25,0],[1,0.5,0],[1,0.75,0]];outlineConnect=0;fontColor=#232F3E;fillColor=#E7157B;strokeColor=#ffffff;dashed=0;verticalLabelPosition=bottom;verticalAlign=top;align=center;html=1;fontSize=12;fontStyle=0;aspect=fixed;shape=mxgraph.aws4.resourceIcon;resIcon=mxgraph.aws4.cloudformation;fontFamily=Gloria Hallelujah;fontSource=https%3A%2F%2Ffonts.googleapis.com%2Fcss%3Ffamily%3DGloria%2BHallelujah;" parent="RDo2QLgvlVAFaTOFHtLj-5" vertex="1">
          <mxGeometry x="110" y="42" width="58" height="58" as="geometry" />
        </mxCell>
        <mxCell id="DwbqeY5MqW88njfZYnf4-16" value="" style="shape=image;imageAspect=0;aspect=fixed;verticalLabelPosition=bottom;verticalAlign=top;image=https://assets-global.website-files.com/627ba91db7d555cdff7d210c/62aa2396f5c37ea1a74e3359_armlogo.png;fontFamily=Gloria Hallelujah;fontSource=https%3A%2F%2Ffonts.googleapis.com%2Fcss%3Ffamily%3DGloria%2BHallelujah;" parent="RDo2QLgvlVAFaTOFHtLj-5" vertex="1">
          <mxGeometry x="20" y="130" width="62.85" height="51" as="geometry" />
        </mxCell>
        <mxCell id="DwbqeY5MqW88njfZYnf4-17" value="" style="shape=image;imageAspect=0;aspect=fixed;verticalLabelPosition=bottom;verticalAlign=top;image=https://miro.medium.com/v2/resize:fit:512/1*jd48uah0ThBNfkjJCbly6w.png;fontFamily=Gloria Hallelujah;fontSource=https%3A%2F%2Ffonts.googleapis.com%2Fcss%3Ffamily%3DGloria%2BHallelujah;" parent="RDo2QLgvlVAFaTOFHtLj-5" vertex="1">
          <mxGeometry x="108" y="124.5" width="62" height="62" as="geometry" />
        </mxCell>
        <mxCell id="DwbqeY5MqW88njfZYnf4-34" value="Secret Extraction" style="edgeStyle=orthogonalEdgeStyle;curved=1;rounded=0;orthogonalLoop=1;jettySize=auto;html=1;exitX=0.25;exitY=1;exitDx=0;exitDy=0;entryX=1;entryY=0.25;entryDx=0;entryDy=0;strokeColor=#7F00FF;strokeWidth=2;align=center;verticalAlign=middle;fontFamily=Gloria Hallelujah;fontSize=12;fontColor=default;fontStyle=1;labelBackgroundColor=default;endArrow=classic;flowAnimation=1;fontSource=https%3A%2F%2Ffonts.googleapis.com%2Fcss%3Ffamily%3DGloria%2BHallelujah;" parent="1" source="RDo2QLgvlVAFaTOFHtLj-6" target="RDo2QLgvlVAFaTOFHtLj-7" edge="1">
          <mxGeometry x="0.0486" y="-30" relative="1" as="geometry">
            <mxPoint as="offset" />
          </mxGeometry>
        </mxCell>
        <mxCell id="RDo2QLgvlVAFaTOFHtLj-6" value="Runtime Protection" style="swimlane;html=1;sketch=1;curveFitting=1;jiggle=2;swimlaneLine=1;fontFamily=Gloria Hallelujah;fillColor=#e6d0de;strokeColor=#996185;fontSource=https%3A%2F%2Ffonts.googleapis.com%2Fcss%3Ffamily%3DGloria%2BHallelujah;gradientColor=#d5739d;" parent="1" vertex="1">
          <mxGeometry x="1200" y="320" width="370" height="220" as="geometry" />
        </mxCell>
        <mxCell id="DwbqeY5MqW88njfZYnf4-18" value="" style="shape=image;imageAspect=0;aspect=fixed;verticalLabelPosition=bottom;verticalAlign=top;image=https://upload.wikimedia.org/wikipedia/commons/thumb/3/39/Kubernetes_logo_without_workmark.svg/1200px-Kubernetes_logo_without_workmark.svg.png;fontFamily=Gloria Hallelujah;fontSource=https%3A%2F%2Ffonts.googleapis.com%2Fcss%3Ffamily%3DGloria%2BHallelujah;" parent="RDo2QLgvlVAFaTOFHtLj-6" vertex="1">
          <mxGeometry x="20" y="35" width="66.93" height="65" as="geometry" />
        </mxCell>
        <mxCell id="DwbqeY5MqW88njfZYnf4-19" value="" style="shape=image;imageAspect=0;aspect=fixed;verticalLabelPosition=bottom;verticalAlign=top;image=https://upload.wikimedia.org/wikipedia/commons/thumb/3/3a/OpenShift-LogoType.svg/1917px-OpenShift-LogoType.svg.png;fontFamily=Gloria Hallelujah;fontSource=https%3A%2F%2Ffonts.googleapis.com%2Fcss%3Ffamily%3DGloria%2BHallelujah;" parent="RDo2QLgvlVAFaTOFHtLj-6" vertex="1">
          <mxGeometry x="16.00999999999999" y="120" width="74.92" height="80" as="geometry" />
        </mxCell>
        <mxCell id="DwbqeY5MqW88njfZYnf4-20" value="" style="sketch=0;points=[[0,0,0],[0.25,0,0],[0.5,0,0],[0.75,0,0],[1,0,0],[0,1,0],[0.25,1,0],[0.5,1,0],[0.75,1,0],[1,1,0],[0,0.25,0],[0,0.5,0],[0,0.75,0],[1,0.25,0],[1,0.5,0],[1,0.75,0]];outlineConnect=0;fontColor=#232F3E;fillColor=#ED7100;strokeColor=#ffffff;dashed=0;verticalLabelPosition=bottom;verticalAlign=top;align=center;html=1;fontSize=12;fontStyle=0;aspect=fixed;shape=mxgraph.aws4.resourceIcon;resIcon=mxgraph.aws4.ecs;fontFamily=Gloria Hallelujah;fontSource=https%3A%2F%2Ffonts.googleapis.com%2Fcss%3Ffamily%3DGloria%2BHallelujah;" parent="RDo2QLgvlVAFaTOFHtLj-6" vertex="1">
          <mxGeometry x="120" y="38.5" width="58" height="58" as="geometry" />
        </mxCell>
        <mxCell id="DwbqeY5MqW88njfZYnf4-21" value="" style="sketch=0;points=[[0,0,0],[0.25,0,0],[0.5,0,0],[0.75,0,0],[1,0,0],[0,1,0],[0.25,1,0],[0.5,1,0],[0.75,1,0],[1,1,0],[0,0.25,0],[0,0.5,0],[0,0.75,0],[1,0.25,0],[1,0.5,0],[1,0.75,0]];outlineConnect=0;fontColor=#232F3E;fillColor=#ED7100;strokeColor=#ffffff;dashed=0;verticalLabelPosition=bottom;verticalAlign=top;align=center;html=1;fontSize=12;fontStyle=0;aspect=fixed;shape=mxgraph.aws4.resourceIcon;resIcon=mxgraph.aws4.lambda;fontFamily=Gloria Hallelujah;fontSource=https%3A%2F%2Ffonts.googleapis.com%2Fcss%3Ffamily%3DGloria%2BHallelujah;" parent="RDo2QLgvlVAFaTOFHtLj-6" vertex="1">
          <mxGeometry x="120" y="137" width="53" height="53" as="geometry" />
        </mxCell>
        <mxCell id="DwbqeY5MqW88njfZYnf4-22" value="" style="sketch=0;points=[[0,0,0],[0.25,0,0],[0.5,0,0],[0.75,0,0],[1,0,0],[0,1,0],[0.25,1,0],[0.5,1,0],[0.75,1,0],[1,1,0],[0,0.25,0],[0,0.5,0],[0,0.75,0],[1,0.25,0],[1,0.5,0],[1,0.75,0]];outlineConnect=0;fontColor=#232F3E;fillColor=#ED7100;strokeColor=#ffffff;dashed=0;verticalLabelPosition=bottom;verticalAlign=top;align=center;html=1;fontSize=12;fontStyle=0;aspect=fixed;shape=mxgraph.aws4.resourceIcon;resIcon=mxgraph.aws4.eks;fontFamily=Gloria Hallelujah;fontSource=https%3A%2F%2Ffonts.googleapis.com%2Fcss%3Ffamily%3DGloria%2BHallelujah;" parent="RDo2QLgvlVAFaTOFHtLj-6" vertex="1">
          <mxGeometry x="200" y="38.5" width="61.5" height="61.5" as="geometry" />
        </mxCell>
        <mxCell id="DwbqeY5MqW88njfZYnf4-23" value="" style="sketch=0;points=[[0,0,0],[0.25,0,0],[0.5,0,0],[0.75,0,0],[1,0,0],[0,1,0],[0.25,1,0],[0.5,1,0],[0.75,1,0],[1,1,0],[0,0.25,0],[0,0.5,0],[0,0.75,0],[1,0.25,0],[1,0.5,0],[1,0.75,0]];outlineConnect=0;fontColor=#232F3E;fillColor=#ED7100;strokeColor=#ffffff;dashed=0;verticalLabelPosition=bottom;verticalAlign=top;align=center;html=1;fontSize=12;fontStyle=0;aspect=fixed;shape=mxgraph.aws4.resourceIcon;resIcon=mxgraph.aws4.fargate;fontFamily=Gloria Hallelujah;fontSource=https%3A%2F%2Ffonts.googleapis.com%2Fcss%3Ffamily%3DGloria%2BHallelujah;" parent="RDo2QLgvlVAFaTOFHtLj-6" vertex="1">
          <mxGeometry x="190" y="132" width="63" height="63" as="geometry" />
        </mxCell>
        <mxCell id="DwbqeY5MqW88njfZYnf4-24" value="" style="image;aspect=fixed;html=1;points=[];align=center;fontSize=12;image=img/lib/azure2/compute/Kubernetes_Services.svg;fontFamily=Gloria Hallelujah;fontSource=https%3A%2F%2Ffonts.googleapis.com%2Fcss%3Ffamily%3DGloria%2BHallelujah;" parent="RDo2QLgvlVAFaTOFHtLj-6" vertex="1">
          <mxGeometry x="280" y="132" width="68" height="60" as="geometry" />
        </mxCell>
        <mxCell id="DwbqeY5MqW88njfZYnf4-25" value="" style="editableCssRules=.*;html=1;shape=image;verticalLabelPosition=bottom;labelBackgroundColor=#ffffff;verticalAlign=top;aspect=fixed;imageAspect=0;image=data:image/svg+xml,PHN2ZyB4bWxucz0iaHR0cDovL3d3dy53My5vcmcvMjAwMC9zdmciIHhtbG5zOnY9Imh0dHBzOi8vdmVjdGEuaW8vbmFubyIgd2lkdGg9IjMyOS45MjU5OTcyMzE3OTM4IiBoZWlnaHQ9IjM3OC4yODQ5OTAzMTEyNzg4IiB2aWV3Qm94PSIwIDAgODcuMjkyOTk5MjY3NTc4MTIgMTAwLjA4Nzk5NzQzNjUyMzQ0Ij4mI3hhOzxzdHlsZSB0eXBlPSJ0ZXh0L2NzcyI+JiN4YTsJLnN0MHtmaWxsOiNhZWNiZmE7fSYjeGE7CS5zdDF7ZmlsbDojNjY5ZGY2O30mI3hhOwkuc3Qye2ZpbGw6IzQyODVmNDt9JiN4YTs8L3N0eWxlPiYjeGE7CTxwYXRoIGNsYXNzPSJzdDAiIGQ9Ik00My43NTEgMEwwIDI1LjQ2NXYyLjU4OCA0Ni45Mmw0My43NTIgMjUuMTE1IDQzLjU0MS0yNS4xMjFWMjUuNDczem0yLjQzOCAxMS44NTNsMzIuMTAzIDE4Ljc4MlY2OS43N0w0My43MzkgODkuNzA1IDkgNjkuNzYyVjMwLjY0MWwzMi4xOS0xOC43MzZ2MTQuMTU0TDI0LjUwMyAzNi4xNTNsMTkuMTcyIDExLjUwMiAxOC44ODYtMTEuNTU0LTE2LjM3Mi0xMC4wMjR6Ii8+JiN4YTsJPHBhdGggY2xhc3M9InN0MSIgZD0iTTIyLjAyNSA0MC40OTZsLjE2NiAxOS4xNDMtMTMuMjQ3IDcuMzN2Mi43NDJsMi42MzcgMS41MTQgMTIuNjQ4LTYuOTk5TDQxLjE5IDc0LjgyOFY1MS45OTN6Ii8+JiN4YTsJPHBhdGggY2xhc3M9InN0MiIgZD0iTTY1LjM0NCA0MC4yNkw0Ni4xODkgNTEuOTc5djIyLjg0N0w2My4wODggNjQuMjVsMTIuNTM5IDYuOTc0IDIuNjA5LTEuNTA1di0yLjc2NWwtMTIuNzg0LTcuMTEyeiIvPiYjeGE7PC9zdmc+;fontFamily=Gloria Hallelujah;fontSource=https%3A%2F%2Ffonts.googleapis.com%2Fcss%3Ffamily%3DGloria%2BHallelujah;" parent="RDo2QLgvlVAFaTOFHtLj-6" vertex="1">
          <mxGeometry x="283.5" y="38.5" width="61" height="67.78" as="geometry" />
        </mxCell>
        <mxCell id="RDo2QLgvlVAFaTOFHtLj-7" value="Secret Management" style="swimlane;html=1;sketch=1;curveFitting=1;jiggle=2;swimlaneLine=1;fontFamily=Gloria Hallelujah;fillColor=#e6d0de;strokeColor=#996185;fontSource=https%3A%2F%2Ffonts.googleapis.com%2Fcss%3Ffamily%3DGloria%2BHallelujah;gradientColor=#d5739d;" parent="1" vertex="1">
          <mxGeometry x="780" y="640" width="200" height="200" as="geometry" />
        </mxCell>
        <mxCell id="DwbqeY5MqW88njfZYnf4-37" value="" style="image;aspect=fixed;html=1;points=[];align=center;fontSize=12;image=img/lib/azure2/security/Key_Vaults.svg;sketch=1;jiggle=2;curveFitting=1;strokeColor=default;verticalAlign=middle;fontFamily=Gloria Hallelujah;fontColor=default;fontStyle=1;labelBackgroundColor=default;fillColor=default;fontSource=https%3A%2F%2Ffonts.googleapis.com%2Fcss%3Ffamily%3DGloria%2BHallelujah;" parent="RDo2QLgvlVAFaTOFHtLj-7" vertex="1">
          <mxGeometry x="32" y="40" width="60" height="60" as="geometry" />
        </mxCell>
        <mxCell id="DwbqeY5MqW88njfZYnf4-38" value="" style="shape=image;imageAspect=0;aspect=fixed;verticalLabelPosition=bottom;verticalAlign=top;sketch=1;jiggle=2;curveFitting=1;strokeColor=default;align=center;fontFamily=Gloria Hallelujah;fontSize=12;fontColor=default;fontStyle=1;labelBackgroundColor=default;fillColor=default;image=https://www.svgrepo.com/show/448679/vault.svg;fontSource=https%3A%2F%2Ffonts.googleapis.com%2Fcss%3Ffamily%3DGloria%2BHallelujah;" parent="RDo2QLgvlVAFaTOFHtLj-7" vertex="1">
          <mxGeometry x="120" y="40" width="60" height="60" as="geometry" />
        </mxCell>
        <mxCell id="DwbqeY5MqW88njfZYnf4-39" value="" style="sketch=0;points=[[0,0,0],[0.25,0,0],[0.5,0,0],[0.75,0,0],[1,0,0],[0,1,0],[0.25,1,0],[0.5,1,0],[0.75,1,0],[1,1,0],[0,0.25,0],[0,0.5,0],[0,0.75,0],[1,0.25,0],[1,0.5,0],[1,0.75,0]];outlineConnect=0;fontColor=#232F3E;fillColor=#DD344C;strokeColor=#ffffff;dashed=0;verticalLabelPosition=bottom;verticalAlign=top;align=center;html=1;fontSize=12;fontStyle=0;aspect=fixed;shape=mxgraph.aws4.resourceIcon;resIcon=mxgraph.aws4.secrets_manager;jiggle=2;curveFitting=1;fontFamily=Gloria Hallelujah;labelBackgroundColor=default;fontSource=https%3A%2F%2Ffonts.googleapis.com%2Fcss%3Ffamily%3DGloria%2BHallelujah;" parent="RDo2QLgvlVAFaTOFHtLj-7" vertex="1">
          <mxGeometry x="33" y="120" width="58" height="58" as="geometry" />
        </mxCell>
        <mxCell id="DwbqeY5MqW88njfZYnf4-40" value="" style="shape=image;imageAspect=0;aspect=fixed;verticalLabelPosition=bottom;verticalAlign=top;sketch=1;jiggle=2;curveFitting=1;strokeColor=default;align=center;fontFamily=Gloria Hallelujah;fontSize=12;fontColor=default;fontStyle=1;labelBackgroundColor=default;fillColor=default;image=https://cdn.icon-icons.com/icons2/2699/PNG/512/cyberark_logo_icon_168315.png;fontSource=https%3A%2F%2Ffonts.googleapis.com%2Fcss%3Ffamily%3DGloria%2BHallelujah;" parent="RDo2QLgvlVAFaTOFHtLj-7" vertex="1">
          <mxGeometry x="114" y="113" width="72" height="72" as="geometry" />
        </mxCell>
        <mxCell id="DwbqeY5MqW88njfZYnf4-31" value="Secret Creation" style="edgeStyle=orthogonalEdgeStyle;curved=1;rounded=0;orthogonalLoop=1;jettySize=auto;html=1;exitX=0.5;exitY=1;exitDx=0;exitDy=0;entryX=0.325;entryY=0.005;entryDx=0;entryDy=0;entryPerimeter=0;strokeColor=#7F00FF;strokeWidth=2;align=center;verticalAlign=middle;fontFamily=Gloria Hallelujah;fontSize=12;fontColor=default;fontStyle=1;labelBackgroundColor=default;endArrow=classic;flowAnimation=1;fontSource=https%3A%2F%2Ffonts.googleapis.com%2Fcss%3Ffamily%3DGloria%2BHallelujah;" parent="1" source="RDo2QLgvlVAFaTOFHtLj-3" target="RDo2QLgvlVAFaTOFHtLj-7" edge="1">
          <mxGeometry relative="1" as="geometry" />
        </mxCell>
        <mxCell id="DwbqeY5MqW88njfZYnf4-41" value="" style="shape=image;imageAspect=0;aspect=fixed;verticalLabelPosition=bottom;verticalAlign=top;sketch=1;jiggle=2;curveFitting=1;strokeColor=default;align=center;fontFamily=Gloria Hallelujah;fontSize=12;fontColor=default;fontStyle=1;labelBackgroundColor=default;fillColor=default;image=https://plugins.jetbrains.com/files/21907/522769/icon/pluginIcon.png;fontSource=https%3A%2F%2Ffonts.googleapis.com%2Fcss%3Ffamily%3DGloria%2BHallelujah;" parent="1" vertex="1">
          <mxGeometry x="70" y="260" width="50" height="50" as="geometry" />
        </mxCell>
        <mxCell id="DwbqeY5MqW88njfZYnf4-42" value="" style="shape=image;imageAspect=0;aspect=fixed;verticalLabelPosition=bottom;verticalAlign=top;sketch=1;jiggle=2;curveFitting=1;strokeColor=default;align=center;fontFamily=Gloria Hallelujah;fontSize=12;fontColor=default;fontStyle=1;labelBackgroundColor=default;fillColor=default;image=https://plugins.jetbrains.com/files/21907/522769/icon/pluginIcon.png;fontSource=https%3A%2F%2Ffonts.googleapis.com%2Fcss%3Ffamily%3DGloria%2BHallelujah;" parent="1" vertex="1">
          <mxGeometry x="350" y="260" width="50" height="50" as="geometry" />
        </mxCell>
        <mxCell id="DwbqeY5MqW88njfZYnf4-43" value="" style="shape=image;imageAspect=0;aspect=fixed;verticalLabelPosition=bottom;verticalAlign=top;sketch=1;jiggle=2;curveFitting=1;strokeColor=default;align=center;fontFamily=Gloria Hallelujah;fontSize=12;fontColor=default;fontStyle=1;labelBackgroundColor=default;fillColor=default;image=https://plugins.jetbrains.com/files/21907/522769/icon/pluginIcon.png;fontSource=https%3A%2F%2Ffonts.googleapis.com%2Fcss%3Ffamily%3DGloria%2BHallelujah;" parent="1" vertex="1">
          <mxGeometry x="640" y="250" width="50" height="50" as="geometry" />
        </mxCell>
        <mxCell id="DwbqeY5MqW88njfZYnf4-44" value="" style="shape=image;imageAspect=0;aspect=fixed;verticalLabelPosition=bottom;verticalAlign=top;sketch=1;jiggle=2;curveFitting=1;strokeColor=default;align=center;fontFamily=Gloria Hallelujah;fontSize=12;fontColor=default;fontStyle=1;labelBackgroundColor=default;fillColor=default;image=https://plugins.jetbrains.com/files/21907/522769/icon/pluginIcon.png;fontSource=https%3A%2F%2Ffonts.googleapis.com%2Fcss%3Ffamily%3DGloria%2BHallelujah;" parent="1" vertex="1">
          <mxGeometry x="680" y="-120" width="50" height="50" as="geometry" />
        </mxCell>
        <mxCell id="DwbqeY5MqW88njfZYnf4-45" value="" style="shape=image;imageAspect=0;aspect=fixed;verticalLabelPosition=bottom;verticalAlign=top;sketch=1;jiggle=2;curveFitting=1;strokeColor=default;align=center;fontFamily=Gloria Hallelujah;fontSize=12;fontColor=default;fontStyle=1;labelBackgroundColor=default;fillColor=default;image=https://plugins.jetbrains.com/files/21907/522769/icon/pluginIcon.png;fontSource=https%3A%2F%2Ffonts.googleapis.com%2Fcss%3Ffamily%3DGloria%2BHallelujah;" parent="1" vertex="1">
          <mxGeometry x="930" y="280" width="50" height="50" as="geometry" />
        </mxCell>
        <mxCell id="DwbqeY5MqW88njfZYnf4-46" value="" style="shape=image;imageAspect=0;aspect=fixed;verticalLabelPosition=bottom;verticalAlign=top;sketch=1;jiggle=2;curveFitting=1;strokeColor=default;align=center;fontFamily=Gloria Hallelujah;fontSize=12;fontColor=default;fontStyle=1;labelBackgroundColor=default;fillColor=default;image=https://plugins.jetbrains.com/files/21907/522769/icon/pluginIcon.png;fontSource=https%3A%2F%2Ffonts.googleapis.com%2Fcss%3Ffamily%3DGloria%2BHallelujah;" parent="1" vertex="1">
          <mxGeometry x="1200" y="270" width="50" height="50" as="geometry" />
        </mxCell>
        <mxCell id="DwbqeY5MqW88njfZYnf4-47" value="" style="shape=image;imageAspect=0;aspect=fixed;verticalLabelPosition=bottom;verticalAlign=top;sketch=1;jiggle=2;curveFitting=1;strokeColor=default;align=center;fontFamily=Gloria Hallelujah;fontSize=12;fontColor=default;fontStyle=1;labelBackgroundColor=default;fillColor=default;image=https://plugins.jetbrains.com/files/21907/522769/icon/pluginIcon.png;fontSource=https%3A%2F%2Ffonts.googleapis.com%2Fcss%3Ffamily%3DGloria%2BHallelujah;" parent="1" vertex="1">
          <mxGeometry x="930" y="590" width="50" height="50" as="geometry" />
        </mxCell>
        <mxCell id="DwbqeY5MqW88njfZYnf4-48" value="&lt;span style=&quot;font-size: 13px;&quot; id=&quot;docs-internal-guid-8a07c1f8-7fff-144c-3e6b-a0d386fec6b9&quot;&gt;&lt;font data-font-src=&quot;https://fonts.googleapis.com/css?family=Gloria+Hallelujah&quot; style=&quot;font-size: 13px;&quot;&gt;&lt;p dir=&quot;ltr&quot; style=&quot;line-height: 1.2; margin-top: 0pt; margin-bottom: 0pt; font-size: 13px;&quot;&gt;&lt;span style=&quot;font-size: 13px; color: rgb(0, 0, 0); font-style: normal; font-variant: normal; text-decoration: none; vertical-align: baseline; white-space: pre-wrap;&quot;&gt;Prisma Cloud IDE Plugin&lt;/span&gt;&lt;/p&gt;&lt;p dir=&quot;ltr&quot; style=&quot;line-height: 1.2; margin-top: 0pt; margin-bottom: 0pt; font-size: 13px;&quot;&gt;&lt;/p&gt;&lt;ul style=&quot;font-size: 13px;&quot;&gt;&lt;li style=&quot;text-align: justify; font-size: 13px;&quot;&gt;&lt;span style=&quot;font-size: 13px; white-space-collapse: preserve; font-weight: normal;&quot;&gt;Enforce guardrails as you code IaC template and Application Code&lt;/span&gt;&lt;/li&gt;&lt;li style=&quot;text-align: justify; font-size: 13px;&quot;&gt;&lt;span style=&quot;font-size: 13px; white-space-collapse: preserve; font-weight: normal;&quot;&gt;Inline insights and fixes&lt;br/&gt;&lt;/span&gt;&lt;/li&gt;&lt;li style=&quot;text-align: justify; font-size: 13px;&quot;&gt;&lt;span style=&quot;font-size: 13px; white-space-collapse: preserve; font-weight: normal;&quot;&gt;SAST* (Beta)&lt;/span&gt;&lt;/li&gt;&lt;/ul&gt;&lt;p style=&quot;font-size: 13px;&quot;&gt;&lt;/p&gt;&lt;/font&gt;&lt;/span&gt;" style="shape=callout;whiteSpace=wrap;html=1;perimeter=calloutPerimeter;sketch=1;jiggle=2;curveFitting=1;strokeColor=#d6b656;align=center;verticalAlign=middle;fontFamily=Gloria Hallelujah;fontSize=13;fontStyle=1;labelBackgroundColor=none;fillColor=#fff2cc;position2=0.46;gradientColor=#ffd966;fontSource=https%3A%2F%2Ffonts.googleapis.com%2Fcss%3Ffamily%3DGloria%2BHallelujah;" parent="1" vertex="1">
          <mxGeometry x="60" y="120" width="270" height="160" as="geometry" />
        </mxCell>
        <mxCell id="DwbqeY5MqW88njfZYnf4-50" value="&lt;b id=&quot;docs-internal-guid-3b90c343-7fff-3ddd-a99e-53f0f4e623fa&quot; style=&quot;font-weight: normal; font-size: 13px;&quot;&gt;&lt;p style=&quot;line-height: 1.2; margin-top: 0pt; margin-bottom: 0pt; font-size: 13px;&quot; dir=&quot;ltr&quot;&gt;&lt;span style=&quot;font-size: 13px; color: rgb(0, 0, 0); font-weight: 700; font-style: normal; font-variant: normal; text-decoration: none; vertical-align: baseline; white-space: pre-wrap;&quot;&gt;Integrate with Git Repo&amp;nbsp;&lt;/span&gt;&lt;/p&gt;&lt;br style=&quot;font-size: 13px;&quot;&gt;&lt;ul style=&quot;margin-top: 0px; margin-bottom: 0px; padding-inline-start: 48px; font-size: 13px;&quot;&gt;&lt;li aria-level=&quot;1&quot; style=&quot;list-style-type: disc; font-size: 13px; color: rgb(0, 0, 0); font-weight: 400; font-style: normal; font-variant: normal; text-decoration: none; vertical-align: baseline; white-space: pre; margin-left: -15pt;&quot; dir=&quot;ltr&quot;&gt;&lt;p role=&quot;presentation&quot; style=&quot;text-align: left; line-height: 1.2; margin-top: 0pt; margin-bottom: 0pt; font-size: 13px;&quot; dir=&quot;ltr&quot;&gt;&lt;span style=&quot;font-size: 13px; color: rgb(0, 0, 0); font-weight: 400; font-style: normal; font-variant: normal; text-decoration: none; vertical-align: baseline; white-space: pre-wrap;&quot;&gt;IaC template scanning&lt;/span&gt;&lt;/p&gt;&lt;/li&gt;&lt;li aria-level=&quot;1&quot; style=&quot;list-style-type: disc; font-size: 13px; color: rgb(0, 0, 0); font-weight: 400; font-style: normal; font-variant: normal; text-decoration: none; vertical-align: baseline; white-space: pre; margin-left: -15pt;&quot; dir=&quot;ltr&quot;&gt;&lt;p role=&quot;presentation&quot; style=&quot;text-align: left; line-height: 1.2; margin-top: 0pt; margin-bottom: 0pt; font-size: 13px;&quot; dir=&quot;ltr&quot;&gt;&lt;span style=&quot;font-size: 13px; color: rgb(0, 0, 0); font-weight: 400; font-style: normal; font-variant: normal; text-decoration: none; vertical-align: baseline; white-space: pre-wrap;&quot;&gt;Pull Request bot comment&lt;/span&gt;&lt;/p&gt;&lt;/li&gt;&lt;li aria-level=&quot;1&quot; style=&quot;list-style-type: disc; font-size: 13px; color: rgb(0, 0, 0); font-weight: 400; font-style: normal; font-variant: normal; text-decoration: none; vertical-align: baseline; white-space: pre; margin-left: -15pt;&quot; dir=&quot;ltr&quot;&gt;&lt;p role=&quot;presentation&quot; style=&quot;text-align: left; line-height: 1.2; margin-top: 0pt; margin-bottom: 0pt; font-size: 13px;&quot; dir=&quot;ltr&quot;&gt;&lt;span style=&quot;font-size: 13px; color: rgb(0, 0, 0); font-weight: 400; font-style: normal; font-variant: normal; text-decoration: none; vertical-align: baseline; white-space: pre-wrap;&quot;&gt;Vulnerabilities scanning (Python, Java, JS)&lt;/span&gt;&lt;/p&gt;&lt;/li&gt;&lt;li aria-level=&quot;1&quot; style=&quot;list-style-type: disc; font-size: 13px; color: rgb(0, 0, 0); font-weight: 400; font-style: normal; font-variant: normal; text-decoration: none; vertical-align: baseline; white-space: pre; margin-left: -15pt;&quot; dir=&quot;ltr&quot;&gt;&lt;p role=&quot;presentation&quot; style=&quot;text-align: left; line-height: 1.2; margin-top: 0pt; margin-bottom: 0pt; font-size: 13px;&quot; dir=&quot;ltr&quot;&gt;&lt;span style=&quot;font-size: 13px; color: rgb(0, 0, 0); font-weight: 400; font-style: normal; font-variant: normal; text-decoration: none; vertical-align: baseline; white-space: pre-wrap;&quot;&gt;Compliance&lt;/span&gt;&lt;/p&gt;&lt;/li&gt;&lt;li aria-level=&quot;1&quot; style=&quot;list-style-type: disc; font-size: 13px; color: rgb(0, 0, 0); font-weight: 400; font-style: normal; font-variant: normal; text-decoration: none; vertical-align: baseline; white-space: pre; margin-left: -15pt;&quot; dir=&quot;ltr&quot;&gt;&lt;p role=&quot;presentation&quot; style=&quot;text-align: left; line-height: 1.2; margin-top: 0pt; margin-bottom: 0pt; font-size: 13px;&quot; dir=&quot;ltr&quot;&gt;&lt;span style=&quot;font-size: 13px; color: rgb(0, 0, 0); font-weight: 400; font-style: normal; font-variant: normal; text-decoration: none; vertical-align: baseline; white-space: pre-wrap;&quot;&gt;Secret Scanning&lt;/span&gt;&lt;/p&gt;&lt;/li&gt;&lt;li aria-level=&quot;1&quot; style=&quot;list-style-type: disc; font-size: 13px; color: rgb(0, 0, 0); font-weight: 400; font-style: normal; font-variant: normal; text-decoration: none; vertical-align: baseline; white-space: pre; margin-left: -15pt;&quot; dir=&quot;ltr&quot;&gt;&lt;p role=&quot;presentation&quot; style=&quot;text-align: left; line-height: 1.2; margin-top: 0pt; margin-bottom: 0pt; font-size: 13px;&quot; dir=&quot;ltr&quot;&gt;&lt;span style=&quot;font-size: 13px; color: rgb(0, 0, 0); font-weight: 400; font-style: normal; font-variant: normal; text-decoration: none; vertical-align: baseline; white-space: pre-wrap;&quot;&gt;SBOM Generation&lt;/span&gt;&lt;/p&gt;&lt;/li&gt;&lt;li aria-level=&quot;1&quot; style=&quot;list-style-type: disc; font-size: 13px; color: rgb(0, 0, 0); font-weight: 400; font-style: normal; font-variant: normal; text-decoration: none; vertical-align: baseline; white-space: pre; margin-left: -15pt;&quot; dir=&quot;ltr&quot;&gt;&lt;p role=&quot;presentation&quot; style=&quot;text-align: left; line-height: 1.2; margin-top: 0pt; margin-bottom: 0pt; font-size: 13px;&quot; dir=&quot;ltr&quot;&gt;&lt;span style=&quot;font-size: 13px; color: rgb(0, 0, 0); font-weight: 400; font-style: normal; font-variant: normal; text-decoration: none; vertical-align: baseline; white-space: pre-wrap;&quot;&gt;OSS License Scanning&lt;/span&gt;&lt;/p&gt;&lt;/li&gt;&lt;li aria-level=&quot;1&quot; style=&quot;list-style-type: disc; font-size: 13px; color: rgb(0, 0, 0); font-weight: 400; font-style: normal; font-variant: normal; text-decoration: none; vertical-align: baseline; white-space: pre; margin-left: -15pt;&quot; dir=&quot;ltr&quot;&gt;&lt;p role=&quot;presentation&quot; style=&quot;text-align: left; line-height: 1.2; margin-top: 0pt; margin-bottom: 0pt; font-size: 13px;&quot; dir=&quot;ltr&quot;&gt;&lt;span style=&quot;text-wrap: wrap; text-align: justify; background-color: initial;&quot;&gt;SAST* (Beta)&lt;/span&gt;&lt;/p&gt;&lt;/li&gt;&lt;/ul&gt;&lt;/b&gt;" style="whiteSpace=wrap;html=1;shape=mxgraph.basic.rectCallout;dx=54;dy=38;boundedLbl=1;sketch=1;jiggle=2;curveFitting=1;strokeColor=#d6b656;align=center;verticalAlign=middle;fontFamily=Gloria Hallelujah;fontSize=13;fontStyle=1;labelBackgroundColor=none;fillColor=#fff2cc;gradientColor=#ffd966;fontSource=https%3A%2F%2Ffonts.googleapis.com%2Fcss%3Ffamily%3DGloria%2BHallelujah;" parent="1" vertex="1">
          <mxGeometry x="380" y="30" width="210" height="250" as="geometry" />
        </mxCell>
        <mxCell id="DwbqeY5MqW88njfZYnf4-51" value="&lt;span id=&quot;docs-internal-guid-3b90c343-7fff-3ddd-a99e-53f0f4e623fa&quot; style=&quot;font-size: 13px;&quot;&gt;&lt;p style=&quot;line-height: 1.2; margin-top: 0pt; margin-bottom: 0pt; font-size: 13px;&quot; dir=&quot;ltr&quot;&gt;&lt;span style=&quot;white-space-collapse: preserve; font-size: 13px;&quot;&gt;Integrate with Registry&lt;br style=&quot;font-size: 13px;&quot;&gt;&lt;/span&gt;&lt;/p&gt;&lt;div style=&quot;text-align: justify; font-size: 13px;&quot;&gt;&lt;ul style=&quot;font-size: 13px;&quot;&gt;&lt;li style=&quot;font-size: 13px;&quot;&gt;Image vulnerability scanning&lt;/li&gt;&lt;li style=&quot;font-size: 13px;&quot;&gt;Sandbox Image Scanning&lt;/li&gt;&lt;/ul&gt;&lt;/div&gt;&lt;/span&gt;" style="whiteSpace=wrap;html=1;shape=mxgraph.basic.rectCallout;dx=36;dy=35;boundedLbl=1;sketch=1;jiggle=2;curveFitting=1;strokeColor=#d6b656;align=center;verticalAlign=middle;fontFamily=Gloria Hallelujah;fontSize=13;fontStyle=1;labelBackgroundColor=none;fillColor=#fff2cc;gradientColor=#ffd966;fontSource=https%3A%2F%2Ffonts.googleapis.com%2Fcss%3Ffamily%3DGloria%2BHallelujah;" parent="1" vertex="1">
          <mxGeometry x="890" y="-30" width="240" height="130" as="geometry" />
        </mxCell>
        <mxCell id="DwbqeY5MqW88njfZYnf4-52" value="&lt;span style=&quot;font-size: 13px;&quot; id=&quot;docs-internal-guid-8a07c1f8-7fff-144c-3e6b-a0d386fec6b9&quot;&gt;&lt;font data-font-src=&quot;https://fonts.googleapis.com/css?family=Gloria+Hallelujah&quot; style=&quot;font-size: 13px;&quot;&gt;&lt;p dir=&quot;ltr&quot; style=&quot;line-height: 1.2; margin-top: 0pt; margin-bottom: 0pt; font-size: 13px;&quot;&gt;&lt;span style=&quot;white-space-collapse: preserve; font-size: 13px;&quot;&gt;Integrate with CI Tools&lt;br style=&quot;font-size: 13px;&quot;&gt;&lt;/span&gt;&lt;/p&gt;&lt;ul style=&quot;font-size: 13px;&quot;&gt;&lt;li style=&quot;text-align: left; font-size: 13px;&quot;&gt;&lt;span style=&quot;white-space-collapse: preserve; font-size: 13px;&quot;&gt;IaC template scanning&lt;/span&gt;&lt;/li&gt;&lt;li style=&quot;text-align: left; font-size: 13px;&quot;&gt;&lt;span style=&quot;white-space-collapse: preserve; font-size: 13px;&quot;&gt;Vulnerabilities scanning&lt;/span&gt;&lt;/li&gt;&lt;li style=&quot;text-align: left; font-size: 13px;&quot;&gt;&lt;span style=&quot;white-space-collapse: preserve; font-size: 13px;&quot;&gt;Code Compliance&lt;br&gt;&lt;/span&gt;&lt;/li&gt;&lt;li style=&quot;text-align: left; font-size: 13px;&quot;&gt;&lt;span style=&quot;white-space-collapse: preserve; font-size: 13px;&quot;&gt;SCA, SAST* (Beta), SBOM, OSS License Scanning&lt;/span&gt;&lt;/li&gt;&lt;/ul&gt;&lt;/font&gt;&lt;/span&gt;&lt;p style=&quot;font-size: 13px;&quot;&gt;&lt;/p&gt;&lt;p style=&quot;font-size: 13px;&quot;&gt;&lt;/p&gt;" style="shape=callout;whiteSpace=wrap;html=1;perimeter=calloutPerimeter;sketch=1;jiggle=2;curveFitting=1;strokeColor=#d6b656;align=center;verticalAlign=middle;fontFamily=Gloria Hallelujah;fontSize=13;fontStyle=1;labelBackgroundColor=none;fillColor=#fff2cc;position2=0.19;base=55;direction=west;size=30;position=0.24;gradientColor=#ffd966;fontSource=https%3A%2F%2Ffonts.googleapis.com%2Fcss%3Ffamily%3DGloria%2BHallelujah;" parent="1" vertex="1">
          <mxGeometry x="500" y="550" width="220" height="170" as="geometry" />
        </mxCell>
        <mxCell id="DwbqeY5MqW88njfZYnf4-53" value="&lt;span style=&quot;font-size: 13px;&quot; id=&quot;docs-internal-guid-8a07c1f8-7fff-144c-3e6b-a0d386fec6b9&quot;&gt;&lt;font data-font-src=&quot;https://fonts.googleapis.com/css?family=Gloria+Hallelujah&quot; style=&quot;font-size: 13px;&quot;&gt;&lt;p dir=&quot;ltr&quot; style=&quot;line-height: 1.2; margin-top: 0pt; margin-bottom: 0pt; font-size: 13px;&quot;&gt;&lt;span style=&quot;white-space-collapse: preserve; font-size: 13px;&quot;&gt;Secret Manager&lt;/span&gt;&lt;/p&gt;&lt;ul style=&quot;font-size: 13px;&quot;&gt;&lt;li style=&quot;text-align: left; font-size: 13px;&quot;&gt;&lt;span style=&quot;white-space-collapse: preserve; font-size: 13px;&quot;&gt;Inject Secret to Container&lt;/span&gt;&lt;/li&gt;&lt;li style=&quot;text-align: left; font-size: 13px;&quot;&gt;&lt;span style=&quot;white-space-collapse: preserve; font-size: 13px;&quot;&gt;Policy based secret Distribution&lt;/span&gt;&lt;/li&gt;&lt;li style=&quot;text-align: left; font-size: 13px;&quot;&gt;&lt;span style=&quot;white-space-collapse: preserve; font-size: 13px;&quot;&gt;Secret Injection as Env/File&lt;/span&gt;&lt;/li&gt;&lt;/ul&gt;&lt;/font&gt;&lt;/span&gt;&lt;p style=&quot;font-size: 13px;&quot;&gt;&lt;/p&gt;&lt;p style=&quot;font-size: 13px;&quot;&gt;&lt;/p&gt;" style="shape=callout;whiteSpace=wrap;html=1;perimeter=calloutPerimeter;sketch=1;jiggle=2;curveFitting=1;strokeColor=#d6b656;align=center;verticalAlign=middle;fontFamily=Gloria Hallelujah;fontSize=13;fontStyle=1;labelBackgroundColor=none;fillColor=#fff2cc;position2=1;base=22;direction=west;size=20;position=0.86;gradientColor=#ffd966;fontSource=https%3A%2F%2Ffonts.googleapis.com%2Fcss%3Ffamily%3DGloria%2BHallelujah;" parent="1" vertex="1">
          <mxGeometry x="1000" y="710" width="250" height="120" as="geometry" />
        </mxCell>
        <mxCell id="DwbqeY5MqW88njfZYnf4-54" value="&lt;span id=&quot;docs-internal-guid-3b90c343-7fff-3ddd-a99e-53f0f4e623fa&quot; style=&quot;font-size: 13px;&quot;&gt;&lt;p style=&quot;line-height: 1.2; margin-top: 0pt; margin-bottom: 0pt; font-size: 13px;&quot; dir=&quot;ltr&quot;&gt;&lt;/p&gt;&lt;div style=&quot;text-align: center; font-size: 13px;&quot;&gt;&lt;span style=&quot;white-space-collapse: preserve; font-size: 13px;&quot;&gt;Integrate with IaC Tools&lt;/span&gt;&lt;/div&gt;&lt;span style=&quot;white-space-collapse: preserve; font-size: 13px;&quot;&gt;&lt;ul style=&quot;font-size: 13px;&quot;&gt;&lt;li style=&quot;text-align: center; font-size: 13px;&quot;&gt;&lt;span style=&quot;white-space-collapse: preserve; font-size: 13px;&quot;&gt;IaC template scanning&lt;/span&gt;&lt;/li&gt;&lt;li style=&quot;font-size: 13px;&quot;&gt;&lt;span style=&quot;white-space-collapse: preserve; font-size: 13px;&quot;&gt;Config Drift Detection&lt;br style=&quot;font-size: 13px;&quot;&gt;&lt;/span&gt;&lt;/li&gt;&lt;/ul&gt;&lt;/span&gt;&lt;p style=&quot;font-size: 13px;&quot;&gt;&lt;/p&gt;&lt;/span&gt;" style="whiteSpace=wrap;html=1;shape=mxgraph.basic.rectCallout;dx=36;dy=35;boundedLbl=1;sketch=1;jiggle=2;curveFitting=1;strokeColor=#d6b656;align=left;verticalAlign=middle;fontFamily=Gloria Hallelujah;fontSize=13;fontStyle=1;labelBackgroundColor=none;fillColor=#fff2cc;gradientColor=#ffd966;fontSource=https%3A%2F%2Ffonts.googleapis.com%2Fcss%3Ffamily%3DGloria%2BHallelujah;" parent="1" vertex="1">
          <mxGeometry x="980" y="160" width="220" height="130" as="geometry" />
        </mxCell>
        <mxCell id="DwbqeY5MqW88njfZYnf4-55" value="Runtime Defence&lt;div style=&quot;font-size: 13px;&quot;&gt;&lt;div style=&quot;font-size: 13px;&quot;&gt;&lt;ul style=&quot;font-size: 13px;&quot;&gt;&lt;li style=&quot;text-align: left; font-size: 13px;&quot;&gt;Container asset discovery&lt;/li&gt;&lt;li style=&quot;text-align: left; font-size: 13px;&quot;&gt;Vulnerabilities scanning&lt;/li&gt;&lt;li style=&quot;text-align: left; font-size: 13px;&quot;&gt;Compliance&lt;/li&gt;&lt;li style=&quot;text-align: left; font-size: 13px;&quot;&gt;Anti-malware&lt;/li&gt;&lt;li style=&quot;text-align: left; font-size: 13px;&quot;&gt;Process protection&lt;/li&gt;&lt;li style=&quot;text-align: left; font-size: 13px;&quot;&gt;Network protection&lt;/li&gt;&lt;li style=&quot;text-align: left; font-size: 13px;&quot;&gt;File system protection&lt;/li&gt;&lt;li style=&quot;text-align: left; font-size: 13px;&quot;&gt;WAAS &amp;amp; API Security&lt;/li&gt;&lt;li style=&quot;text-align: left; font-size: 13px;&quot;&gt;Serverless and on-demand container service supported&lt;/li&gt;&lt;li style=&quot;text-align: left; font-size: 13px;&quot;&gt;Virtual Patches&lt;/li&gt;&lt;/ul&gt;&lt;/div&gt;&lt;/div&gt;" style="whiteSpace=wrap;html=1;shape=mxgraph.basic.rectCallout;dx=36;dy=35;boundedLbl=1;sketch=1;jiggle=2;curveFitting=1;strokeColor=#d6b656;align=center;verticalAlign=middle;fontFamily=Gloria Hallelujah;fontSize=13;fontStyle=1;labelBackgroundColor=none;fillColor=#fff2cc;gradientColor=#ffd966;fontSource=https%3A%2F%2Ffonts.googleapis.com%2Fcss%3Ffamily%3DGloria%2BHallelujah;" parent="1" vertex="1">
          <mxGeometry x="1300" y="70" width="240" height="260" as="geometry" />
        </mxCell>
        <mxCell id="DwbqeY5MqW88njfZYnf4-57" value="Secure Software Development Lifecycle" style="text;html=1;align=center;verticalAlign=middle;whiteSpace=wrap;rounded=0;fontFamily=Gloria Hallelujah;fontSize=30;fontColor=default;fontStyle=5;labelBackgroundColor=none;fontSource=https%3A%2F%2Ffonts.googleapis.com%2Fcss%3Ffamily%3DGloria%2BHallelujah;" parent="1" vertex="1">
          <mxGeometry x="90" y="-40" width="380" height="30" as="geometry" />
        </mxCell>
        <mxCell id="DwbqeY5MqW88njfZYnf4-62" style="edgeStyle=orthogonalEdgeStyle;curved=1;rounded=0;orthogonalLoop=1;jettySize=auto;html=1;exitX=1;exitY=0.3333333333333333;exitDx=0;exitDy=0;exitPerimeter=0;strokeColor=#4D4D4D;strokeWidth=2;align=center;verticalAlign=middle;fontFamily=Gloria Hallelujah;fontSize=12;fontColor=default;fontStyle=1;labelBackgroundColor=default;endArrow=classic;flowAnimation=0;sketch=1;curveFitting=1;jiggle=2;fontSource=https%3A%2F%2Ffonts.googleapis.com%2Fcss%3Ffamily%3DGloria%2BHallelujah;" parent="1" source="DwbqeY5MqW88njfZYnf4-59" edge="1">
          <mxGeometry relative="1" as="geometry">
            <mxPoint x="220" y="450" as="targetPoint" />
          </mxGeometry>
        </mxCell>
        <mxCell id="DwbqeY5MqW88njfZYnf4-59" value="Developer" style="shape=umlActor;verticalLabelPosition=bottom;verticalAlign=top;html=1;outlineConnect=0;sketch=1;jiggle=2;curveFitting=1;strokeColor=default;align=center;fontFamily=Gloria Hallelujah;fontSize=14;fontColor=default;fontStyle=1;labelBackgroundColor=default;fillColor=default;fontSource=https%3A%2F%2Ffonts.googleapis.com%2Fcss%3Ffamily%3DGloria%2BHallelujah;" parent="1" vertex="1">
          <mxGeometry x="120" y="500" width="30" height="60" as="geometry" />
        </mxCell>
        <mxCell id="DwbqeY5MqW88njfZYnf4-65" style="edgeStyle=orthogonalEdgeStyle;curved=1;rounded=0;sketch=1;jiggle=2;curveFitting=1;orthogonalLoop=1;jettySize=auto;html=1;exitX=0.5;exitY=0.5;exitDx=0;exitDy=0;exitPerimeter=0;entryX=0;entryY=0.25;entryDx=0;entryDy=0;strokeColor=#4D4D4D;strokeWidth=2;align=center;verticalAlign=middle;fontFamily=Gloria Hallelujah;fontSize=12;fontColor=default;fontStyle=1;labelBackgroundColor=default;endArrow=classic;flowAnimation=0;fontSource=https%3A%2F%2Ffonts.googleapis.com%2Fcss%3Ffamily%3DGloria%2BHallelujah;" parent="1" source="DwbqeY5MqW88njfZYnf4-63" target="RDo2QLgvlVAFaTOFHtLj-4" edge="1">
          <mxGeometry relative="1" as="geometry" />
        </mxCell>
        <mxCell id="DwbqeY5MqW88njfZYnf4-63" value="DevOps" style="shape=umlActor;verticalLabelPosition=bottom;verticalAlign=top;html=1;outlineConnect=0;sketch=1;jiggle=2;curveFitting=1;strokeColor=default;align=center;fontFamily=Gloria Hallelujah;fontSize=14;fontColor=default;fontStyle=1;labelBackgroundColor=default;fillColor=default;fontSource=https%3A%2F%2Ffonts.googleapis.com%2Fcss%3Ffamily%3DGloria%2BHallelujah;" parent="1" vertex="1">
          <mxGeometry x="590" y="-60" width="30" height="60" as="geometry" />
        </mxCell>
        <mxCell id="DwbqeY5MqW88njfZYnf4-67" style="edgeStyle=orthogonalEdgeStyle;curved=1;rounded=0;sketch=1;jiggle=2;curveFitting=1;orthogonalLoop=1;jettySize=auto;html=1;strokeColor=#4D4D4D;strokeWidth=2;align=center;verticalAlign=middle;fontFamily=Gloria Hallelujah;fontSize=12;fontColor=default;fontStyle=1;labelBackgroundColor=default;endArrow=classic;flowAnimation=0;fontSource=https%3A%2F%2Ffonts.googleapis.com%2Fcss%3Ffamily%3DGloria%2BHallelujah;" parent="1" source="DwbqeY5MqW88njfZYnf4-66" edge="1">
          <mxGeometry relative="1" as="geometry">
            <mxPoint x="1360" y="540" as="targetPoint" />
          </mxGeometry>
        </mxCell>
        <mxCell id="DwbqeY5MqW88njfZYnf4-66" value="SecOps/SRE" style="shape=umlActor;verticalLabelPosition=bottom;verticalAlign=top;html=1;outlineConnect=0;sketch=1;jiggle=2;curveFitting=1;strokeColor=default;align=center;fontFamily=Gloria Hallelujah;fontSize=14;fontColor=default;fontStyle=1;labelBackgroundColor=default;fillColor=default;fontSource=https%3A%2F%2Ffonts.googleapis.com%2Fcss%3Ffamily%3DGloria%2BHallelujah;" parent="1" vertex="1">
          <mxGeometry x="1420" y="570" width="30" height="60" as="geometry" />
        </mxCell>
      </root>
    </mxGraphModel>
  </diagram>
  <diagram name="Chinese" id="E2kjGtz5Qexak7ZdH9Tr">
    <mxGraphModel dx="1464" dy="2037" grid="1" gridSize="10" guides="1" tooltips="1" connect="1" arrows="1" fold="1" page="1" pageScale="1" pageWidth="827" pageHeight="1169" math="0" shadow="0">
      <root>
        <mxCell id="QdPWR5zXxnlfIdD4vET5-0" />
        <mxCell id="QdPWR5zXxnlfIdD4vET5-1" parent="QdPWR5zXxnlfIdD4vET5-0" />
        <mxCell id="QdPWR5zXxnlfIdD4vET5-2" value="PR/&lt;div&gt;Commit&lt;/div&gt;" style="edgeStyle=orthogonalEdgeStyle;rounded=0;orthogonalLoop=1;jettySize=auto;html=1;fontFamily=Gloria Hallelujah;fontSize=12;fontColor=default;fontStyle=1;curved=1;strokeWidth=2;flowAnimation=1;strokeColor=#7F00FF;fontSource=https%3A%2F%2Ffonts.googleapis.com%2Fcss%3Ffamily%3DGloria%2BHallelujah;" parent="QdPWR5zXxnlfIdD4vET5-1" source="QdPWR5zXxnlfIdD4vET5-3" edge="1">
          <mxGeometry relative="1" as="geometry">
            <mxPoint x="360" y="430" as="targetPoint" />
          </mxGeometry>
        </mxCell>
        <mxCell id="QdPWR5zXxnlfIdD4vET5-3" value="IDE Integration" style="swimlane;html=1;sketch=1;curveFitting=1;jiggle=2;swimlaneLine=1;fontFamily=Gloria Hallelujah;fillColor=#f5f5f5;gradientColor=#b3b3b3;strokeColor=#666666;fontSource=https%3A%2F%2Ffonts.googleapis.com%2Fcss%3Ffamily%3DGloria%2BHallelujah;" parent="QdPWR5zXxnlfIdD4vET5-1" vertex="1">
          <mxGeometry x="80" y="320" width="200" height="130" as="geometry" />
        </mxCell>
        <mxCell id="QdPWR5zXxnlfIdD4vET5-4" value="" style="shape=image;imageAspect=0;aspect=fixed;verticalLabelPosition=bottom;verticalAlign=top;image=https://uxwing.com/wp-content/themes/uxwing/download/brands-and-social-media/visual-studio-code-icon.png;fontFamily=Gloria Hallelujah;fontSource=https%3A%2F%2Ffonts.googleapis.com%2Fcss%3Ffamily%3DGloria%2BHallelujah;" parent="QdPWR5zXxnlfIdD4vET5-3" vertex="1">
          <mxGeometry x="20" y="50" width="60.24" height="60" as="geometry" />
        </mxCell>
        <mxCell id="QdPWR5zXxnlfIdD4vET5-5" value="" style="shape=image;imageAspect=0;aspect=fixed;verticalLabelPosition=bottom;verticalAlign=top;image=https://upload.wikimedia.org/wikipedia/commons/thumb/9/9c/IntelliJ_IDEA_Icon.svg/2048px-IntelliJ_IDEA_Icon.svg.png;fontFamily=Gloria Hallelujah;fontSource=https%3A%2F%2Ffonts.googleapis.com%2Fcss%3Ffamily%3DGloria%2BHallelujah;" parent="QdPWR5zXxnlfIdD4vET5-3" vertex="1">
          <mxGeometry x="110" y="50" width="60" height="60" as="geometry" />
        </mxCell>
        <mxCell id="QdPWR5zXxnlfIdD4vET5-6" value="Trigger" style="edgeStyle=orthogonalEdgeStyle;curved=1;rounded=0;orthogonalLoop=1;jettySize=auto;html=1;exitX=1;exitY=0.5;exitDx=0;exitDy=0;strokeColor=#7F00FF;strokeWidth=2;align=center;verticalAlign=middle;fontFamily=Gloria Hallelujah;fontSize=12;fontColor=default;fontStyle=1;labelBackgroundColor=default;endArrow=classic;flowAnimation=1;entryX=0;entryY=0.5;entryDx=0;entryDy=0;fontSource=https%3A%2F%2Ffonts.googleapis.com%2Fcss%3Ffamily%3DGloria%2BHallelujah;" parent="QdPWR5zXxnlfIdD4vET5-1" source="QdPWR5zXxnlfIdD4vET5-7" target="QdPWR5zXxnlfIdD4vET5-14" edge="1">
          <mxGeometry relative="1" as="geometry">
            <mxPoint x="640" y="450" as="targetPoint" />
          </mxGeometry>
        </mxCell>
        <mxCell id="QdPWR5zXxnlfIdD4vET5-7" value="Git Repo" style="swimlane;html=1;sketch=1;curveFitting=1;jiggle=2;swimlaneLine=1;fontFamily=Gloria Hallelujah;fillColor=#f5f5f5;gradientColor=#b3b3b3;strokeColor=#666666;fontSource=https%3A%2F%2Ffonts.googleapis.com%2Fcss%3Ffamily%3DGloria%2BHallelujah;" parent="QdPWR5zXxnlfIdD4vET5-1" vertex="1">
          <mxGeometry x="360" y="320" width="200" height="200" as="geometry" />
        </mxCell>
        <mxCell id="QdPWR5zXxnlfIdD4vET5-8" value="" style="shape=image;imageAspect=0;aspect=fixed;verticalLabelPosition=bottom;verticalAlign=top;image=https://cdn-icons-png.flaticon.com/512/25/25231.png;fontFamily=Gloria Hallelujah;fontSource=https%3A%2F%2Ffonts.googleapis.com%2Fcss%3Ffamily%3DGloria%2BHallelujah;" parent="QdPWR5zXxnlfIdD4vET5-7" vertex="1">
          <mxGeometry x="23" y="40" width="62" height="62" as="geometry" />
        </mxCell>
        <mxCell id="QdPWR5zXxnlfIdD4vET5-9" value="" style="shape=image;imageAspect=0;aspect=fixed;verticalLabelPosition=bottom;verticalAlign=top;image=https://seeklogo.com/images/G/gitlab-logo-757620E430-seeklogo.com.png;fontFamily=Gloria Hallelujah;fontSource=https%3A%2F%2Ffonts.googleapis.com%2Fcss%3Ffamily%3DGloria%2BHallelujah;" parent="QdPWR5zXxnlfIdD4vET5-7" vertex="1">
          <mxGeometry x="113.79" y="42" width="64.98" height="60" as="geometry" />
        </mxCell>
        <mxCell id="QdPWR5zXxnlfIdD4vET5-10" value="" style="shape=image;imageAspect=0;aspect=fixed;verticalLabelPosition=bottom;verticalAlign=top;image=https://cdn4.iconfinder.com/data/icons/logos-and-brands/512/44_Bitbucket_logo_logos-512.png;fontFamily=Gloria Hallelujah;fontSource=https%3A%2F%2Ffonts.googleapis.com%2Fcss%3Ffamily%3DGloria%2BHallelujah;" parent="QdPWR5zXxnlfIdD4vET5-7" vertex="1">
          <mxGeometry x="18" y="120" width="72" height="72" as="geometry" />
        </mxCell>
        <mxCell id="QdPWR5zXxnlfIdD4vET5-11" value="" style="shape=image;imageAspect=0;aspect=fixed;verticalLabelPosition=bottom;verticalAlign=top;image=https://seeklogo.com/images/A/azure-repos-logo-013E078726-seeklogo.com.png;fontFamily=Gloria Hallelujah;fontSource=https%3A%2F%2Ffonts.googleapis.com%2Fcss%3Ffamily%3DGloria%2BHallelujah;" parent="QdPWR5zXxnlfIdD4vET5-7" vertex="1">
          <mxGeometry x="117.28" y="127" width="58" height="58" as="geometry" />
        </mxCell>
        <mxCell id="QdPWR5zXxnlfIdD4vET5-12" value="Image&lt;div&gt;Scan&lt;/div&gt;" style="edgeStyle=orthogonalEdgeStyle;curved=1;rounded=0;orthogonalLoop=1;jettySize=auto;html=1;exitX=0;exitY=0.25;exitDx=0;exitDy=0;entryX=0;entryY=0.75;entryDx=0;entryDy=0;strokeColor=#7F00FF;strokeWidth=2;align=center;verticalAlign=middle;fontFamily=Gloria Hallelujah;fontSize=12;fontColor=default;fontStyle=1;labelBackgroundColor=default;endArrow=classic;flowAnimation=1;fontSource=https%3A%2F%2Ffonts.googleapis.com%2Fcss%3Ffamily%3DGloria%2BHallelujah;" parent="QdPWR5zXxnlfIdD4vET5-1" source="QdPWR5zXxnlfIdD4vET5-14" target="QdPWR5zXxnlfIdD4vET5-20" edge="1">
          <mxGeometry relative="1" as="geometry" />
        </mxCell>
        <mxCell id="QdPWR5zXxnlfIdD4vET5-13" value="CD" style="edgeStyle=orthogonalEdgeStyle;curved=1;rounded=0;orthogonalLoop=1;jettySize=auto;html=1;strokeColor=#7F00FF;strokeWidth=2;align=center;verticalAlign=middle;fontFamily=Gloria Hallelujah;fontSize=12;fontColor=default;fontStyle=1;labelBackgroundColor=default;endArrow=classic;flowAnimation=1;fontSource=https%3A%2F%2Ffonts.googleapis.com%2Fcss%3Ffamily%3DGloria%2BHallelujah;" parent="QdPWR5zXxnlfIdD4vET5-1" source="QdPWR5zXxnlfIdD4vET5-14" edge="1">
          <mxGeometry relative="1" as="geometry">
            <mxPoint x="930" y="420" as="targetPoint" />
          </mxGeometry>
        </mxCell>
        <mxCell id="QdPWR5zXxnlfIdD4vET5-14" value="CI/CD Pipelines" style="swimlane;html=1;sketch=1;curveFitting=1;jiggle=2;swimlaneLine=1;fontFamily=Gloria Hallelujah;fillColor=#f5f5f5;gradientColor=#b3b3b3;strokeColor=#666666;fontSource=https%3A%2F%2Ffonts.googleapis.com%2Fcss%3Ffamily%3DGloria%2BHallelujah;" parent="QdPWR5zXxnlfIdD4vET5-1" vertex="1">
          <mxGeometry x="640" y="300" width="200" height="240" as="geometry" />
        </mxCell>
        <mxCell id="QdPWR5zXxnlfIdD4vET5-15" value="" style="image;sketch=0;aspect=fixed;html=1;points=[];align=center;fontSize=12;image=img/lib/mscae/Azure_Pipelines.svg;fontFamily=Gloria Hallelujah;fontSource=https%3A%2F%2Ffonts.googleapis.com%2Fcss%3Ffamily%3DGloria%2BHallelujah;" parent="QdPWR5zXxnlfIdD4vET5-14" vertex="1">
          <mxGeometry x="29.02" y="40" width="58" height="58" as="geometry" />
        </mxCell>
        <mxCell id="QdPWR5zXxnlfIdD4vET5-16" value="" style="editableCssRules=.*;html=1;shape=image;verticalLabelPosition=bottom;labelBackgroundColor=#ffffff;verticalAlign=top;aspect=fixed;imageAspect=0;image=data:image/svg+xml,PHN2ZyB4bWxucz0iaHR0cDovL3d3dy53My5vcmcvMjAwMC9zdmciIHhtbG5zOnY9Imh0dHBzOi8vdmVjdGEuaW8vbmFubyIgd2lkdGg9IjM2NS40NjQ5OTY3NzA0MjQ5MyIgaGVpZ2h0PSIzNzkuMjIyOTk0NDYzNTc3OTUiIHZpZXdCb3g9IjAgMCA5Ni42OTU5OTkxNDU1MDc4MSAxMDAuMzM1OTk4NTM1MTU2MjUiPiYjeGE7PHN0eWxlIHR5cGU9InRleHQvY3NzIj4mI3hhOwkuc3Qwe2ZpbGw6IzQyODVmNDt9JiN4YTsJLnN0MXtmaWxsOiNhZWNiZmE7fSYjeGE7PC9zdHlsZT4mI3hhOwk8cGF0aCBjbGFzcz0ic3QwIiBkPSJNMjkuNzk0IDEwMC4zMzZMNDYuOTIgNTAuMTY4aDQ5Ljc3NnpNMCA5OS42NzFsMTIuOTc2LTQ5LjUwMkgyOS4yMkwxNi44OTcgOTIuMDU0eiIvPiYjeGE7CTxwYXRoIGNsYXNzPSJzdDEiIGQ9Ik0yOS43OTQgMEw0Ni45MiA1MC4xNjhoNDkuNzc2ek0wIC42NjZsMTIuOTc2IDQ5LjUwMkgyOS4yMkwxNi44OTcgOC4yODN6Ii8+JiN4YTs8L3N2Zz4=;fontFamily=Gloria Hallelujah;fontSource=https%3A%2F%2Ffonts.googleapis.com%2Fcss%3Ffamily%3DGloria%2BHallelujah;" parent="QdPWR5zXxnlfIdD4vET5-14" vertex="1">
          <mxGeometry x="120.00000000000001" y="46" width="52" height="52" as="geometry" />
        </mxCell>
        <mxCell id="QdPWR5zXxnlfIdD4vET5-17" value="" style="sketch=0;points=[[0,0,0],[0.25,0,0],[0.5,0,0],[0.75,0,0],[1,0,0],[0,1,0],[0.25,1,0],[0.5,1,0],[0.75,1,0],[1,1,0],[0,0.25,0],[0,0.5,0],[0,0.75,0],[1,0.25,0],[1,0.5,0],[1,0.75,0]];outlineConnect=0;fontColor=#232F3E;fillColor=#C925D1;strokeColor=#ffffff;dashed=0;verticalLabelPosition=bottom;verticalAlign=top;align=center;html=1;fontSize=12;fontStyle=0;aspect=fixed;shape=mxgraph.aws4.resourceIcon;resIcon=mxgraph.aws4.codepipeline;fontFamily=Gloria Hallelujah;fontSource=https%3A%2F%2Ffonts.googleapis.com%2Fcss%3Ffamily%3DGloria%2BHallelujah;" parent="QdPWR5zXxnlfIdD4vET5-14" vertex="1">
          <mxGeometry x="29.02" y="136" width="58" height="58" as="geometry" />
        </mxCell>
        <mxCell id="QdPWR5zXxnlfIdD4vET5-18" value="" style="shape=image;imageAspect=0;aspect=fixed;verticalLabelPosition=bottom;verticalAlign=top;image=https://upload.wikimedia.org/wikipedia/commons/thumb/e/e9/Jenkins_logo.svg/1200px-Jenkins_logo.svg.png;fontFamily=Gloria Hallelujah;fontSource=https%3A%2F%2Ffonts.googleapis.com%2Fcss%3Ffamily%3DGloria%2BHallelujah;" parent="QdPWR5zXxnlfIdD4vET5-14" vertex="1">
          <mxGeometry x="113.38" y="120" width="65.25" height="90" as="geometry" />
        </mxCell>
        <mxCell id="QdPWR5zXxnlfIdD4vET5-19" value="Successful&lt;div&gt;Scan&lt;/div&gt;" style="edgeStyle=orthogonalEdgeStyle;curved=1;rounded=0;orthogonalLoop=1;jettySize=auto;html=1;exitX=1;exitY=0.75;exitDx=0;exitDy=0;entryX=1;entryY=0.25;entryDx=0;entryDy=0;strokeColor=#7F00FF;strokeWidth=2;align=center;verticalAlign=middle;fontFamily=Gloria Hallelujah;fontSize=12;fontColor=default;fontStyle=1;labelBackgroundColor=default;endArrow=classic;flowAnimation=1;fontSource=https%3A%2F%2Ffonts.googleapis.com%2Fcss%3Ffamily%3DGloria%2BHallelujah;" parent="QdPWR5zXxnlfIdD4vET5-1" source="QdPWR5zXxnlfIdD4vET5-20" target="QdPWR5zXxnlfIdD4vET5-14" edge="1">
          <mxGeometry relative="1" as="geometry" />
        </mxCell>
        <mxCell id="QdPWR5zXxnlfIdD4vET5-20" value="Registry" style="swimlane;html=1;sketch=1;curveFitting=1;jiggle=2;swimlaneLine=1;fontFamily=Gloria Hallelujah;fillColor=#e6d0de;strokeColor=#996185;fontSource=https%3A%2F%2Ffonts.googleapis.com%2Fcss%3Ffamily%3DGloria%2BHallelujah;gradientColor=#d5739d;" parent="QdPWR5zXxnlfIdD4vET5-1" vertex="1">
          <mxGeometry x="680" y="-70" width="200" height="280" as="geometry" />
        </mxCell>
        <mxCell id="QdPWR5zXxnlfIdD4vET5-21" value="" style="shape=image;imageAspect=0;aspect=fixed;verticalLabelPosition=bottom;verticalAlign=top;image=https://static-00.iconduck.com/assets.00/harbor-icon-1018x1024-15bgc40q.png;fontFamily=Gloria Hallelujah;fontSource=https%3A%2F%2Ffonts.googleapis.com%2Fcss%3Ffamily%3DGloria%2BHallelujah;" parent="QdPWR5zXxnlfIdD4vET5-20" vertex="1">
          <mxGeometry x="24.97" y="50" width="59.65" height="60" as="geometry" />
        </mxCell>
        <mxCell id="QdPWR5zXxnlfIdD4vET5-22" value="" style="shape=image;imageAspect=0;aspect=fixed;verticalLabelPosition=bottom;verticalAlign=top;image=https://seeklogo.com/images/Q/quay-logo-068520E315-seeklogo.com.png;fontFamily=Gloria Hallelujah;fontSource=https%3A%2F%2Ffonts.googleapis.com%2Fcss%3Ffamily%3DGloria%2BHallelujah;" parent="QdPWR5zXxnlfIdD4vET5-20" vertex="1">
          <mxGeometry x="111" y="50" width="65.22" height="60" as="geometry" />
        </mxCell>
        <mxCell id="QdPWR5zXxnlfIdD4vET5-23" value="" style="image;aspect=fixed;html=1;points=[];align=center;fontSize=12;image=img/lib/azure2/containers/Container_Registries.svg;fontFamily=Gloria Hallelujah;fontSource=https%3A%2F%2Ffonts.googleapis.com%2Fcss%3Ffamily%3DGloria%2BHallelujah;" parent="QdPWR5zXxnlfIdD4vET5-20" vertex="1">
          <mxGeometry x="26.37" y="140" width="56.85" height="51" as="geometry" />
        </mxCell>
        <mxCell id="QdPWR5zXxnlfIdD4vET5-24" value="" style="sketch=0;points=[[0,0,0],[0.25,0,0],[0.5,0,0],[0.75,0,0],[1,0,0],[0,1,0],[0.25,1,0],[0.5,1,0],[0.75,1,0],[1,1,0],[0,0.25,0],[0,0.5,0],[0,0.75,0],[1,0.25,0],[1,0.5,0],[1,0.75,0]];outlineConnect=0;fontColor=#232F3E;fillColor=#ED7100;strokeColor=#ffffff;dashed=0;verticalLabelPosition=bottom;verticalAlign=top;align=center;html=1;fontSize=12;fontStyle=0;aspect=fixed;shape=mxgraph.aws4.resourceIcon;resIcon=mxgraph.aws4.ecr;fontFamily=Gloria Hallelujah;fontSource=https%3A%2F%2Ffonts.googleapis.com%2Fcss%3Ffamily%3DGloria%2BHallelujah;" parent="QdPWR5zXxnlfIdD4vET5-20" vertex="1">
          <mxGeometry x="119.05" y="140" width="51" height="51" as="geometry" />
        </mxCell>
        <mxCell id="QdPWR5zXxnlfIdD4vET5-25" value="" style="editableCssRules=.*;html=1;shape=image;verticalLabelPosition=bottom;labelBackgroundColor=#ffffff;verticalAlign=top;aspect=fixed;imageAspect=0;image=data:image/svg+xml,PHN2ZyB4bWxucz0iaHR0cDovL3d3dy53My5vcmcvMjAwMC9zdmciIHhtbG5zOnY9Imh0dHBzOi8vdmVjdGEuaW8vbmFubyIgd2lkdGg9IjIxLjk5OTAwMDU0OTMxNjQwNiIgaGVpZ2h0PSIyMC4zOTM5OTkwOTk3MzE0NDUiIHZpZXdCb3g9IjAgMCAyMS45OTkwMDA1NDkzMTY0MDYgMjAuMzkzOTk5MDk5NzMxNDQ1Ij4mI3hhOwk8c3R5bGUgdHlwZT0idGV4dC9jc3MiPiYjeGE7CS5zdDB7ZmlsbDojNDI4NWY0O2ZpbGwtcnVsZTpldmVub2RkfSYjeGE7CTwvc3R5bGU+JiN4YTsJPHBhdGggY2xhc3M9InN0MCIgZD0iTTUgMHYyLjQ1OEwxLjk5OSA0LjE5N3YxMi4wMUw1IDE3LjkzOHYyLjQ1NmwtNS0yLjg4N1YyLjg4NnptMTIgMGw0Ljk5OSAyLjg4NnYxNC42MjFMMTcgMjAuMzk0di0yLjQ1NmwzLTEuNzMxVjQuMTk3bC0zLTEuNzM5em0tNi4wMTYgNi42NzNsMi45NDctMS42NDYtMi45NDctMS42NDYtMi45NDcgMS42NDZ6bTMuMjY4LTEuMDk2bC0yLjg3MSAxLjY3OHYzLjI4N2wyLjg3MS0xLjY3NnpNNy43NzMgOC44NjZsMi44NzEgMS42NzRWNy4yNTZMNy43NzMgNS41Nzd6bS0uMjEyIDMuODc4bDIuODItMS42NDYtMi44Mi0xLjY0Ni0yLjgyIDEuNjQ2em0zLjEzMi0xLjA5OGwtMi44NzEgMS42Nzh2My4yODdsMi44NzEtMS42NzZ6bS02LjI2NCAzLjI4OUw3LjMgMTYuNjA5di0zLjI4NWwtMi44NzEtMS42Nzl6bTEwLjAyOS0yLjE5MWwyLjgyLTEuNjQ2LTIuODItMS42NDYtMi44MiAxLjY0NnptMy4xMzItMS4wOThsLTIuODcxIDEuNjc4djMuMjg3bDIuODcxLTEuNjc2em0tNi4yNjQgMy4yODlsMi44NzEgMS42NzR2LTMuMjg1bC0yLjg3MS0xLjY3OXoiLz4mI3hhOzwvc3ZnPg==;fontFamily=Gloria Hallelujah;fontSource=https%3A%2F%2Ffonts.googleapis.com%2Fcss%3Ffamily%3DGloria%2BHallelujah;" parent="QdPWR5zXxnlfIdD4vET5-20" vertex="1">
          <mxGeometry x="22.58000000000004" y="210" width="64.44" height="58" as="geometry" />
        </mxCell>
        <mxCell id="QdPWR5zXxnlfIdD4vET5-26" style="edgeStyle=orthogonalEdgeStyle;curved=1;rounded=0;orthogonalLoop=1;jettySize=auto;html=1;entryX=0;entryY=0.5;entryDx=0;entryDy=0;strokeColor=#7F00FF;strokeWidth=2;align=center;verticalAlign=middle;fontFamily=Gloria Hallelujah;fontSize=12;fontColor=default;fontStyle=1;labelBackgroundColor=default;endArrow=classic;flowAnimation=1;fontSource=https%3A%2F%2Ffonts.googleapis.com%2Fcss%3Ffamily%3DGloria%2BHallelujah;" parent="QdPWR5zXxnlfIdD4vET5-1" source="QdPWR5zXxnlfIdD4vET5-28" target="QdPWR5zXxnlfIdD4vET5-34" edge="1">
          <mxGeometry relative="1" as="geometry" />
        </mxCell>
        <mxCell id="QdPWR5zXxnlfIdD4vET5-27" value="Deploy" style="edgeLabel;html=1;align=center;verticalAlign=middle;resizable=0;points=[];sketch=1;jiggle=2;curveFitting=1;strokeColor=default;fontFamily=Gloria Hallelujah;fontSize=12;fontColor=default;fontStyle=1;labelBackgroundColor=default;fillColor=default;fontSource=https%3A%2F%2Ffonts.googleapis.com%2Fcss%3Ffamily%3DGloria%2BHallelujah;" parent="QdPWR5zXxnlfIdD4vET5-26" vertex="1" connectable="0">
          <mxGeometry x="-0.1714" y="-3" relative="1" as="geometry">
            <mxPoint as="offset" />
          </mxGeometry>
        </mxCell>
        <mxCell id="QdPWR5zXxnlfIdD4vET5-28" value="IaC Security" style="swimlane;html=1;sketch=1;curveFitting=1;jiggle=2;swimlaneLine=1;fontFamily=Gloria Hallelujah;fillColor=#f5f5f5;gradientColor=#b3b3b3;strokeColor=#666666;fontSource=https%3A%2F%2Ffonts.googleapis.com%2Fcss%3Ffamily%3DGloria%2BHallelujah;" parent="QdPWR5zXxnlfIdD4vET5-1" vertex="1">
          <mxGeometry x="930" y="330" width="200" height="200" as="geometry" />
        </mxCell>
        <mxCell id="QdPWR5zXxnlfIdD4vET5-29" value="" style="shape=image;imageAspect=0;aspect=fixed;verticalLabelPosition=bottom;verticalAlign=top;image=https://static-00.iconduck.com/assets.00/terraform-icon-1803x2048-hodrzd3t.png;fontFamily=Gloria Hallelujah;fontSource=https%3A%2F%2Ffonts.googleapis.com%2Fcss%3Ffamily%3DGloria%2BHallelujah;" parent="QdPWR5zXxnlfIdD4vET5-28" vertex="1">
          <mxGeometry x="20" y="36" width="61.65" height="70" as="geometry" />
        </mxCell>
        <mxCell id="QdPWR5zXxnlfIdD4vET5-30" value="" style="sketch=0;points=[[0,0,0],[0.25,0,0],[0.5,0,0],[0.75,0,0],[1,0,0],[0,1,0],[0.25,1,0],[0.5,1,0],[0.75,1,0],[1,1,0],[0,0.25,0],[0,0.5,0],[0,0.75,0],[1,0.25,0],[1,0.5,0],[1,0.75,0]];points=[[0,0,0],[0.25,0,0],[0.5,0,0],[0.75,0,0],[1,0,0],[0,1,0],[0.25,1,0],[0.5,1,0],[0.75,1,0],[1,1,0],[0,0.25,0],[0,0.5,0],[0,0.75,0],[1,0.25,0],[1,0.5,0],[1,0.75,0]];outlineConnect=0;fontColor=#232F3E;fillColor=#E7157B;strokeColor=#ffffff;dashed=0;verticalLabelPosition=bottom;verticalAlign=top;align=center;html=1;fontSize=12;fontStyle=0;aspect=fixed;shape=mxgraph.aws4.resourceIcon;resIcon=mxgraph.aws4.cloudformation;fontFamily=Gloria Hallelujah;fontSource=https%3A%2F%2Ffonts.googleapis.com%2Fcss%3Ffamily%3DGloria%2BHallelujah;" parent="QdPWR5zXxnlfIdD4vET5-28" vertex="1">
          <mxGeometry x="110" y="42" width="58" height="58" as="geometry" />
        </mxCell>
        <mxCell id="QdPWR5zXxnlfIdD4vET5-31" value="" style="shape=image;imageAspect=0;aspect=fixed;verticalLabelPosition=bottom;verticalAlign=top;image=https://assets-global.website-files.com/627ba91db7d555cdff7d210c/62aa2396f5c37ea1a74e3359_armlogo.png;fontFamily=Gloria Hallelujah;fontSource=https%3A%2F%2Ffonts.googleapis.com%2Fcss%3Ffamily%3DGloria%2BHallelujah;" parent="QdPWR5zXxnlfIdD4vET5-28" vertex="1">
          <mxGeometry x="20" y="130" width="62.85" height="51" as="geometry" />
        </mxCell>
        <mxCell id="QdPWR5zXxnlfIdD4vET5-32" value="" style="shape=image;imageAspect=0;aspect=fixed;verticalLabelPosition=bottom;verticalAlign=top;image=https://miro.medium.com/v2/resize:fit:512/1*jd48uah0ThBNfkjJCbly6w.png;fontFamily=Gloria Hallelujah;fontSource=https%3A%2F%2Ffonts.googleapis.com%2Fcss%3Ffamily%3DGloria%2BHallelujah;" parent="QdPWR5zXxnlfIdD4vET5-28" vertex="1">
          <mxGeometry x="108" y="124.5" width="62" height="62" as="geometry" />
        </mxCell>
        <mxCell id="QdPWR5zXxnlfIdD4vET5-33" value="Secret Extraction" style="edgeStyle=orthogonalEdgeStyle;curved=1;rounded=0;orthogonalLoop=1;jettySize=auto;html=1;exitX=0.25;exitY=1;exitDx=0;exitDy=0;entryX=1;entryY=0.25;entryDx=0;entryDy=0;strokeColor=#7F00FF;strokeWidth=2;align=center;verticalAlign=middle;fontFamily=Gloria Hallelujah;fontSize=12;fontColor=default;fontStyle=1;labelBackgroundColor=default;endArrow=classic;flowAnimation=1;fontSource=https%3A%2F%2Ffonts.googleapis.com%2Fcss%3Ffamily%3DGloria%2BHallelujah;" parent="QdPWR5zXxnlfIdD4vET5-1" source="QdPWR5zXxnlfIdD4vET5-34" target="QdPWR5zXxnlfIdD4vET5-43" edge="1">
          <mxGeometry x="0.0486" y="-30" relative="1" as="geometry">
            <mxPoint as="offset" />
          </mxGeometry>
        </mxCell>
        <mxCell id="QdPWR5zXxnlfIdD4vET5-34" value="Runtime Protection" style="swimlane;html=1;sketch=1;curveFitting=1;jiggle=2;swimlaneLine=1;fontFamily=Gloria Hallelujah;fillColor=#e6d0de;strokeColor=#996185;fontSource=https%3A%2F%2Ffonts.googleapis.com%2Fcss%3Ffamily%3DGloria%2BHallelujah;gradientColor=#d5739d;" parent="QdPWR5zXxnlfIdD4vET5-1" vertex="1">
          <mxGeometry x="1200" y="320" width="370" height="220" as="geometry" />
        </mxCell>
        <mxCell id="QdPWR5zXxnlfIdD4vET5-35" value="" style="shape=image;imageAspect=0;aspect=fixed;verticalLabelPosition=bottom;verticalAlign=top;image=https://upload.wikimedia.org/wikipedia/commons/thumb/3/39/Kubernetes_logo_without_workmark.svg/1200px-Kubernetes_logo_without_workmark.svg.png;fontFamily=Gloria Hallelujah;fontSource=https%3A%2F%2Ffonts.googleapis.com%2Fcss%3Ffamily%3DGloria%2BHallelujah;" parent="QdPWR5zXxnlfIdD4vET5-34" vertex="1">
          <mxGeometry x="20" y="35" width="66.93" height="65" as="geometry" />
        </mxCell>
        <mxCell id="QdPWR5zXxnlfIdD4vET5-36" value="" style="shape=image;imageAspect=0;aspect=fixed;verticalLabelPosition=bottom;verticalAlign=top;image=https://upload.wikimedia.org/wikipedia/commons/thumb/3/3a/OpenShift-LogoType.svg/1917px-OpenShift-LogoType.svg.png;fontFamily=Gloria Hallelujah;fontSource=https%3A%2F%2Ffonts.googleapis.com%2Fcss%3Ffamily%3DGloria%2BHallelujah;" parent="QdPWR5zXxnlfIdD4vET5-34" vertex="1">
          <mxGeometry x="16.00999999999999" y="120" width="74.92" height="80" as="geometry" />
        </mxCell>
        <mxCell id="QdPWR5zXxnlfIdD4vET5-37" value="" style="sketch=0;points=[[0,0,0],[0.25,0,0],[0.5,0,0],[0.75,0,0],[1,0,0],[0,1,0],[0.25,1,0],[0.5,1,0],[0.75,1,0],[1,1,0],[0,0.25,0],[0,0.5,0],[0,0.75,0],[1,0.25,0],[1,0.5,0],[1,0.75,0]];outlineConnect=0;fontColor=#232F3E;fillColor=#ED7100;strokeColor=#ffffff;dashed=0;verticalLabelPosition=bottom;verticalAlign=top;align=center;html=1;fontSize=12;fontStyle=0;aspect=fixed;shape=mxgraph.aws4.resourceIcon;resIcon=mxgraph.aws4.ecs;fontFamily=Gloria Hallelujah;fontSource=https%3A%2F%2Ffonts.googleapis.com%2Fcss%3Ffamily%3DGloria%2BHallelujah;" parent="QdPWR5zXxnlfIdD4vET5-34" vertex="1">
          <mxGeometry x="120" y="38.5" width="58" height="58" as="geometry" />
        </mxCell>
        <mxCell id="QdPWR5zXxnlfIdD4vET5-38" value="" style="sketch=0;points=[[0,0,0],[0.25,0,0],[0.5,0,0],[0.75,0,0],[1,0,0],[0,1,0],[0.25,1,0],[0.5,1,0],[0.75,1,0],[1,1,0],[0,0.25,0],[0,0.5,0],[0,0.75,0],[1,0.25,0],[1,0.5,0],[1,0.75,0]];outlineConnect=0;fontColor=#232F3E;fillColor=#ED7100;strokeColor=#ffffff;dashed=0;verticalLabelPosition=bottom;verticalAlign=top;align=center;html=1;fontSize=12;fontStyle=0;aspect=fixed;shape=mxgraph.aws4.resourceIcon;resIcon=mxgraph.aws4.lambda;fontFamily=Gloria Hallelujah;fontSource=https%3A%2F%2Ffonts.googleapis.com%2Fcss%3Ffamily%3DGloria%2BHallelujah;" parent="QdPWR5zXxnlfIdD4vET5-34" vertex="1">
          <mxGeometry x="120" y="137" width="53" height="53" as="geometry" />
        </mxCell>
        <mxCell id="QdPWR5zXxnlfIdD4vET5-39" value="" style="sketch=0;points=[[0,0,0],[0.25,0,0],[0.5,0,0],[0.75,0,0],[1,0,0],[0,1,0],[0.25,1,0],[0.5,1,0],[0.75,1,0],[1,1,0],[0,0.25,0],[0,0.5,0],[0,0.75,0],[1,0.25,0],[1,0.5,0],[1,0.75,0]];outlineConnect=0;fontColor=#232F3E;fillColor=#ED7100;strokeColor=#ffffff;dashed=0;verticalLabelPosition=bottom;verticalAlign=top;align=center;html=1;fontSize=12;fontStyle=0;aspect=fixed;shape=mxgraph.aws4.resourceIcon;resIcon=mxgraph.aws4.eks;fontFamily=Gloria Hallelujah;fontSource=https%3A%2F%2Ffonts.googleapis.com%2Fcss%3Ffamily%3DGloria%2BHallelujah;" parent="QdPWR5zXxnlfIdD4vET5-34" vertex="1">
          <mxGeometry x="200" y="38.5" width="61.5" height="61.5" as="geometry" />
        </mxCell>
        <mxCell id="QdPWR5zXxnlfIdD4vET5-40" value="" style="sketch=0;points=[[0,0,0],[0.25,0,0],[0.5,0,0],[0.75,0,0],[1,0,0],[0,1,0],[0.25,1,0],[0.5,1,0],[0.75,1,0],[1,1,0],[0,0.25,0],[0,0.5,0],[0,0.75,0],[1,0.25,0],[1,0.5,0],[1,0.75,0]];outlineConnect=0;fontColor=#232F3E;fillColor=#ED7100;strokeColor=#ffffff;dashed=0;verticalLabelPosition=bottom;verticalAlign=top;align=center;html=1;fontSize=12;fontStyle=0;aspect=fixed;shape=mxgraph.aws4.resourceIcon;resIcon=mxgraph.aws4.fargate;fontFamily=Gloria Hallelujah;fontSource=https%3A%2F%2Ffonts.googleapis.com%2Fcss%3Ffamily%3DGloria%2BHallelujah;" parent="QdPWR5zXxnlfIdD4vET5-34" vertex="1">
          <mxGeometry x="190" y="132" width="63" height="63" as="geometry" />
        </mxCell>
        <mxCell id="QdPWR5zXxnlfIdD4vET5-41" value="" style="image;aspect=fixed;html=1;points=[];align=center;fontSize=12;image=img/lib/azure2/compute/Kubernetes_Services.svg;fontFamily=Gloria Hallelujah;fontSource=https%3A%2F%2Ffonts.googleapis.com%2Fcss%3Ffamily%3DGloria%2BHallelujah;" parent="QdPWR5zXxnlfIdD4vET5-34" vertex="1">
          <mxGeometry x="280" y="132" width="68" height="60" as="geometry" />
        </mxCell>
        <mxCell id="QdPWR5zXxnlfIdD4vET5-42" value="" style="editableCssRules=.*;html=1;shape=image;verticalLabelPosition=bottom;labelBackgroundColor=#ffffff;verticalAlign=top;aspect=fixed;imageAspect=0;image=data:image/svg+xml,PHN2ZyB4bWxucz0iaHR0cDovL3d3dy53My5vcmcvMjAwMC9zdmciIHhtbG5zOnY9Imh0dHBzOi8vdmVjdGEuaW8vbmFubyIgd2lkdGg9IjMyOS45MjU5OTcyMzE3OTM4IiBoZWlnaHQ9IjM3OC4yODQ5OTAzMTEyNzg4IiB2aWV3Qm94PSIwIDAgODcuMjkyOTk5MjY3NTc4MTIgMTAwLjA4Nzk5NzQzNjUyMzQ0Ij4mI3hhOzxzdHlsZSB0eXBlPSJ0ZXh0L2NzcyI+JiN4YTsJLnN0MHtmaWxsOiNhZWNiZmE7fSYjeGE7CS5zdDF7ZmlsbDojNjY5ZGY2O30mI3hhOwkuc3Qye2ZpbGw6IzQyODVmNDt9JiN4YTs8L3N0eWxlPiYjeGE7CTxwYXRoIGNsYXNzPSJzdDAiIGQ9Ik00My43NTEgMEwwIDI1LjQ2NXYyLjU4OCA0Ni45Mmw0My43NTIgMjUuMTE1IDQzLjU0MS0yNS4xMjFWMjUuNDczem0yLjQzOCAxMS44NTNsMzIuMTAzIDE4Ljc4MlY2OS43N0w0My43MzkgODkuNzA1IDkgNjkuNzYyVjMwLjY0MWwzMi4xOS0xOC43MzZ2MTQuMTU0TDI0LjUwMyAzNi4xNTNsMTkuMTcyIDExLjUwMiAxOC44ODYtMTEuNTU0LTE2LjM3Mi0xMC4wMjR6Ii8+JiN4YTsJPHBhdGggY2xhc3M9InN0MSIgZD0iTTIyLjAyNSA0MC40OTZsLjE2NiAxOS4xNDMtMTMuMjQ3IDcuMzN2Mi43NDJsMi42MzcgMS41MTQgMTIuNjQ4LTYuOTk5TDQxLjE5IDc0LjgyOFY1MS45OTN6Ii8+JiN4YTsJPHBhdGggY2xhc3M9InN0MiIgZD0iTTY1LjM0NCA0MC4yNkw0Ni4xODkgNTEuOTc5djIyLjg0N0w2My4wODggNjQuMjVsMTIuNTM5IDYuOTc0IDIuNjA5LTEuNTA1di0yLjc2NWwtMTIuNzg0LTcuMTEyeiIvPiYjeGE7PC9zdmc+;fontFamily=Gloria Hallelujah;fontSource=https%3A%2F%2Ffonts.googleapis.com%2Fcss%3Ffamily%3DGloria%2BHallelujah;" parent="QdPWR5zXxnlfIdD4vET5-34" vertex="1">
          <mxGeometry x="283.5" y="38.5" width="61" height="67.78" as="geometry" />
        </mxCell>
        <mxCell id="QdPWR5zXxnlfIdD4vET5-43" value="Secret Management" style="swimlane;html=1;sketch=1;curveFitting=1;jiggle=2;swimlaneLine=1;fontFamily=Gloria Hallelujah;fillColor=#e6d0de;strokeColor=#996185;fontSource=https%3A%2F%2Ffonts.googleapis.com%2Fcss%3Ffamily%3DGloria%2BHallelujah;gradientColor=#d5739d;" parent="QdPWR5zXxnlfIdD4vET5-1" vertex="1">
          <mxGeometry x="780" y="640" width="200" height="200" as="geometry" />
        </mxCell>
        <mxCell id="QdPWR5zXxnlfIdD4vET5-44" value="" style="image;aspect=fixed;html=1;points=[];align=center;fontSize=12;image=img/lib/azure2/security/Key_Vaults.svg;sketch=1;jiggle=2;curveFitting=1;strokeColor=default;verticalAlign=middle;fontFamily=Gloria Hallelujah;fontColor=default;fontStyle=1;labelBackgroundColor=default;fillColor=default;fontSource=https%3A%2F%2Ffonts.googleapis.com%2Fcss%3Ffamily%3DGloria%2BHallelujah;" parent="QdPWR5zXxnlfIdD4vET5-43" vertex="1">
          <mxGeometry x="32" y="40" width="60" height="60" as="geometry" />
        </mxCell>
        <mxCell id="QdPWR5zXxnlfIdD4vET5-45" value="" style="shape=image;imageAspect=0;aspect=fixed;verticalLabelPosition=bottom;verticalAlign=top;sketch=1;jiggle=2;curveFitting=1;strokeColor=default;align=center;fontFamily=Gloria Hallelujah;fontSize=12;fontColor=default;fontStyle=1;labelBackgroundColor=default;fillColor=default;image=https://www.svgrepo.com/show/448679/vault.svg;fontSource=https%3A%2F%2Ffonts.googleapis.com%2Fcss%3Ffamily%3DGloria%2BHallelujah;" parent="QdPWR5zXxnlfIdD4vET5-43" vertex="1">
          <mxGeometry x="120" y="40" width="60" height="60" as="geometry" />
        </mxCell>
        <mxCell id="QdPWR5zXxnlfIdD4vET5-46" value="" style="sketch=0;points=[[0,0,0],[0.25,0,0],[0.5,0,0],[0.75,0,0],[1,0,0],[0,1,0],[0.25,1,0],[0.5,1,0],[0.75,1,0],[1,1,0],[0,0.25,0],[0,0.5,0],[0,0.75,0],[1,0.25,0],[1,0.5,0],[1,0.75,0]];outlineConnect=0;fontColor=#232F3E;fillColor=#DD344C;strokeColor=#ffffff;dashed=0;verticalLabelPosition=bottom;verticalAlign=top;align=center;html=1;fontSize=12;fontStyle=0;aspect=fixed;shape=mxgraph.aws4.resourceIcon;resIcon=mxgraph.aws4.secrets_manager;jiggle=2;curveFitting=1;fontFamily=Gloria Hallelujah;labelBackgroundColor=default;fontSource=https%3A%2F%2Ffonts.googleapis.com%2Fcss%3Ffamily%3DGloria%2BHallelujah;" parent="QdPWR5zXxnlfIdD4vET5-43" vertex="1">
          <mxGeometry x="33" y="120" width="58" height="58" as="geometry" />
        </mxCell>
        <mxCell id="QdPWR5zXxnlfIdD4vET5-47" value="" style="shape=image;imageAspect=0;aspect=fixed;verticalLabelPosition=bottom;verticalAlign=top;sketch=1;jiggle=2;curveFitting=1;strokeColor=default;align=center;fontFamily=Gloria Hallelujah;fontSize=12;fontColor=default;fontStyle=1;labelBackgroundColor=default;fillColor=default;image=https://cdn.icon-icons.com/icons2/2699/PNG/512/cyberark_logo_icon_168315.png;fontSource=https%3A%2F%2Ffonts.googleapis.com%2Fcss%3Ffamily%3DGloria%2BHallelujah;" parent="QdPWR5zXxnlfIdD4vET5-43" vertex="1">
          <mxGeometry x="114" y="113" width="72" height="72" as="geometry" />
        </mxCell>
        <mxCell id="QdPWR5zXxnlfIdD4vET5-48" value="Secret Creation" style="edgeStyle=orthogonalEdgeStyle;curved=1;rounded=0;orthogonalLoop=1;jettySize=auto;html=1;exitX=0.5;exitY=1;exitDx=0;exitDy=0;entryX=0.325;entryY=0.005;entryDx=0;entryDy=0;entryPerimeter=0;strokeColor=#7F00FF;strokeWidth=2;align=center;verticalAlign=middle;fontFamily=Gloria Hallelujah;fontSize=12;fontColor=default;fontStyle=1;labelBackgroundColor=default;endArrow=classic;flowAnimation=1;fontSource=https%3A%2F%2Ffonts.googleapis.com%2Fcss%3Ffamily%3DGloria%2BHallelujah;" parent="QdPWR5zXxnlfIdD4vET5-1" source="QdPWR5zXxnlfIdD4vET5-14" target="QdPWR5zXxnlfIdD4vET5-43" edge="1">
          <mxGeometry relative="1" as="geometry" />
        </mxCell>
        <mxCell id="QdPWR5zXxnlfIdD4vET5-49" value="" style="shape=image;imageAspect=0;aspect=fixed;verticalLabelPosition=bottom;verticalAlign=top;sketch=1;jiggle=2;curveFitting=1;strokeColor=default;align=center;fontFamily=Gloria Hallelujah;fontSize=12;fontColor=default;fontStyle=1;labelBackgroundColor=default;fillColor=default;image=https://plugins.jetbrains.com/files/21907/522769/icon/pluginIcon.png;fontSource=https%3A%2F%2Ffonts.googleapis.com%2Fcss%3Ffamily%3DGloria%2BHallelujah;" parent="QdPWR5zXxnlfIdD4vET5-1" vertex="1">
          <mxGeometry x="70" y="260" width="50" height="50" as="geometry" />
        </mxCell>
        <mxCell id="QdPWR5zXxnlfIdD4vET5-50" value="" style="shape=image;imageAspect=0;aspect=fixed;verticalLabelPosition=bottom;verticalAlign=top;sketch=1;jiggle=2;curveFitting=1;strokeColor=default;align=center;fontFamily=Gloria Hallelujah;fontSize=12;fontColor=default;fontStyle=1;labelBackgroundColor=default;fillColor=default;image=https://plugins.jetbrains.com/files/21907/522769/icon/pluginIcon.png;fontSource=https%3A%2F%2Ffonts.googleapis.com%2Fcss%3Ffamily%3DGloria%2BHallelujah;" parent="QdPWR5zXxnlfIdD4vET5-1" vertex="1">
          <mxGeometry x="350" y="260" width="50" height="50" as="geometry" />
        </mxCell>
        <mxCell id="QdPWR5zXxnlfIdD4vET5-51" value="" style="shape=image;imageAspect=0;aspect=fixed;verticalLabelPosition=bottom;verticalAlign=top;sketch=1;jiggle=2;curveFitting=1;strokeColor=default;align=center;fontFamily=Gloria Hallelujah;fontSize=12;fontColor=default;fontStyle=1;labelBackgroundColor=default;fillColor=default;image=https://plugins.jetbrains.com/files/21907/522769/icon/pluginIcon.png;fontSource=https%3A%2F%2Ffonts.googleapis.com%2Fcss%3Ffamily%3DGloria%2BHallelujah;" parent="QdPWR5zXxnlfIdD4vET5-1" vertex="1">
          <mxGeometry x="640" y="250" width="50" height="50" as="geometry" />
        </mxCell>
        <mxCell id="QdPWR5zXxnlfIdD4vET5-52" value="" style="shape=image;imageAspect=0;aspect=fixed;verticalLabelPosition=bottom;verticalAlign=top;sketch=1;jiggle=2;curveFitting=1;strokeColor=default;align=center;fontFamily=Gloria Hallelujah;fontSize=12;fontColor=default;fontStyle=1;labelBackgroundColor=default;fillColor=default;image=https://plugins.jetbrains.com/files/21907/522769/icon/pluginIcon.png;fontSource=https%3A%2F%2Ffonts.googleapis.com%2Fcss%3Ffamily%3DGloria%2BHallelujah;" parent="QdPWR5zXxnlfIdD4vET5-1" vertex="1">
          <mxGeometry x="680" y="-120" width="50" height="50" as="geometry" />
        </mxCell>
        <mxCell id="QdPWR5zXxnlfIdD4vET5-53" value="" style="shape=image;imageAspect=0;aspect=fixed;verticalLabelPosition=bottom;verticalAlign=top;sketch=1;jiggle=2;curveFitting=1;strokeColor=default;align=center;fontFamily=Gloria Hallelujah;fontSize=12;fontColor=default;fontStyle=1;labelBackgroundColor=default;fillColor=default;image=https://plugins.jetbrains.com/files/21907/522769/icon/pluginIcon.png;fontSource=https%3A%2F%2Ffonts.googleapis.com%2Fcss%3Ffamily%3DGloria%2BHallelujah;" parent="QdPWR5zXxnlfIdD4vET5-1" vertex="1">
          <mxGeometry x="930" y="280" width="50" height="50" as="geometry" />
        </mxCell>
        <mxCell id="QdPWR5zXxnlfIdD4vET5-54" value="" style="shape=image;imageAspect=0;aspect=fixed;verticalLabelPosition=bottom;verticalAlign=top;sketch=1;jiggle=2;curveFitting=1;strokeColor=default;align=center;fontFamily=Gloria Hallelujah;fontSize=12;fontColor=default;fontStyle=1;labelBackgroundColor=default;fillColor=default;image=https://plugins.jetbrains.com/files/21907/522769/icon/pluginIcon.png;fontSource=https%3A%2F%2Ffonts.googleapis.com%2Fcss%3Ffamily%3DGloria%2BHallelujah;" parent="QdPWR5zXxnlfIdD4vET5-1" vertex="1">
          <mxGeometry x="1200" y="270" width="50" height="50" as="geometry" />
        </mxCell>
        <mxCell id="QdPWR5zXxnlfIdD4vET5-55" value="" style="shape=image;imageAspect=0;aspect=fixed;verticalLabelPosition=bottom;verticalAlign=top;sketch=1;jiggle=2;curveFitting=1;strokeColor=default;align=center;fontFamily=Gloria Hallelujah;fontSize=12;fontColor=default;fontStyle=1;labelBackgroundColor=default;fillColor=default;image=https://plugins.jetbrains.com/files/21907/522769/icon/pluginIcon.png;fontSource=https%3A%2F%2Ffonts.googleapis.com%2Fcss%3Ffamily%3DGloria%2BHallelujah;" parent="QdPWR5zXxnlfIdD4vET5-1" vertex="1">
          <mxGeometry x="930" y="590" width="50" height="50" as="geometry" />
        </mxCell>
        <mxCell id="QdPWR5zXxnlfIdD4vET5-56" value="&lt;span style=&quot;font-size: 13px;&quot; id=&quot;docs-internal-guid-8a07c1f8-7fff-144c-3e6b-a0d386fec6b9&quot;&gt;&lt;font data-font-src=&quot;https://fonts.googleapis.com/css?family=Gloria+Hallelujah&quot; style=&quot;font-size: 13px;&quot;&gt;&lt;p dir=&quot;ltr&quot; style=&quot;line-height: 1.2; margin-top: 0pt; margin-bottom: 0pt; font-size: 13px;&quot;&gt;&lt;span style=&quot;font-size: 13px; color: rgb(0, 0, 0); font-style: normal; font-variant: normal; text-decoration: none; vertical-align: baseline; white-space: pre-wrap;&quot;&gt;Prisma Cloud IDE Plugin&lt;/span&gt;&lt;/p&gt;&lt;p dir=&quot;ltr&quot; style=&quot;line-height: 1.2; margin-top: 0pt; margin-bottom: 0pt; font-size: 13px;&quot;&gt;&lt;span style=&quot;white-space-collapse: preserve;&quot;&gt;與IDE整合，提供安全意見&lt;/span&gt;&lt;/p&gt;&lt;p dir=&quot;ltr&quot; style=&quot;line-height: 1.2; margin-top: 0pt; margin-bottom: 0pt; font-size: 13px;&quot;&gt;&lt;/p&gt;&lt;ul style=&quot;font-size: 13px;&quot;&gt;&lt;li style=&quot;text-align: justify; font-size: 13px;&quot;&gt;&lt;span style=&quot;font-size: 13px; white-space-collapse: preserve; font-weight: normal;&quot;&gt;Enforce guardrails as you code IaC template and Application Code&lt;/span&gt;&lt;/li&gt;&lt;li style=&quot;text-align: justify; font-size: 13px;&quot;&gt;&lt;span style=&quot;font-size: 13px; white-space-collapse: preserve; font-weight: normal;&quot;&gt;Inline insights and fixes&lt;br&gt;&lt;/span&gt;&lt;/li&gt;&lt;li style=&quot;text-align: justify; font-size: 13px;&quot;&gt;&lt;span style=&quot;font-size: 13px; white-space-collapse: preserve; font-weight: normal;&quot;&gt;SAST* (Beta)&lt;/span&gt;&lt;/li&gt;&lt;/ul&gt;&lt;p style=&quot;font-size: 13px;&quot;&gt;&lt;/p&gt;&lt;/font&gt;&lt;/span&gt;" style="shape=callout;whiteSpace=wrap;html=1;perimeter=calloutPerimeter;sketch=1;jiggle=2;curveFitting=1;strokeColor=#d6b656;align=center;verticalAlign=middle;fontFamily=Gloria Hallelujah;fontSize=13;fontStyle=1;labelBackgroundColor=none;fillColor=#fff2cc;position2=0.46;gradientColor=#ffd966;fontSource=https%3A%2F%2Ffonts.googleapis.com%2Fcss%3Ffamily%3DGloria%2BHallelujah;" parent="QdPWR5zXxnlfIdD4vET5-1" vertex="1">
          <mxGeometry x="60" y="120" width="270" height="160" as="geometry" />
        </mxCell>
        <mxCell id="QdPWR5zXxnlfIdD4vET5-57" value="&lt;b id=&quot;docs-internal-guid-3b90c343-7fff-3ddd-a99e-53f0f4e623fa&quot; style=&quot;font-weight: normal; font-size: 13px;&quot;&gt;&lt;p style=&quot;line-height: 1.2; margin-top: 0pt; margin-bottom: 0pt; font-size: 13px;&quot; dir=&quot;ltr&quot;&gt;&lt;span style=&quot;font-size: 13px; color: rgb(0, 0, 0); font-weight: 700; font-style: normal; font-variant: normal; text-decoration: none; vertical-align: baseline; white-space: pre-wrap;&quot;&gt;Integrate with Git Repo&lt;/span&gt;&lt;/p&gt;&lt;p style=&quot;line-height: 1.2; margin-top: 0pt; margin-bottom: 0pt; font-size: 13px;&quot; dir=&quot;ltr&quot;&gt;&lt;span style=&quot;font-size: 13px; color: rgb(0, 0, 0); font-weight: 700; font-style: normal; font-variant: normal; text-decoration: none; vertical-align: baseline; white-space: pre-wrap;&quot;&gt;以BOT方式來掃描PR/Commit&amp;nbsp;&lt;/span&gt;&lt;/p&gt;&lt;br style=&quot;font-size: 13px;&quot;&gt;&lt;ul style=&quot;margin-top: 0px; margin-bottom: 0px; padding-inline-start: 48px; font-size: 13px;&quot;&gt;&lt;li aria-level=&quot;1&quot; style=&quot;list-style-type: disc; font-size: 13px; color: rgb(0, 0, 0); font-weight: 400; font-style: normal; font-variant: normal; text-decoration: none; vertical-align: baseline; white-space: pre; margin-left: -15pt;&quot; dir=&quot;ltr&quot;&gt;&lt;p role=&quot;presentation&quot; style=&quot;text-align: left; line-height: 1.2; margin-top: 0pt; margin-bottom: 0pt; font-size: 13px;&quot; dir=&quot;ltr&quot;&gt;&lt;span style=&quot;font-size: 13px; color: rgb(0, 0, 0); font-weight: 400; font-style: normal; font-variant: normal; text-decoration: none; vertical-align: baseline; white-space: pre-wrap;&quot;&gt;IaC template scanning&lt;/span&gt;&lt;/p&gt;&lt;/li&gt;&lt;li aria-level=&quot;1&quot; style=&quot;list-style-type: disc; font-size: 13px; color: rgb(0, 0, 0); font-weight: 400; font-style: normal; font-variant: normal; text-decoration: none; vertical-align: baseline; white-space: pre; margin-left: -15pt;&quot; dir=&quot;ltr&quot;&gt;&lt;p role=&quot;presentation&quot; style=&quot;text-align: left; line-height: 1.2; margin-top: 0pt; margin-bottom: 0pt; font-size: 13px;&quot; dir=&quot;ltr&quot;&gt;&lt;span style=&quot;font-size: 13px; color: rgb(0, 0, 0); font-weight: 400; font-style: normal; font-variant: normal; text-decoration: none; vertical-align: baseline; white-space: pre-wrap;&quot;&gt;Pull Request bot comment&lt;/span&gt;&lt;/p&gt;&lt;/li&gt;&lt;li aria-level=&quot;1&quot; style=&quot;list-style-type: disc; font-size: 13px; color: rgb(0, 0, 0); font-weight: 400; font-style: normal; font-variant: normal; text-decoration: none; vertical-align: baseline; white-space: pre; margin-left: -15pt;&quot; dir=&quot;ltr&quot;&gt;&lt;p role=&quot;presentation&quot; style=&quot;text-align: left; line-height: 1.2; margin-top: 0pt; margin-bottom: 0pt; font-size: 13px;&quot; dir=&quot;ltr&quot;&gt;&lt;span style=&quot;font-size: 13px; color: rgb(0, 0, 0); font-weight: 400; font-style: normal; font-variant: normal; text-decoration: none; vertical-align: baseline; white-space: pre-wrap;&quot;&gt;Vulnerabilities scanning (Python, Java, JS)&lt;/span&gt;&lt;/p&gt;&lt;/li&gt;&lt;li aria-level=&quot;1&quot; style=&quot;list-style-type: disc; font-size: 13px; color: rgb(0, 0, 0); font-weight: 400; font-style: normal; font-variant: normal; text-decoration: none; vertical-align: baseline; white-space: pre; margin-left: -15pt;&quot; dir=&quot;ltr&quot;&gt;&lt;p role=&quot;presentation&quot; style=&quot;text-align: left; line-height: 1.2; margin-top: 0pt; margin-bottom: 0pt; font-size: 13px;&quot; dir=&quot;ltr&quot;&gt;&lt;span style=&quot;font-size: 13px; color: rgb(0, 0, 0); font-weight: 400; font-style: normal; font-variant: normal; text-decoration: none; vertical-align: baseline; white-space: pre-wrap;&quot;&gt;Compliance&lt;/span&gt;&lt;/p&gt;&lt;/li&gt;&lt;li aria-level=&quot;1&quot; style=&quot;list-style-type: disc; font-size: 13px; color: rgb(0, 0, 0); font-weight: 400; font-style: normal; font-variant: normal; text-decoration: none; vertical-align: baseline; white-space: pre; margin-left: -15pt;&quot; dir=&quot;ltr&quot;&gt;&lt;p role=&quot;presentation&quot; style=&quot;text-align: left; line-height: 1.2; margin-top: 0pt; margin-bottom: 0pt; font-size: 13px;&quot; dir=&quot;ltr&quot;&gt;&lt;span style=&quot;font-size: 13px; color: rgb(0, 0, 0); font-weight: 400; font-style: normal; font-variant: normal; text-decoration: none; vertical-align: baseline; white-space: pre-wrap;&quot;&gt;Secret Scanning&lt;/span&gt;&lt;/p&gt;&lt;/li&gt;&lt;li aria-level=&quot;1&quot; style=&quot;list-style-type: disc; font-size: 13px; color: rgb(0, 0, 0); font-weight: 400; font-style: normal; font-variant: normal; text-decoration: none; vertical-align: baseline; white-space: pre; margin-left: -15pt;&quot; dir=&quot;ltr&quot;&gt;&lt;p role=&quot;presentation&quot; style=&quot;text-align: left; line-height: 1.2; margin-top: 0pt; margin-bottom: 0pt; font-size: 13px;&quot; dir=&quot;ltr&quot;&gt;&lt;span style=&quot;font-size: 13px; color: rgb(0, 0, 0); font-weight: 400; font-style: normal; font-variant: normal; text-decoration: none; vertical-align: baseline; white-space: pre-wrap;&quot;&gt;SBOM Generation&lt;/span&gt;&lt;/p&gt;&lt;/li&gt;&lt;li aria-level=&quot;1&quot; style=&quot;list-style-type: disc; font-size: 13px; color: rgb(0, 0, 0); font-weight: 400; font-style: normal; font-variant: normal; text-decoration: none; vertical-align: baseline; white-space: pre; margin-left: -15pt;&quot; dir=&quot;ltr&quot;&gt;&lt;p role=&quot;presentation&quot; style=&quot;text-align: left; line-height: 1.2; margin-top: 0pt; margin-bottom: 0pt; font-size: 13px;&quot; dir=&quot;ltr&quot;&gt;&lt;span style=&quot;font-size: 13px; color: rgb(0, 0, 0); font-weight: 400; font-style: normal; font-variant: normal; text-decoration: none; vertical-align: baseline; white-space: pre-wrap;&quot;&gt;OSS License Scanning&lt;/span&gt;&lt;/p&gt;&lt;/li&gt;&lt;li aria-level=&quot;1&quot; style=&quot;list-style-type: disc; font-size: 13px; color: rgb(0, 0, 0); font-weight: 400; font-style: normal; font-variant: normal; text-decoration: none; vertical-align: baseline; white-space: pre; margin-left: -15pt;&quot; dir=&quot;ltr&quot;&gt;&lt;p role=&quot;presentation&quot; style=&quot;text-align: left; line-height: 1.2; margin-top: 0pt; margin-bottom: 0pt; font-size: 13px;&quot; dir=&quot;ltr&quot;&gt;&lt;span style=&quot;text-wrap: wrap; text-align: justify; background-color: initial;&quot;&gt;SAST* (Beta)&lt;/span&gt;&lt;/p&gt;&lt;/li&gt;&lt;/ul&gt;&lt;/b&gt;" style="whiteSpace=wrap;html=1;shape=mxgraph.basic.rectCallout;dx=54;dy=38;boundedLbl=1;sketch=1;jiggle=2;curveFitting=1;strokeColor=#d6b656;align=center;verticalAlign=middle;fontFamily=Gloria Hallelujah;fontSize=13;fontStyle=1;labelBackgroundColor=none;fillColor=#fff2cc;gradientColor=#ffd966;fontSource=https%3A%2F%2Ffonts.googleapis.com%2Fcss%3Ffamily%3DGloria%2BHallelujah;" parent="QdPWR5zXxnlfIdD4vET5-1" vertex="1">
          <mxGeometry x="380" y="30" width="210" height="250" as="geometry" />
        </mxCell>
        <mxCell id="QdPWR5zXxnlfIdD4vET5-58" value="&lt;span id=&quot;docs-internal-guid-3b90c343-7fff-3ddd-a99e-53f0f4e623fa&quot; style=&quot;font-size: 13px;&quot;&gt;&lt;p style=&quot;line-height: 1.2; margin-top: 0pt; margin-bottom: 0pt; font-size: 13px;&quot; dir=&quot;ltr&quot;&gt;&lt;span style=&quot;white-space-collapse: preserve; font-size: 13px;&quot;&gt;Integrate with Registry&lt;br/&gt;整合容器鏡像庫&lt;/span&gt;&lt;/p&gt;&lt;div style=&quot;text-align: justify; font-size: 13px;&quot;&gt;&lt;ul style=&quot;font-size: 13px;&quot;&gt;&lt;li style=&quot;font-size: 13px;&quot;&gt;Image vulnerability scanning&lt;/li&gt;&lt;li style=&quot;font-size: 13px;&quot;&gt;Sandbox Image Scanning&lt;/li&gt;&lt;/ul&gt;&lt;/div&gt;&lt;/span&gt;" style="whiteSpace=wrap;html=1;shape=mxgraph.basic.rectCallout;dx=36;dy=35;boundedLbl=1;sketch=1;jiggle=2;curveFitting=1;strokeColor=#d6b656;align=center;verticalAlign=middle;fontFamily=Gloria Hallelujah;fontSize=13;fontStyle=1;labelBackgroundColor=none;fillColor=#fff2cc;gradientColor=#ffd966;fontSource=https%3A%2F%2Ffonts.googleapis.com%2Fcss%3Ffamily%3DGloria%2BHallelujah;" parent="QdPWR5zXxnlfIdD4vET5-1" vertex="1">
          <mxGeometry x="890" y="-30" width="240" height="130" as="geometry" />
        </mxCell>
        <mxCell id="QdPWR5zXxnlfIdD4vET5-59" value="&lt;span style=&quot;font-size: 13px;&quot; id=&quot;docs-internal-guid-8a07c1f8-7fff-144c-3e6b-a0d386fec6b9&quot;&gt;&lt;font data-font-src=&quot;https://fonts.googleapis.com/css?family=Gloria+Hallelujah&quot; style=&quot;font-size: 13px;&quot;&gt;&lt;p dir=&quot;ltr&quot; style=&quot;line-height: 1.2; margin-top: 0pt; margin-bottom: 0pt; font-size: 13px;&quot;&gt;&lt;span style=&quot;white-space-collapse: preserve; font-size: 13px;&quot;&gt;Integrate with CI Tools&lt;br style=&quot;font-size: 13px;&quot;&gt;&lt;/span&gt;&lt;/p&gt;&lt;p dir=&quot;ltr&quot; style=&quot;line-height: 1.2; margin-top: 0pt; margin-bottom: 0pt; font-size: 13px;&quot;&gt;&lt;span style=&quot;white-space-collapse: preserve; font-size: 13px;&quot;&gt;掃描流水線上的程式碼&lt;/span&gt;&lt;/p&gt;&lt;ul style=&quot;font-size: 13px;&quot;&gt;&lt;li style=&quot;text-align: left; font-size: 13px;&quot;&gt;&lt;span style=&quot;white-space-collapse: preserve; font-size: 13px;&quot;&gt;IaC template scanning&lt;/span&gt;&lt;/li&gt;&lt;li style=&quot;text-align: left; font-size: 13px;&quot;&gt;&lt;span style=&quot;white-space-collapse: preserve; font-size: 13px;&quot;&gt;Vulnerabilities scanning&lt;/span&gt;&lt;/li&gt;&lt;li style=&quot;text-align: left; font-size: 13px;&quot;&gt;&lt;span style=&quot;white-space-collapse: preserve; font-size: 13px;&quot;&gt;Code Compliance&lt;br&gt;&lt;/span&gt;&lt;/li&gt;&lt;li style=&quot;text-align: left; font-size: 13px;&quot;&gt;&lt;span style=&quot;white-space-collapse: preserve; font-size: 13px;&quot;&gt;SCA, SAST* (Beta), SBOM, OSS License Scanning&lt;/span&gt;&lt;/li&gt;&lt;/ul&gt;&lt;/font&gt;&lt;/span&gt;&lt;p style=&quot;font-size: 13px;&quot;&gt;&lt;/p&gt;&lt;p style=&quot;font-size: 13px;&quot;&gt;&lt;/p&gt;" style="shape=callout;whiteSpace=wrap;html=1;perimeter=calloutPerimeter;sketch=1;jiggle=2;curveFitting=1;strokeColor=#d6b656;align=center;verticalAlign=middle;fontFamily=Gloria Hallelujah;fontSize=13;fontStyle=1;labelBackgroundColor=none;fillColor=#fff2cc;position2=0.19;base=55;direction=west;size=30;position=0.24;gradientColor=#ffd966;fontSource=https%3A%2F%2Ffonts.googleapis.com%2Fcss%3Ffamily%3DGloria%2BHallelujah;" parent="QdPWR5zXxnlfIdD4vET5-1" vertex="1">
          <mxGeometry x="500" y="550" width="220" height="170" as="geometry" />
        </mxCell>
        <mxCell id="QdPWR5zXxnlfIdD4vET5-60" value="&lt;span style=&quot;font-size: 13px;&quot; id=&quot;docs-internal-guid-8a07c1f8-7fff-144c-3e6b-a0d386fec6b9&quot;&gt;&lt;font data-font-src=&quot;https://fonts.googleapis.com/css?family=Gloria+Hallelujah&quot; style=&quot;font-size: 13px;&quot;&gt;&lt;p dir=&quot;ltr&quot; style=&quot;line-height: 1.2; margin-top: 0pt; margin-bottom: 0pt; font-size: 13px;&quot;&gt;&lt;span style=&quot;white-space-collapse: preserve; font-size: 13px;&quot;&gt;Secret Manager&lt;br/&gt;密秘管理及掃描&lt;/span&gt;&lt;/p&gt;&lt;ul style=&quot;font-size: 13px;&quot;&gt;&lt;li style=&quot;text-align: left; font-size: 13px;&quot;&gt;&lt;span style=&quot;white-space-collapse: preserve; font-size: 13px;&quot;&gt;Inject Secret to Container&lt;/span&gt;&lt;/li&gt;&lt;li style=&quot;text-align: left; font-size: 13px;&quot;&gt;&lt;span style=&quot;white-space-collapse: preserve; font-size: 13px;&quot;&gt;Policy based secret Distribution&lt;/span&gt;&lt;/li&gt;&lt;li style=&quot;text-align: left; font-size: 13px;&quot;&gt;&lt;span style=&quot;white-space-collapse: preserve; font-size: 13px;&quot;&gt;Secret Injection as Env/File&lt;/span&gt;&lt;/li&gt;&lt;/ul&gt;&lt;/font&gt;&lt;/span&gt;&lt;p style=&quot;font-size: 13px;&quot;&gt;&lt;/p&gt;&lt;p style=&quot;font-size: 13px;&quot;&gt;&lt;/p&gt;" style="shape=callout;whiteSpace=wrap;html=1;perimeter=calloutPerimeter;sketch=1;jiggle=2;curveFitting=1;strokeColor=#d6b656;align=center;verticalAlign=middle;fontFamily=Gloria Hallelujah;fontSize=13;fontStyle=1;labelBackgroundColor=none;fillColor=#fff2cc;position2=1;base=22;direction=west;size=20;position=0.86;gradientColor=#ffd966;fontSource=https%3A%2F%2Ffonts.googleapis.com%2Fcss%3Ffamily%3DGloria%2BHallelujah;" parent="QdPWR5zXxnlfIdD4vET5-1" vertex="1">
          <mxGeometry x="1000" y="710" width="250" height="140" as="geometry" />
        </mxCell>
        <mxCell id="QdPWR5zXxnlfIdD4vET5-61" value="&lt;span id=&quot;docs-internal-guid-3b90c343-7fff-3ddd-a99e-53f0f4e623fa&quot; style=&quot;font-size: 13px;&quot;&gt;&lt;p style=&quot;line-height: 1.2; margin-top: 0pt; margin-bottom: 0pt; font-size: 13px;&quot; dir=&quot;ltr&quot;&gt;&lt;/p&gt;&lt;div style=&quot;text-align: center; font-size: 13px;&quot;&gt;&lt;span style=&quot;white-space-collapse: preserve; font-size: 13px;&quot;&gt;Integrate with IaC Tools&lt;/span&gt;&lt;/div&gt;&lt;div style=&quot;text-align: center; font-size: 13px;&quot;&gt;&lt;span style=&quot;white-space-collapse: preserve;&quot;&gt;連用IaC碼的安全掃描&lt;/span&gt;&lt;/div&gt;&lt;span style=&quot;white-space-collapse: preserve; font-size: 13px;&quot;&gt;&lt;ul style=&quot;font-size: 13px;&quot;&gt;&lt;li style=&quot;text-align: center; font-size: 13px;&quot;&gt;&lt;span style=&quot;white-space-collapse: preserve; font-size: 13px;&quot;&gt;IaC template scanning&lt;/span&gt;&lt;/li&gt;&lt;li style=&quot;font-size: 13px;&quot;&gt;&lt;span style=&quot;white-space-collapse: preserve; font-size: 13px;&quot;&gt;Config Drift Detection&lt;br style=&quot;font-size: 13px;&quot;&gt;&lt;/span&gt;&lt;/li&gt;&lt;/ul&gt;&lt;/span&gt;&lt;p style=&quot;font-size: 13px;&quot;&gt;&lt;/p&gt;&lt;/span&gt;" style="whiteSpace=wrap;html=1;shape=mxgraph.basic.rectCallout;dx=36;dy=35;boundedLbl=1;sketch=1;jiggle=2;curveFitting=1;strokeColor=#d6b656;align=left;verticalAlign=middle;fontFamily=Gloria Hallelujah;fontSize=13;fontStyle=1;labelBackgroundColor=none;fillColor=#fff2cc;gradientColor=#ffd966;fontSource=https%3A%2F%2Ffonts.googleapis.com%2Fcss%3Ffamily%3DGloria%2BHallelujah;" parent="QdPWR5zXxnlfIdD4vET5-1" vertex="1">
          <mxGeometry x="980" y="160" width="220" height="130" as="geometry" />
        </mxCell>
        <mxCell id="QdPWR5zXxnlfIdD4vET5-62" value="Runtime Defence&lt;div&gt;運行環境掃瞄&lt;br&gt;&lt;div style=&quot;font-size: 13px;&quot;&gt;&lt;div style=&quot;font-size: 13px;&quot;&gt;&lt;ul style=&quot;font-size: 13px;&quot;&gt;&lt;li style=&quot;text-align: left; font-size: 13px;&quot;&gt;Container asset discovery&lt;/li&gt;&lt;li style=&quot;text-align: left; font-size: 13px;&quot;&gt;Vulnerabilities scanning&lt;/li&gt;&lt;li style=&quot;text-align: left; font-size: 13px;&quot;&gt;Compliance&lt;/li&gt;&lt;li style=&quot;text-align: left; font-size: 13px;&quot;&gt;Anti-malware&lt;/li&gt;&lt;li style=&quot;text-align: left; font-size: 13px;&quot;&gt;Process protection&lt;/li&gt;&lt;li style=&quot;text-align: left; font-size: 13px;&quot;&gt;Network protection&lt;/li&gt;&lt;li style=&quot;text-align: left; font-size: 13px;&quot;&gt;File system protection&lt;/li&gt;&lt;li style=&quot;text-align: left; font-size: 13px;&quot;&gt;WAAS &amp;amp; API Security&lt;/li&gt;&lt;li style=&quot;text-align: left; font-size: 13px;&quot;&gt;Serverless and on-demand container service supported&lt;/li&gt;&lt;li style=&quot;text-align: left; font-size: 13px;&quot;&gt;Virtual Patches&lt;br&gt;&lt;/li&gt;&lt;/ul&gt;&lt;/div&gt;&lt;/div&gt;&lt;/div&gt;" style="whiteSpace=wrap;html=1;shape=mxgraph.basic.rectCallout;dx=36;dy=35;boundedLbl=1;sketch=1;jiggle=2;curveFitting=1;strokeColor=#d6b656;align=center;verticalAlign=middle;fontFamily=Gloria Hallelujah;fontSize=13;fontStyle=1;labelBackgroundColor=none;fillColor=#fff2cc;gradientColor=#ffd966;fontSource=https%3A%2F%2Ffonts.googleapis.com%2Fcss%3Ffamily%3DGloria%2BHallelujah;" parent="QdPWR5zXxnlfIdD4vET5-1" vertex="1">
          <mxGeometry x="1300" y="50" width="240" height="280" as="geometry" />
        </mxCell>
        <mxCell id="QdPWR5zXxnlfIdD4vET5-63" value="安全軟件開發生命週期" style="text;html=1;align=center;verticalAlign=middle;whiteSpace=wrap;rounded=0;fontFamily=Gloria Hallelujah;fontSize=30;fontColor=default;fontStyle=5;labelBackgroundColor=none;fontSource=https%3A%2F%2Ffonts.googleapis.com%2Fcss%3Ffamily%3DGloria%2BHallelujah;" parent="QdPWR5zXxnlfIdD4vET5-1" vertex="1">
          <mxGeometry x="90" y="-40" width="380" height="30" as="geometry" />
        </mxCell>
        <mxCell id="QdPWR5zXxnlfIdD4vET5-64" style="edgeStyle=orthogonalEdgeStyle;curved=1;rounded=0;orthogonalLoop=1;jettySize=auto;html=1;exitX=1;exitY=0.3333333333333333;exitDx=0;exitDy=0;exitPerimeter=0;strokeColor=#4D4D4D;strokeWidth=2;align=center;verticalAlign=middle;fontFamily=Gloria Hallelujah;fontSize=12;fontColor=default;fontStyle=1;labelBackgroundColor=default;endArrow=classic;flowAnimation=0;sketch=1;curveFitting=1;jiggle=2;fontSource=https%3A%2F%2Ffonts.googleapis.com%2Fcss%3Ffamily%3DGloria%2BHallelujah;" parent="QdPWR5zXxnlfIdD4vET5-1" source="QdPWR5zXxnlfIdD4vET5-65" edge="1">
          <mxGeometry relative="1" as="geometry">
            <mxPoint x="220" y="450" as="targetPoint" />
          </mxGeometry>
        </mxCell>
        <mxCell id="QdPWR5zXxnlfIdD4vET5-65" value="Developer" style="shape=umlActor;verticalLabelPosition=bottom;verticalAlign=top;html=1;outlineConnect=0;sketch=1;jiggle=2;curveFitting=1;strokeColor=default;align=center;fontFamily=Gloria Hallelujah;fontSize=14;fontColor=default;fontStyle=1;labelBackgroundColor=default;fillColor=default;fontSource=https%3A%2F%2Ffonts.googleapis.com%2Fcss%3Ffamily%3DGloria%2BHallelujah;" parent="QdPWR5zXxnlfIdD4vET5-1" vertex="1">
          <mxGeometry x="120" y="500" width="30" height="60" as="geometry" />
        </mxCell>
        <mxCell id="QdPWR5zXxnlfIdD4vET5-66" style="edgeStyle=orthogonalEdgeStyle;curved=1;rounded=0;sketch=1;jiggle=2;curveFitting=1;orthogonalLoop=1;jettySize=auto;html=1;exitX=0.5;exitY=0.5;exitDx=0;exitDy=0;exitPerimeter=0;entryX=0;entryY=0.25;entryDx=0;entryDy=0;strokeColor=#4D4D4D;strokeWidth=2;align=center;verticalAlign=middle;fontFamily=Gloria Hallelujah;fontSize=12;fontColor=default;fontStyle=1;labelBackgroundColor=default;endArrow=classic;flowAnimation=0;fontSource=https%3A%2F%2Ffonts.googleapis.com%2Fcss%3Ffamily%3DGloria%2BHallelujah;" parent="QdPWR5zXxnlfIdD4vET5-1" source="QdPWR5zXxnlfIdD4vET5-67" target="QdPWR5zXxnlfIdD4vET5-20" edge="1">
          <mxGeometry relative="1" as="geometry" />
        </mxCell>
        <mxCell id="QdPWR5zXxnlfIdD4vET5-67" value="DevOps" style="shape=umlActor;verticalLabelPosition=bottom;verticalAlign=top;html=1;outlineConnect=0;sketch=1;jiggle=2;curveFitting=1;strokeColor=default;align=center;fontFamily=Gloria Hallelujah;fontSize=14;fontColor=default;fontStyle=1;labelBackgroundColor=default;fillColor=default;fontSource=https%3A%2F%2Ffonts.googleapis.com%2Fcss%3Ffamily%3DGloria%2BHallelujah;" parent="QdPWR5zXxnlfIdD4vET5-1" vertex="1">
          <mxGeometry x="590" y="-60" width="30" height="60" as="geometry" />
        </mxCell>
        <mxCell id="QdPWR5zXxnlfIdD4vET5-68" style="edgeStyle=orthogonalEdgeStyle;curved=1;rounded=0;sketch=1;jiggle=2;curveFitting=1;orthogonalLoop=1;jettySize=auto;html=1;strokeColor=#4D4D4D;strokeWidth=2;align=center;verticalAlign=middle;fontFamily=Gloria Hallelujah;fontSize=12;fontColor=default;fontStyle=1;labelBackgroundColor=default;endArrow=classic;flowAnimation=0;fontSource=https%3A%2F%2Ffonts.googleapis.com%2Fcss%3Ffamily%3DGloria%2BHallelujah;" parent="QdPWR5zXxnlfIdD4vET5-1" source="QdPWR5zXxnlfIdD4vET5-69" edge="1">
          <mxGeometry relative="1" as="geometry">
            <mxPoint x="1360" y="540" as="targetPoint" />
          </mxGeometry>
        </mxCell>
        <mxCell id="QdPWR5zXxnlfIdD4vET5-69" value="SecOps/SRE" style="shape=umlActor;verticalLabelPosition=bottom;verticalAlign=top;html=1;outlineConnect=0;sketch=1;jiggle=2;curveFitting=1;strokeColor=default;align=center;fontFamily=Gloria Hallelujah;fontSize=14;fontColor=default;fontStyle=1;labelBackgroundColor=default;fillColor=default;fontSource=https%3A%2F%2Ffonts.googleapis.com%2Fcss%3Ffamily%3DGloria%2BHallelujah;" parent="QdPWR5zXxnlfIdD4vET5-1" vertex="1">
          <mxGeometry x="1420" y="570" width="30" height="60" as="geometry" />
        </mxCell>
      </root>
    </mxGraphModel>
  </diagram>
  <diagram name="Simplify Chinese" id="h5ch_0NRB-wtYU-q2Ibs">
    <mxGraphModel dx="1464" dy="2037" grid="1" gridSize="10" guides="1" tooltips="1" connect="1" arrows="1" fold="1" page="1" pageScale="1" pageWidth="827" pageHeight="1169" math="0" shadow="0">
      <root>
        <mxCell id="9NzEIoserUUer-4o71EP-0" />
        <mxCell id="9NzEIoserUUer-4o71EP-1" parent="9NzEIoserUUer-4o71EP-0" />
        <mxCell id="9NzEIoserUUer-4o71EP-2" value="PR/&lt;div&gt;Commit&lt;/div&gt;" style="edgeStyle=orthogonalEdgeStyle;rounded=0;orthogonalLoop=1;jettySize=auto;html=1;fontFamily=Gloria Hallelujah;fontSize=12;fontColor=default;fontStyle=1;curved=1;strokeWidth=2;flowAnimation=1;strokeColor=#7F00FF;fontSource=https%3A%2F%2Ffonts.googleapis.com%2Fcss%3Ffamily%3DGloria%2BHallelujah;" parent="9NzEIoserUUer-4o71EP-1" source="9NzEIoserUUer-4o71EP-3" edge="1">
          <mxGeometry relative="1" as="geometry">
            <mxPoint x="360" y="430" as="targetPoint" />
          </mxGeometry>
        </mxCell>
        <mxCell id="9NzEIoserUUer-4o71EP-3" value="IDE Integration" style="swimlane;html=1;sketch=1;curveFitting=1;jiggle=2;swimlaneLine=1;fontFamily=Gloria Hallelujah;fillColor=#f5f5f5;gradientColor=#b3b3b3;strokeColor=#666666;fontSource=https%3A%2F%2Ffonts.googleapis.com%2Fcss%3Ffamily%3DGloria%2BHallelujah;" parent="9NzEIoserUUer-4o71EP-1" vertex="1">
          <mxGeometry x="80" y="320" width="200" height="130" as="geometry" />
        </mxCell>
        <mxCell id="9NzEIoserUUer-4o71EP-4" value="" style="shape=image;imageAspect=0;aspect=fixed;verticalLabelPosition=bottom;verticalAlign=top;image=https://uxwing.com/wp-content/themes/uxwing/download/brands-and-social-media/visual-studio-code-icon.png;fontFamily=Gloria Hallelujah;fontSource=https%3A%2F%2Ffonts.googleapis.com%2Fcss%3Ffamily%3DGloria%2BHallelujah;" parent="9NzEIoserUUer-4o71EP-3" vertex="1">
          <mxGeometry x="20" y="50" width="60.24" height="60" as="geometry" />
        </mxCell>
        <mxCell id="9NzEIoserUUer-4o71EP-5" value="" style="shape=image;imageAspect=0;aspect=fixed;verticalLabelPosition=bottom;verticalAlign=top;image=https://upload.wikimedia.org/wikipedia/commons/thumb/9/9c/IntelliJ_IDEA_Icon.svg/2048px-IntelliJ_IDEA_Icon.svg.png;fontFamily=Gloria Hallelujah;fontSource=https%3A%2F%2Ffonts.googleapis.com%2Fcss%3Ffamily%3DGloria%2BHallelujah;" parent="9NzEIoserUUer-4o71EP-3" vertex="1">
          <mxGeometry x="110" y="50" width="60" height="60" as="geometry" />
        </mxCell>
        <mxCell id="9NzEIoserUUer-4o71EP-6" value="Trigger" style="edgeStyle=orthogonalEdgeStyle;curved=1;rounded=0;orthogonalLoop=1;jettySize=auto;html=1;exitX=1;exitY=0.5;exitDx=0;exitDy=0;strokeColor=#7F00FF;strokeWidth=2;align=center;verticalAlign=middle;fontFamily=Gloria Hallelujah;fontSize=12;fontColor=default;fontStyle=1;labelBackgroundColor=default;endArrow=classic;flowAnimation=1;entryX=0;entryY=0.5;entryDx=0;entryDy=0;fontSource=https%3A%2F%2Ffonts.googleapis.com%2Fcss%3Ffamily%3DGloria%2BHallelujah;" parent="9NzEIoserUUer-4o71EP-1" source="9NzEIoserUUer-4o71EP-7" target="9NzEIoserUUer-4o71EP-14" edge="1">
          <mxGeometry relative="1" as="geometry">
            <mxPoint x="640" y="450" as="targetPoint" />
          </mxGeometry>
        </mxCell>
        <mxCell id="9NzEIoserUUer-4o71EP-7" value="Git Repo" style="swimlane;html=1;sketch=1;curveFitting=1;jiggle=2;swimlaneLine=1;fontFamily=Gloria Hallelujah;fillColor=#f5f5f5;gradientColor=#b3b3b3;strokeColor=#666666;fontSource=https%3A%2F%2Ffonts.googleapis.com%2Fcss%3Ffamily%3DGloria%2BHallelujah;" parent="9NzEIoserUUer-4o71EP-1" vertex="1">
          <mxGeometry x="360" y="320" width="200" height="200" as="geometry" />
        </mxCell>
        <mxCell id="9NzEIoserUUer-4o71EP-8" value="" style="shape=image;imageAspect=0;aspect=fixed;verticalLabelPosition=bottom;verticalAlign=top;image=https://cdn-icons-png.flaticon.com/512/25/25231.png;fontFamily=Gloria Hallelujah;fontSource=https%3A%2F%2Ffonts.googleapis.com%2Fcss%3Ffamily%3DGloria%2BHallelujah;" parent="9NzEIoserUUer-4o71EP-7" vertex="1">
          <mxGeometry x="23" y="40" width="62" height="62" as="geometry" />
        </mxCell>
        <mxCell id="9NzEIoserUUer-4o71EP-9" value="" style="shape=image;imageAspect=0;aspect=fixed;verticalLabelPosition=bottom;verticalAlign=top;image=https://seeklogo.com/images/G/gitlab-logo-757620E430-seeklogo.com.png;fontFamily=Gloria Hallelujah;fontSource=https%3A%2F%2Ffonts.googleapis.com%2Fcss%3Ffamily%3DGloria%2BHallelujah;" parent="9NzEIoserUUer-4o71EP-7" vertex="1">
          <mxGeometry x="113.79" y="42" width="64.98" height="60" as="geometry" />
        </mxCell>
        <mxCell id="9NzEIoserUUer-4o71EP-10" value="" style="shape=image;imageAspect=0;aspect=fixed;verticalLabelPosition=bottom;verticalAlign=top;image=https://cdn4.iconfinder.com/data/icons/logos-and-brands/512/44_Bitbucket_logo_logos-512.png;fontFamily=Gloria Hallelujah;fontSource=https%3A%2F%2Ffonts.googleapis.com%2Fcss%3Ffamily%3DGloria%2BHallelujah;" parent="9NzEIoserUUer-4o71EP-7" vertex="1">
          <mxGeometry x="18" y="120" width="72" height="72" as="geometry" />
        </mxCell>
        <mxCell id="9NzEIoserUUer-4o71EP-11" value="" style="shape=image;imageAspect=0;aspect=fixed;verticalLabelPosition=bottom;verticalAlign=top;image=https://seeklogo.com/images/A/azure-repos-logo-013E078726-seeklogo.com.png;fontFamily=Gloria Hallelujah;fontSource=https%3A%2F%2Ffonts.googleapis.com%2Fcss%3Ffamily%3DGloria%2BHallelujah;" parent="9NzEIoserUUer-4o71EP-7" vertex="1">
          <mxGeometry x="117.28" y="127" width="58" height="58" as="geometry" />
        </mxCell>
        <mxCell id="9NzEIoserUUer-4o71EP-12" value="Image&lt;div&gt;Scan&lt;/div&gt;" style="edgeStyle=orthogonalEdgeStyle;curved=1;rounded=0;orthogonalLoop=1;jettySize=auto;html=1;exitX=0;exitY=0.25;exitDx=0;exitDy=0;entryX=0;entryY=0.75;entryDx=0;entryDy=0;strokeColor=#7F00FF;strokeWidth=2;align=center;verticalAlign=middle;fontFamily=Gloria Hallelujah;fontSize=12;fontColor=default;fontStyle=1;labelBackgroundColor=default;endArrow=classic;flowAnimation=1;fontSource=https%3A%2F%2Ffonts.googleapis.com%2Fcss%3Ffamily%3DGloria%2BHallelujah;" parent="9NzEIoserUUer-4o71EP-1" source="9NzEIoserUUer-4o71EP-14" target="9NzEIoserUUer-4o71EP-20" edge="1">
          <mxGeometry relative="1" as="geometry" />
        </mxCell>
        <mxCell id="9NzEIoserUUer-4o71EP-13" value="CD" style="edgeStyle=orthogonalEdgeStyle;curved=1;rounded=0;orthogonalLoop=1;jettySize=auto;html=1;strokeColor=#7F00FF;strokeWidth=2;align=center;verticalAlign=middle;fontFamily=Gloria Hallelujah;fontSize=12;fontColor=default;fontStyle=1;labelBackgroundColor=default;endArrow=classic;flowAnimation=1;fontSource=https%3A%2F%2Ffonts.googleapis.com%2Fcss%3Ffamily%3DGloria%2BHallelujah;" parent="9NzEIoserUUer-4o71EP-1" source="9NzEIoserUUer-4o71EP-14" edge="1">
          <mxGeometry relative="1" as="geometry">
            <mxPoint x="930" y="420" as="targetPoint" />
          </mxGeometry>
        </mxCell>
        <mxCell id="9NzEIoserUUer-4o71EP-14" value="CI/CD Pipelines" style="swimlane;html=1;sketch=1;curveFitting=1;jiggle=2;swimlaneLine=1;fontFamily=Gloria Hallelujah;fillColor=#f5f5f5;gradientColor=#b3b3b3;strokeColor=#666666;fontSource=https%3A%2F%2Ffonts.googleapis.com%2Fcss%3Ffamily%3DGloria%2BHallelujah;" parent="9NzEIoserUUer-4o71EP-1" vertex="1">
          <mxGeometry x="640" y="300" width="200" height="240" as="geometry" />
        </mxCell>
        <mxCell id="9NzEIoserUUer-4o71EP-15" value="" style="image;sketch=0;aspect=fixed;html=1;points=[];align=center;fontSize=12;image=img/lib/mscae/Azure_Pipelines.svg;fontFamily=Gloria Hallelujah;fontSource=https%3A%2F%2Ffonts.googleapis.com%2Fcss%3Ffamily%3DGloria%2BHallelujah;" parent="9NzEIoserUUer-4o71EP-14" vertex="1">
          <mxGeometry x="29.02" y="40" width="58" height="58" as="geometry" />
        </mxCell>
        <mxCell id="9NzEIoserUUer-4o71EP-16" value="" style="editableCssRules=.*;html=1;shape=image;verticalLabelPosition=bottom;labelBackgroundColor=#ffffff;verticalAlign=top;aspect=fixed;imageAspect=0;image=data:image/svg+xml,PHN2ZyB4bWxucz0iaHR0cDovL3d3dy53My5vcmcvMjAwMC9zdmciIHhtbG5zOnY9Imh0dHBzOi8vdmVjdGEuaW8vbmFubyIgd2lkdGg9IjM2NS40NjQ5OTY3NzA0MjQ5MyIgaGVpZ2h0PSIzNzkuMjIyOTk0NDYzNTc3OTUiIHZpZXdCb3g9IjAgMCA5Ni42OTU5OTkxNDU1MDc4MSAxMDAuMzM1OTk4NTM1MTU2MjUiPiYjeGE7PHN0eWxlIHR5cGU9InRleHQvY3NzIj4mI3hhOwkuc3Qwe2ZpbGw6IzQyODVmNDt9JiN4YTsJLnN0MXtmaWxsOiNhZWNiZmE7fSYjeGE7PC9zdHlsZT4mI3hhOwk8cGF0aCBjbGFzcz0ic3QwIiBkPSJNMjkuNzk0IDEwMC4zMzZMNDYuOTIgNTAuMTY4aDQ5Ljc3NnpNMCA5OS42NzFsMTIuOTc2LTQ5LjUwMkgyOS4yMkwxNi44OTcgOTIuMDU0eiIvPiYjeGE7CTxwYXRoIGNsYXNzPSJzdDEiIGQ9Ik0yOS43OTQgMEw0Ni45MiA1MC4xNjhoNDkuNzc2ek0wIC42NjZsMTIuOTc2IDQ5LjUwMkgyOS4yMkwxNi44OTcgOC4yODN6Ii8+JiN4YTs8L3N2Zz4=;fontFamily=Gloria Hallelujah;fontSource=https%3A%2F%2Ffonts.googleapis.com%2Fcss%3Ffamily%3DGloria%2BHallelujah;" parent="9NzEIoserUUer-4o71EP-14" vertex="1">
          <mxGeometry x="120.00000000000001" y="46" width="52" height="52" as="geometry" />
        </mxCell>
        <mxCell id="9NzEIoserUUer-4o71EP-17" value="" style="sketch=0;points=[[0,0,0],[0.25,0,0],[0.5,0,0],[0.75,0,0],[1,0,0],[0,1,0],[0.25,1,0],[0.5,1,0],[0.75,1,0],[1,1,0],[0,0.25,0],[0,0.5,0],[0,0.75,0],[1,0.25,0],[1,0.5,0],[1,0.75,0]];outlineConnect=0;fontColor=#232F3E;fillColor=#C925D1;strokeColor=#ffffff;dashed=0;verticalLabelPosition=bottom;verticalAlign=top;align=center;html=1;fontSize=12;fontStyle=0;aspect=fixed;shape=mxgraph.aws4.resourceIcon;resIcon=mxgraph.aws4.codepipeline;fontFamily=Gloria Hallelujah;fontSource=https%3A%2F%2Ffonts.googleapis.com%2Fcss%3Ffamily%3DGloria%2BHallelujah;" parent="9NzEIoserUUer-4o71EP-14" vertex="1">
          <mxGeometry x="29.02" y="136" width="58" height="58" as="geometry" />
        </mxCell>
        <mxCell id="9NzEIoserUUer-4o71EP-18" value="" style="shape=image;imageAspect=0;aspect=fixed;verticalLabelPosition=bottom;verticalAlign=top;image=https://upload.wikimedia.org/wikipedia/commons/thumb/e/e9/Jenkins_logo.svg/1200px-Jenkins_logo.svg.png;fontFamily=Gloria Hallelujah;fontSource=https%3A%2F%2Ffonts.googleapis.com%2Fcss%3Ffamily%3DGloria%2BHallelujah;" parent="9NzEIoserUUer-4o71EP-14" vertex="1">
          <mxGeometry x="113.38" y="120" width="65.25" height="90" as="geometry" />
        </mxCell>
        <mxCell id="9NzEIoserUUer-4o71EP-19" value="Successful&lt;div&gt;Scan&lt;/div&gt;" style="edgeStyle=orthogonalEdgeStyle;curved=1;rounded=0;orthogonalLoop=1;jettySize=auto;html=1;exitX=1;exitY=0.75;exitDx=0;exitDy=0;entryX=1;entryY=0.25;entryDx=0;entryDy=0;strokeColor=#7F00FF;strokeWidth=2;align=center;verticalAlign=middle;fontFamily=Gloria Hallelujah;fontSize=12;fontColor=default;fontStyle=1;labelBackgroundColor=default;endArrow=classic;flowAnimation=1;fontSource=https%3A%2F%2Ffonts.googleapis.com%2Fcss%3Ffamily%3DGloria%2BHallelujah;" parent="9NzEIoserUUer-4o71EP-1" source="9NzEIoserUUer-4o71EP-20" target="9NzEIoserUUer-4o71EP-14" edge="1">
          <mxGeometry relative="1" as="geometry" />
        </mxCell>
        <mxCell id="9NzEIoserUUer-4o71EP-20" value="Registry" style="swimlane;html=1;sketch=1;curveFitting=1;jiggle=2;swimlaneLine=1;fontFamily=Gloria Hallelujah;fillColor=#e6d0de;strokeColor=#996185;fontSource=https%3A%2F%2Ffonts.googleapis.com%2Fcss%3Ffamily%3DGloria%2BHallelujah;gradientColor=#d5739d;" parent="9NzEIoserUUer-4o71EP-1" vertex="1">
          <mxGeometry x="680" y="-70" width="200" height="280" as="geometry" />
        </mxCell>
        <mxCell id="9NzEIoserUUer-4o71EP-21" value="" style="shape=image;imageAspect=0;aspect=fixed;verticalLabelPosition=bottom;verticalAlign=top;image=https://static-00.iconduck.com/assets.00/harbor-icon-1018x1024-15bgc40q.png;fontFamily=Gloria Hallelujah;fontSource=https%3A%2F%2Ffonts.googleapis.com%2Fcss%3Ffamily%3DGloria%2BHallelujah;" parent="9NzEIoserUUer-4o71EP-20" vertex="1">
          <mxGeometry x="24.97" y="50" width="59.65" height="60" as="geometry" />
        </mxCell>
        <mxCell id="9NzEIoserUUer-4o71EP-22" value="" style="shape=image;imageAspect=0;aspect=fixed;verticalLabelPosition=bottom;verticalAlign=top;image=https://seeklogo.com/images/Q/quay-logo-068520E315-seeklogo.com.png;fontFamily=Gloria Hallelujah;fontSource=https%3A%2F%2Ffonts.googleapis.com%2Fcss%3Ffamily%3DGloria%2BHallelujah;" parent="9NzEIoserUUer-4o71EP-20" vertex="1">
          <mxGeometry x="111" y="50" width="65.22" height="60" as="geometry" />
        </mxCell>
        <mxCell id="9NzEIoserUUer-4o71EP-23" value="" style="image;aspect=fixed;html=1;points=[];align=center;fontSize=12;image=img/lib/azure2/containers/Container_Registries.svg;fontFamily=Gloria Hallelujah;fontSource=https%3A%2F%2Ffonts.googleapis.com%2Fcss%3Ffamily%3DGloria%2BHallelujah;" parent="9NzEIoserUUer-4o71EP-20" vertex="1">
          <mxGeometry x="26.37" y="140" width="56.85" height="51" as="geometry" />
        </mxCell>
        <mxCell id="9NzEIoserUUer-4o71EP-24" value="" style="sketch=0;points=[[0,0,0],[0.25,0,0],[0.5,0,0],[0.75,0,0],[1,0,0],[0,1,0],[0.25,1,0],[0.5,1,0],[0.75,1,0],[1,1,0],[0,0.25,0],[0,0.5,0],[0,0.75,0],[1,0.25,0],[1,0.5,0],[1,0.75,0]];outlineConnect=0;fontColor=#232F3E;fillColor=#ED7100;strokeColor=#ffffff;dashed=0;verticalLabelPosition=bottom;verticalAlign=top;align=center;html=1;fontSize=12;fontStyle=0;aspect=fixed;shape=mxgraph.aws4.resourceIcon;resIcon=mxgraph.aws4.ecr;fontFamily=Gloria Hallelujah;fontSource=https%3A%2F%2Ffonts.googleapis.com%2Fcss%3Ffamily%3DGloria%2BHallelujah;" parent="9NzEIoserUUer-4o71EP-20" vertex="1">
          <mxGeometry x="119.05" y="140" width="51" height="51" as="geometry" />
        </mxCell>
        <mxCell id="9NzEIoserUUer-4o71EP-25" value="" style="editableCssRules=.*;html=1;shape=image;verticalLabelPosition=bottom;labelBackgroundColor=#ffffff;verticalAlign=top;aspect=fixed;imageAspect=0;image=data:image/svg+xml,PHN2ZyB4bWxucz0iaHR0cDovL3d3dy53My5vcmcvMjAwMC9zdmciIHhtbG5zOnY9Imh0dHBzOi8vdmVjdGEuaW8vbmFubyIgd2lkdGg9IjIxLjk5OTAwMDU0OTMxNjQwNiIgaGVpZ2h0PSIyMC4zOTM5OTkwOTk3MzE0NDUiIHZpZXdCb3g9IjAgMCAyMS45OTkwMDA1NDkzMTY0MDYgMjAuMzkzOTk5MDk5NzMxNDQ1Ij4mI3hhOwk8c3R5bGUgdHlwZT0idGV4dC9jc3MiPiYjeGE7CS5zdDB7ZmlsbDojNDI4NWY0O2ZpbGwtcnVsZTpldmVub2RkfSYjeGE7CTwvc3R5bGU+JiN4YTsJPHBhdGggY2xhc3M9InN0MCIgZD0iTTUgMHYyLjQ1OEwxLjk5OSA0LjE5N3YxMi4wMUw1IDE3LjkzOHYyLjQ1NmwtNS0yLjg4N1YyLjg4NnptMTIgMGw0Ljk5OSAyLjg4NnYxNC42MjFMMTcgMjAuMzk0di0yLjQ1NmwzLTEuNzMxVjQuMTk3bC0zLTEuNzM5em0tNi4wMTYgNi42NzNsMi45NDctMS42NDYtMi45NDctMS42NDYtMi45NDcgMS42NDZ6bTMuMjY4LTEuMDk2bC0yLjg3MSAxLjY3OHYzLjI4N2wyLjg3MS0xLjY3NnpNNy43NzMgOC44NjZsMi44NzEgMS42NzRWNy4yNTZMNy43NzMgNS41Nzd6bS0uMjEyIDMuODc4bDIuODItMS42NDYtMi44Mi0xLjY0Ni0yLjgyIDEuNjQ2em0zLjEzMi0xLjA5OGwtMi44NzEgMS42Nzh2My4yODdsMi44NzEtMS42NzZ6bS02LjI2NCAzLjI4OUw3LjMgMTYuNjA5di0zLjI4NWwtMi44NzEtMS42Nzl6bTEwLjAyOS0yLjE5MWwyLjgyLTEuNjQ2LTIuODItMS42NDYtMi44MiAxLjY0NnptMy4xMzItMS4wOThsLTIuODcxIDEuNjc4djMuMjg3bDIuODcxLTEuNjc2em0tNi4yNjQgMy4yODlsMi44NzEgMS42NzR2LTMuMjg1bC0yLjg3MS0xLjY3OXoiLz4mI3hhOzwvc3ZnPg==;fontFamily=Gloria Hallelujah;fontSource=https%3A%2F%2Ffonts.googleapis.com%2Fcss%3Ffamily%3DGloria%2BHallelujah;" parent="9NzEIoserUUer-4o71EP-20" vertex="1">
          <mxGeometry x="22.58000000000004" y="210" width="64.44" height="58" as="geometry" />
        </mxCell>
        <mxCell id="9NzEIoserUUer-4o71EP-26" style="edgeStyle=orthogonalEdgeStyle;curved=1;rounded=0;orthogonalLoop=1;jettySize=auto;html=1;entryX=0;entryY=0.5;entryDx=0;entryDy=0;strokeColor=#7F00FF;strokeWidth=2;align=center;verticalAlign=middle;fontFamily=Gloria Hallelujah;fontSize=12;fontColor=default;fontStyle=1;labelBackgroundColor=default;endArrow=classic;flowAnimation=1;fontSource=https%3A%2F%2Ffonts.googleapis.com%2Fcss%3Ffamily%3DGloria%2BHallelujah;" parent="9NzEIoserUUer-4o71EP-1" source="9NzEIoserUUer-4o71EP-28" target="9NzEIoserUUer-4o71EP-34" edge="1">
          <mxGeometry relative="1" as="geometry" />
        </mxCell>
        <mxCell id="9NzEIoserUUer-4o71EP-27" value="Deploy" style="edgeLabel;html=1;align=center;verticalAlign=middle;resizable=0;points=[];sketch=1;jiggle=2;curveFitting=1;strokeColor=default;fontFamily=Gloria Hallelujah;fontSize=12;fontColor=default;fontStyle=1;labelBackgroundColor=default;fillColor=default;fontSource=https%3A%2F%2Ffonts.googleapis.com%2Fcss%3Ffamily%3DGloria%2BHallelujah;" parent="9NzEIoserUUer-4o71EP-26" vertex="1" connectable="0">
          <mxGeometry x="-0.1714" y="-3" relative="1" as="geometry">
            <mxPoint as="offset" />
          </mxGeometry>
        </mxCell>
        <mxCell id="9NzEIoserUUer-4o71EP-28" value="IaC Security" style="swimlane;html=1;sketch=1;curveFitting=1;jiggle=2;swimlaneLine=1;fontFamily=Gloria Hallelujah;fillColor=#f5f5f5;gradientColor=#b3b3b3;strokeColor=#666666;fontSource=https%3A%2F%2Ffonts.googleapis.com%2Fcss%3Ffamily%3DGloria%2BHallelujah;" parent="9NzEIoserUUer-4o71EP-1" vertex="1">
          <mxGeometry x="930" y="330" width="200" height="200" as="geometry" />
        </mxCell>
        <mxCell id="9NzEIoserUUer-4o71EP-29" value="" style="shape=image;imageAspect=0;aspect=fixed;verticalLabelPosition=bottom;verticalAlign=top;image=https://static-00.iconduck.com/assets.00/terraform-icon-1803x2048-hodrzd3t.png;fontFamily=Gloria Hallelujah;fontSource=https%3A%2F%2Ffonts.googleapis.com%2Fcss%3Ffamily%3DGloria%2BHallelujah;" parent="9NzEIoserUUer-4o71EP-28" vertex="1">
          <mxGeometry x="20" y="36" width="61.65" height="70" as="geometry" />
        </mxCell>
        <mxCell id="9NzEIoserUUer-4o71EP-30" value="" style="sketch=0;points=[[0,0,0],[0.25,0,0],[0.5,0,0],[0.75,0,0],[1,0,0],[0,1,0],[0.25,1,0],[0.5,1,0],[0.75,1,0],[1,1,0],[0,0.25,0],[0,0.5,0],[0,0.75,0],[1,0.25,0],[1,0.5,0],[1,0.75,0]];points=[[0,0,0],[0.25,0,0],[0.5,0,0],[0.75,0,0],[1,0,0],[0,1,0],[0.25,1,0],[0.5,1,0],[0.75,1,0],[1,1,0],[0,0.25,0],[0,0.5,0],[0,0.75,0],[1,0.25,0],[1,0.5,0],[1,0.75,0]];outlineConnect=0;fontColor=#232F3E;fillColor=#E7157B;strokeColor=#ffffff;dashed=0;verticalLabelPosition=bottom;verticalAlign=top;align=center;html=1;fontSize=12;fontStyle=0;aspect=fixed;shape=mxgraph.aws4.resourceIcon;resIcon=mxgraph.aws4.cloudformation;fontFamily=Gloria Hallelujah;fontSource=https%3A%2F%2Ffonts.googleapis.com%2Fcss%3Ffamily%3DGloria%2BHallelujah;" parent="9NzEIoserUUer-4o71EP-28" vertex="1">
          <mxGeometry x="110" y="42" width="58" height="58" as="geometry" />
        </mxCell>
        <mxCell id="9NzEIoserUUer-4o71EP-31" value="" style="shape=image;imageAspect=0;aspect=fixed;verticalLabelPosition=bottom;verticalAlign=top;image=https://assets-global.website-files.com/627ba91db7d555cdff7d210c/62aa2396f5c37ea1a74e3359_armlogo.png;fontFamily=Gloria Hallelujah;fontSource=https%3A%2F%2Ffonts.googleapis.com%2Fcss%3Ffamily%3DGloria%2BHallelujah;" parent="9NzEIoserUUer-4o71EP-28" vertex="1">
          <mxGeometry x="20" y="130" width="62.85" height="51" as="geometry" />
        </mxCell>
        <mxCell id="9NzEIoserUUer-4o71EP-32" value="" style="shape=image;imageAspect=0;aspect=fixed;verticalLabelPosition=bottom;verticalAlign=top;image=https://miro.medium.com/v2/resize:fit:512/1*jd48uah0ThBNfkjJCbly6w.png;fontFamily=Gloria Hallelujah;fontSource=https%3A%2F%2Ffonts.googleapis.com%2Fcss%3Ffamily%3DGloria%2BHallelujah;" parent="9NzEIoserUUer-4o71EP-28" vertex="1">
          <mxGeometry x="108" y="124.5" width="62" height="62" as="geometry" />
        </mxCell>
        <mxCell id="9NzEIoserUUer-4o71EP-33" value="Secret Extraction" style="edgeStyle=orthogonalEdgeStyle;curved=1;rounded=0;orthogonalLoop=1;jettySize=auto;html=1;exitX=0.25;exitY=1;exitDx=0;exitDy=0;entryX=1;entryY=0.25;entryDx=0;entryDy=0;strokeColor=#7F00FF;strokeWidth=2;align=center;verticalAlign=middle;fontFamily=Gloria Hallelujah;fontSize=12;fontColor=default;fontStyle=1;labelBackgroundColor=default;endArrow=classic;flowAnimation=1;fontSource=https%3A%2F%2Ffonts.googleapis.com%2Fcss%3Ffamily%3DGloria%2BHallelujah;" parent="9NzEIoserUUer-4o71EP-1" source="9NzEIoserUUer-4o71EP-34" target="9NzEIoserUUer-4o71EP-43" edge="1">
          <mxGeometry x="0.0486" y="-30" relative="1" as="geometry">
            <mxPoint as="offset" />
          </mxGeometry>
        </mxCell>
        <mxCell id="9NzEIoserUUer-4o71EP-34" value="Runtime Protection" style="swimlane;html=1;sketch=1;curveFitting=1;jiggle=2;swimlaneLine=1;fontFamily=Gloria Hallelujah;fillColor=#e6d0de;strokeColor=#996185;fontSource=https%3A%2F%2Ffonts.googleapis.com%2Fcss%3Ffamily%3DGloria%2BHallelujah;gradientColor=#d5739d;" parent="9NzEIoserUUer-4o71EP-1" vertex="1">
          <mxGeometry x="1200" y="320" width="370" height="220" as="geometry" />
        </mxCell>
        <mxCell id="9NzEIoserUUer-4o71EP-35" value="" style="shape=image;imageAspect=0;aspect=fixed;verticalLabelPosition=bottom;verticalAlign=top;image=https://upload.wikimedia.org/wikipedia/commons/thumb/3/39/Kubernetes_logo_without_workmark.svg/1200px-Kubernetes_logo_without_workmark.svg.png;fontFamily=Gloria Hallelujah;fontSource=https%3A%2F%2Ffonts.googleapis.com%2Fcss%3Ffamily%3DGloria%2BHallelujah;" parent="9NzEIoserUUer-4o71EP-34" vertex="1">
          <mxGeometry x="20" y="35" width="66.93" height="65" as="geometry" />
        </mxCell>
        <mxCell id="9NzEIoserUUer-4o71EP-36" value="" style="shape=image;imageAspect=0;aspect=fixed;verticalLabelPosition=bottom;verticalAlign=top;image=https://upload.wikimedia.org/wikipedia/commons/thumb/3/3a/OpenShift-LogoType.svg/1917px-OpenShift-LogoType.svg.png;fontFamily=Gloria Hallelujah;fontSource=https%3A%2F%2Ffonts.googleapis.com%2Fcss%3Ffamily%3DGloria%2BHallelujah;" parent="9NzEIoserUUer-4o71EP-34" vertex="1">
          <mxGeometry x="16.00999999999999" y="120" width="74.92" height="80" as="geometry" />
        </mxCell>
        <mxCell id="9NzEIoserUUer-4o71EP-37" value="" style="sketch=0;points=[[0,0,0],[0.25,0,0],[0.5,0,0],[0.75,0,0],[1,0,0],[0,1,0],[0.25,1,0],[0.5,1,0],[0.75,1,0],[1,1,0],[0,0.25,0],[0,0.5,0],[0,0.75,0],[1,0.25,0],[1,0.5,0],[1,0.75,0]];outlineConnect=0;fontColor=#232F3E;fillColor=#ED7100;strokeColor=#ffffff;dashed=0;verticalLabelPosition=bottom;verticalAlign=top;align=center;html=1;fontSize=12;fontStyle=0;aspect=fixed;shape=mxgraph.aws4.resourceIcon;resIcon=mxgraph.aws4.ecs;fontFamily=Gloria Hallelujah;fontSource=https%3A%2F%2Ffonts.googleapis.com%2Fcss%3Ffamily%3DGloria%2BHallelujah;" parent="9NzEIoserUUer-4o71EP-34" vertex="1">
          <mxGeometry x="120" y="38.5" width="58" height="58" as="geometry" />
        </mxCell>
        <mxCell id="9NzEIoserUUer-4o71EP-38" value="" style="sketch=0;points=[[0,0,0],[0.25,0,0],[0.5,0,0],[0.75,0,0],[1,0,0],[0,1,0],[0.25,1,0],[0.5,1,0],[0.75,1,0],[1,1,0],[0,0.25,0],[0,0.5,0],[0,0.75,0],[1,0.25,0],[1,0.5,0],[1,0.75,0]];outlineConnect=0;fontColor=#232F3E;fillColor=#ED7100;strokeColor=#ffffff;dashed=0;verticalLabelPosition=bottom;verticalAlign=top;align=center;html=1;fontSize=12;fontStyle=0;aspect=fixed;shape=mxgraph.aws4.resourceIcon;resIcon=mxgraph.aws4.lambda;fontFamily=Gloria Hallelujah;fontSource=https%3A%2F%2Ffonts.googleapis.com%2Fcss%3Ffamily%3DGloria%2BHallelujah;" parent="9NzEIoserUUer-4o71EP-34" vertex="1">
          <mxGeometry x="120" y="137" width="53" height="53" as="geometry" />
        </mxCell>
        <mxCell id="9NzEIoserUUer-4o71EP-39" value="" style="sketch=0;points=[[0,0,0],[0.25,0,0],[0.5,0,0],[0.75,0,0],[1,0,0],[0,1,0],[0.25,1,0],[0.5,1,0],[0.75,1,0],[1,1,0],[0,0.25,0],[0,0.5,0],[0,0.75,0],[1,0.25,0],[1,0.5,0],[1,0.75,0]];outlineConnect=0;fontColor=#232F3E;fillColor=#ED7100;strokeColor=#ffffff;dashed=0;verticalLabelPosition=bottom;verticalAlign=top;align=center;html=1;fontSize=12;fontStyle=0;aspect=fixed;shape=mxgraph.aws4.resourceIcon;resIcon=mxgraph.aws4.eks;fontFamily=Gloria Hallelujah;fontSource=https%3A%2F%2Ffonts.googleapis.com%2Fcss%3Ffamily%3DGloria%2BHallelujah;" parent="9NzEIoserUUer-4o71EP-34" vertex="1">
          <mxGeometry x="200" y="38.5" width="61.5" height="61.5" as="geometry" />
        </mxCell>
        <mxCell id="9NzEIoserUUer-4o71EP-40" value="" style="sketch=0;points=[[0,0,0],[0.25,0,0],[0.5,0,0],[0.75,0,0],[1,0,0],[0,1,0],[0.25,1,0],[0.5,1,0],[0.75,1,0],[1,1,0],[0,0.25,0],[0,0.5,0],[0,0.75,0],[1,0.25,0],[1,0.5,0],[1,0.75,0]];outlineConnect=0;fontColor=#232F3E;fillColor=#ED7100;strokeColor=#ffffff;dashed=0;verticalLabelPosition=bottom;verticalAlign=top;align=center;html=1;fontSize=12;fontStyle=0;aspect=fixed;shape=mxgraph.aws4.resourceIcon;resIcon=mxgraph.aws4.fargate;fontFamily=Gloria Hallelujah;fontSource=https%3A%2F%2Ffonts.googleapis.com%2Fcss%3Ffamily%3DGloria%2BHallelujah;" parent="9NzEIoserUUer-4o71EP-34" vertex="1">
          <mxGeometry x="190" y="132" width="63" height="63" as="geometry" />
        </mxCell>
        <mxCell id="9NzEIoserUUer-4o71EP-41" value="" style="image;aspect=fixed;html=1;points=[];align=center;fontSize=12;image=img/lib/azure2/compute/Kubernetes_Services.svg;fontFamily=Gloria Hallelujah;fontSource=https%3A%2F%2Ffonts.googleapis.com%2Fcss%3Ffamily%3DGloria%2BHallelujah;" parent="9NzEIoserUUer-4o71EP-34" vertex="1">
          <mxGeometry x="280" y="132" width="68" height="60" as="geometry" />
        </mxCell>
        <mxCell id="9NzEIoserUUer-4o71EP-42" value="" style="editableCssRules=.*;html=1;shape=image;verticalLabelPosition=bottom;labelBackgroundColor=#ffffff;verticalAlign=top;aspect=fixed;imageAspect=0;image=data:image/svg+xml,PHN2ZyB4bWxucz0iaHR0cDovL3d3dy53My5vcmcvMjAwMC9zdmciIHhtbG5zOnY9Imh0dHBzOi8vdmVjdGEuaW8vbmFubyIgd2lkdGg9IjMyOS45MjU5OTcyMzE3OTM4IiBoZWlnaHQ9IjM3OC4yODQ5OTAzMTEyNzg4IiB2aWV3Qm94PSIwIDAgODcuMjkyOTk5MjY3NTc4MTIgMTAwLjA4Nzk5NzQzNjUyMzQ0Ij4mI3hhOzxzdHlsZSB0eXBlPSJ0ZXh0L2NzcyI+JiN4YTsJLnN0MHtmaWxsOiNhZWNiZmE7fSYjeGE7CS5zdDF7ZmlsbDojNjY5ZGY2O30mI3hhOwkuc3Qye2ZpbGw6IzQyODVmNDt9JiN4YTs8L3N0eWxlPiYjeGE7CTxwYXRoIGNsYXNzPSJzdDAiIGQ9Ik00My43NTEgMEwwIDI1LjQ2NXYyLjU4OCA0Ni45Mmw0My43NTIgMjUuMTE1IDQzLjU0MS0yNS4xMjFWMjUuNDczem0yLjQzOCAxMS44NTNsMzIuMTAzIDE4Ljc4MlY2OS43N0w0My43MzkgODkuNzA1IDkgNjkuNzYyVjMwLjY0MWwzMi4xOS0xOC43MzZ2MTQuMTU0TDI0LjUwMyAzNi4xNTNsMTkuMTcyIDExLjUwMiAxOC44ODYtMTEuNTU0LTE2LjM3Mi0xMC4wMjR6Ii8+JiN4YTsJPHBhdGggY2xhc3M9InN0MSIgZD0iTTIyLjAyNSA0MC40OTZsLjE2NiAxOS4xNDMtMTMuMjQ3IDcuMzN2Mi43NDJsMi42MzcgMS41MTQgMTIuNjQ4LTYuOTk5TDQxLjE5IDc0LjgyOFY1MS45OTN6Ii8+JiN4YTsJPHBhdGggY2xhc3M9InN0MiIgZD0iTTY1LjM0NCA0MC4yNkw0Ni4xODkgNTEuOTc5djIyLjg0N0w2My4wODggNjQuMjVsMTIuNTM5IDYuOTc0IDIuNjA5LTEuNTA1di0yLjc2NWwtMTIuNzg0LTcuMTEyeiIvPiYjeGE7PC9zdmc+;fontFamily=Gloria Hallelujah;fontSource=https%3A%2F%2Ffonts.googleapis.com%2Fcss%3Ffamily%3DGloria%2BHallelujah;" parent="9NzEIoserUUer-4o71EP-34" vertex="1">
          <mxGeometry x="283.5" y="38.5" width="61" height="67.78" as="geometry" />
        </mxCell>
        <mxCell id="9NzEIoserUUer-4o71EP-43" value="Secret Management" style="swimlane;html=1;sketch=1;curveFitting=1;jiggle=2;swimlaneLine=1;fontFamily=Gloria Hallelujah;fillColor=#e6d0de;strokeColor=#996185;fontSource=https%3A%2F%2Ffonts.googleapis.com%2Fcss%3Ffamily%3DGloria%2BHallelujah;gradientColor=#d5739d;" parent="9NzEIoserUUer-4o71EP-1" vertex="1">
          <mxGeometry x="780" y="640" width="200" height="200" as="geometry" />
        </mxCell>
        <mxCell id="9NzEIoserUUer-4o71EP-44" value="" style="image;aspect=fixed;html=1;points=[];align=center;fontSize=12;image=img/lib/azure2/security/Key_Vaults.svg;sketch=1;jiggle=2;curveFitting=1;strokeColor=default;verticalAlign=middle;fontFamily=Gloria Hallelujah;fontColor=default;fontStyle=1;labelBackgroundColor=default;fillColor=default;fontSource=https%3A%2F%2Ffonts.googleapis.com%2Fcss%3Ffamily%3DGloria%2BHallelujah;" parent="9NzEIoserUUer-4o71EP-43" vertex="1">
          <mxGeometry x="32" y="40" width="60" height="60" as="geometry" />
        </mxCell>
        <mxCell id="9NzEIoserUUer-4o71EP-45" value="" style="shape=image;imageAspect=0;aspect=fixed;verticalLabelPosition=bottom;verticalAlign=top;sketch=1;jiggle=2;curveFitting=1;strokeColor=default;align=center;fontFamily=Gloria Hallelujah;fontSize=12;fontColor=default;fontStyle=1;labelBackgroundColor=default;fillColor=default;image=https://www.svgrepo.com/show/448679/vault.svg;fontSource=https%3A%2F%2Ffonts.googleapis.com%2Fcss%3Ffamily%3DGloria%2BHallelujah;" parent="9NzEIoserUUer-4o71EP-43" vertex="1">
          <mxGeometry x="120" y="40" width="60" height="60" as="geometry" />
        </mxCell>
        <mxCell id="9NzEIoserUUer-4o71EP-46" value="" style="sketch=0;points=[[0,0,0],[0.25,0,0],[0.5,0,0],[0.75,0,0],[1,0,0],[0,1,0],[0.25,1,0],[0.5,1,0],[0.75,1,0],[1,1,0],[0,0.25,0],[0,0.5,0],[0,0.75,0],[1,0.25,0],[1,0.5,0],[1,0.75,0]];outlineConnect=0;fontColor=#232F3E;fillColor=#DD344C;strokeColor=#ffffff;dashed=0;verticalLabelPosition=bottom;verticalAlign=top;align=center;html=1;fontSize=12;fontStyle=0;aspect=fixed;shape=mxgraph.aws4.resourceIcon;resIcon=mxgraph.aws4.secrets_manager;jiggle=2;curveFitting=1;fontFamily=Gloria Hallelujah;labelBackgroundColor=default;fontSource=https%3A%2F%2Ffonts.googleapis.com%2Fcss%3Ffamily%3DGloria%2BHallelujah;" parent="9NzEIoserUUer-4o71EP-43" vertex="1">
          <mxGeometry x="33" y="120" width="58" height="58" as="geometry" />
        </mxCell>
        <mxCell id="9NzEIoserUUer-4o71EP-47" value="" style="shape=image;imageAspect=0;aspect=fixed;verticalLabelPosition=bottom;verticalAlign=top;sketch=1;jiggle=2;curveFitting=1;strokeColor=default;align=center;fontFamily=Gloria Hallelujah;fontSize=12;fontColor=default;fontStyle=1;labelBackgroundColor=default;fillColor=default;image=https://cdn.icon-icons.com/icons2/2699/PNG/512/cyberark_logo_icon_168315.png;fontSource=https%3A%2F%2Ffonts.googleapis.com%2Fcss%3Ffamily%3DGloria%2BHallelujah;" parent="9NzEIoserUUer-4o71EP-43" vertex="1">
          <mxGeometry x="114" y="113" width="72" height="72" as="geometry" />
        </mxCell>
        <mxCell id="9NzEIoserUUer-4o71EP-48" value="Secret Creation" style="edgeStyle=orthogonalEdgeStyle;curved=1;rounded=0;orthogonalLoop=1;jettySize=auto;html=1;exitX=0.5;exitY=1;exitDx=0;exitDy=0;entryX=0.325;entryY=0.005;entryDx=0;entryDy=0;entryPerimeter=0;strokeColor=#7F00FF;strokeWidth=2;align=center;verticalAlign=middle;fontFamily=Gloria Hallelujah;fontSize=12;fontColor=default;fontStyle=1;labelBackgroundColor=default;endArrow=classic;flowAnimation=1;fontSource=https%3A%2F%2Ffonts.googleapis.com%2Fcss%3Ffamily%3DGloria%2BHallelujah;" parent="9NzEIoserUUer-4o71EP-1" source="9NzEIoserUUer-4o71EP-14" target="9NzEIoserUUer-4o71EP-43" edge="1">
          <mxGeometry relative="1" as="geometry" />
        </mxCell>
        <mxCell id="9NzEIoserUUer-4o71EP-49" value="" style="shape=image;imageAspect=0;aspect=fixed;verticalLabelPosition=bottom;verticalAlign=top;sketch=1;jiggle=2;curveFitting=1;strokeColor=default;align=center;fontFamily=Gloria Hallelujah;fontSize=12;fontColor=default;fontStyle=1;labelBackgroundColor=default;fillColor=default;image=https://plugins.jetbrains.com/files/21907/522769/icon/pluginIcon.png;fontSource=https%3A%2F%2Ffonts.googleapis.com%2Fcss%3Ffamily%3DGloria%2BHallelujah;" parent="9NzEIoserUUer-4o71EP-1" vertex="1">
          <mxGeometry x="70" y="260" width="50" height="50" as="geometry" />
        </mxCell>
        <mxCell id="9NzEIoserUUer-4o71EP-50" value="" style="shape=image;imageAspect=0;aspect=fixed;verticalLabelPosition=bottom;verticalAlign=top;sketch=1;jiggle=2;curveFitting=1;strokeColor=default;align=center;fontFamily=Gloria Hallelujah;fontSize=12;fontColor=default;fontStyle=1;labelBackgroundColor=default;fillColor=default;image=https://plugins.jetbrains.com/files/21907/522769/icon/pluginIcon.png;fontSource=https%3A%2F%2Ffonts.googleapis.com%2Fcss%3Ffamily%3DGloria%2BHallelujah;" parent="9NzEIoserUUer-4o71EP-1" vertex="1">
          <mxGeometry x="350" y="260" width="50" height="50" as="geometry" />
        </mxCell>
        <mxCell id="9NzEIoserUUer-4o71EP-51" value="" style="shape=image;imageAspect=0;aspect=fixed;verticalLabelPosition=bottom;verticalAlign=top;sketch=1;jiggle=2;curveFitting=1;strokeColor=default;align=center;fontFamily=Gloria Hallelujah;fontSize=12;fontColor=default;fontStyle=1;labelBackgroundColor=default;fillColor=default;image=https://plugins.jetbrains.com/files/21907/522769/icon/pluginIcon.png;fontSource=https%3A%2F%2Ffonts.googleapis.com%2Fcss%3Ffamily%3DGloria%2BHallelujah;" parent="9NzEIoserUUer-4o71EP-1" vertex="1">
          <mxGeometry x="640" y="250" width="50" height="50" as="geometry" />
        </mxCell>
        <mxCell id="9NzEIoserUUer-4o71EP-52" value="" style="shape=image;imageAspect=0;aspect=fixed;verticalLabelPosition=bottom;verticalAlign=top;sketch=1;jiggle=2;curveFitting=1;strokeColor=default;align=center;fontFamily=Gloria Hallelujah;fontSize=12;fontColor=default;fontStyle=1;labelBackgroundColor=default;fillColor=default;image=https://plugins.jetbrains.com/files/21907/522769/icon/pluginIcon.png;fontSource=https%3A%2F%2Ffonts.googleapis.com%2Fcss%3Ffamily%3DGloria%2BHallelujah;" parent="9NzEIoserUUer-4o71EP-1" vertex="1">
          <mxGeometry x="680" y="-120" width="50" height="50" as="geometry" />
        </mxCell>
        <mxCell id="9NzEIoserUUer-4o71EP-53" value="" style="shape=image;imageAspect=0;aspect=fixed;verticalLabelPosition=bottom;verticalAlign=top;sketch=1;jiggle=2;curveFitting=1;strokeColor=default;align=center;fontFamily=Gloria Hallelujah;fontSize=12;fontColor=default;fontStyle=1;labelBackgroundColor=default;fillColor=default;image=https://plugins.jetbrains.com/files/21907/522769/icon/pluginIcon.png;fontSource=https%3A%2F%2Ffonts.googleapis.com%2Fcss%3Ffamily%3DGloria%2BHallelujah;" parent="9NzEIoserUUer-4o71EP-1" vertex="1">
          <mxGeometry x="930" y="280" width="50" height="50" as="geometry" />
        </mxCell>
        <mxCell id="9NzEIoserUUer-4o71EP-54" value="" style="shape=image;imageAspect=0;aspect=fixed;verticalLabelPosition=bottom;verticalAlign=top;sketch=1;jiggle=2;curveFitting=1;strokeColor=default;align=center;fontFamily=Gloria Hallelujah;fontSize=12;fontColor=default;fontStyle=1;labelBackgroundColor=default;fillColor=default;image=https://plugins.jetbrains.com/files/21907/522769/icon/pluginIcon.png;fontSource=https%3A%2F%2Ffonts.googleapis.com%2Fcss%3Ffamily%3DGloria%2BHallelujah;" parent="9NzEIoserUUer-4o71EP-1" vertex="1">
          <mxGeometry x="1200" y="270" width="50" height="50" as="geometry" />
        </mxCell>
        <mxCell id="9NzEIoserUUer-4o71EP-55" value="" style="shape=image;imageAspect=0;aspect=fixed;verticalLabelPosition=bottom;verticalAlign=top;sketch=1;jiggle=2;curveFitting=1;strokeColor=default;align=center;fontFamily=Gloria Hallelujah;fontSize=12;fontColor=default;fontStyle=1;labelBackgroundColor=default;fillColor=default;image=https://plugins.jetbrains.com/files/21907/522769/icon/pluginIcon.png;fontSource=https%3A%2F%2Ffonts.googleapis.com%2Fcss%3Ffamily%3DGloria%2BHallelujah;" parent="9NzEIoserUUer-4o71EP-1" vertex="1">
          <mxGeometry x="930" y="590" width="50" height="50" as="geometry" />
        </mxCell>
        <mxCell id="9NzEIoserUUer-4o71EP-56" value="&lt;span style=&quot;&quot; id=&quot;docs-internal-guid-8a07c1f8-7fff-144c-3e6b-a0d386fec6b9&quot;&gt;&lt;font data-font-src=&quot;https://fonts.googleapis.com/css?family=Gloria+Hallelujah&quot; style=&quot;&quot;&gt;&lt;p dir=&quot;ltr&quot; style=&quot;font-size: 13px; line-height: 1.2; margin-top: 0pt; margin-bottom: 0pt;&quot;&gt;&lt;span style=&quot;font-size: 13px; color: rgb(0, 0, 0); font-style: normal; font-variant: normal; text-decoration: none; vertical-align: baseline; white-space: pre-wrap;&quot;&gt;Prisma Cloud IDE Plugin&lt;/span&gt;&lt;/p&gt;&lt;p dir=&quot;ltr&quot; style=&quot;line-height: 1.2; margin-top: 0pt; margin-bottom: 0pt;&quot;&gt;&lt;span style=&quot;background-color: initial; white-space-collapse: preserve;&quot;&gt;与IDE整合，提供安全意见&lt;/span&gt;&lt;/p&gt;&lt;p dir=&quot;ltr&quot; style=&quot;font-size: 13px; line-height: 1.2; margin-top: 0pt; margin-bottom: 0pt;&quot;&gt;&lt;/p&gt;&lt;ul style=&quot;font-size: 13px;&quot;&gt;&lt;li style=&quot;text-align: justify; font-size: 13px;&quot;&gt;&lt;span style=&quot;font-size: 13px; white-space-collapse: preserve; font-weight: normal;&quot;&gt;Enforce guardrails as you code IaC template and Application Code&lt;/span&gt;&lt;/li&gt;&lt;li style=&quot;text-align: justify; font-size: 13px;&quot;&gt;&lt;span style=&quot;font-size: 13px; white-space-collapse: preserve; font-weight: normal;&quot;&gt;Inline insights and fixes&lt;br&gt;&lt;/span&gt;&lt;/li&gt;&lt;li style=&quot;text-align: justify; font-size: 13px;&quot;&gt;&lt;span style=&quot;font-size: 13px; white-space-collapse: preserve; font-weight: normal;&quot;&gt;SAST* (Beta)&lt;/span&gt;&lt;/li&gt;&lt;/ul&gt;&lt;p style=&quot;font-size: 13px;&quot;&gt;&lt;/p&gt;&lt;/font&gt;&lt;/span&gt;" style="shape=callout;whiteSpace=wrap;html=1;perimeter=calloutPerimeter;sketch=1;jiggle=2;curveFitting=1;strokeColor=#d6b656;align=center;verticalAlign=middle;fontFamily=Gloria Hallelujah;fontSize=13;fontStyle=1;labelBackgroundColor=none;fillColor=#fff2cc;position2=0.46;gradientColor=#ffd966;fontSource=https%3A%2F%2Ffonts.googleapis.com%2Fcss%3Ffamily%3DGloria%2BHallelujah;" parent="9NzEIoserUUer-4o71EP-1" vertex="1">
          <mxGeometry x="60" y="120" width="270" height="160" as="geometry" />
        </mxCell>
        <mxCell id="9NzEIoserUUer-4o71EP-57" value="&lt;b id=&quot;docs-internal-guid-3b90c343-7fff-3ddd-a99e-53f0f4e623fa&quot; style=&quot;font-weight: normal; font-size: 13px;&quot;&gt;&lt;p style=&quot;line-height: 1.2; margin-top: 0pt; margin-bottom: 0pt; font-size: 13px;&quot; dir=&quot;ltr&quot;&gt;&lt;span style=&quot;font-size: 13px; color: rgb(0, 0, 0); font-weight: 700; font-style: normal; font-variant: normal; text-decoration: none; vertical-align: baseline; white-space: pre-wrap;&quot;&gt;Integrate with Git Repo&lt;/span&gt;&lt;/p&gt;&lt;p style=&quot;line-height: 1.2; margin-top: 0pt; margin-bottom: 0pt; font-size: 13px;&quot; dir=&quot;ltr&quot;&gt;&lt;span style=&quot;font-size: 13px; color: rgb(0, 0, 0); font-weight: 700; font-style: normal; font-variant: normal; text-decoration: none; vertical-align: baseline; white-space: pre-wrap;&quot;&gt;以BOT方式来扫描PR/Commit&lt;/span&gt;&lt;/p&gt;&lt;br style=&quot;font-size: 13px;&quot;&gt;&lt;ul style=&quot;margin-top: 0px; margin-bottom: 0px; padding-inline-start: 48px; font-size: 13px;&quot;&gt;&lt;li aria-level=&quot;1&quot; style=&quot;list-style-type: disc; font-size: 13px; color: rgb(0, 0, 0); font-weight: 400; font-style: normal; font-variant: normal; text-decoration: none; vertical-align: baseline; white-space: pre; margin-left: -15pt;&quot; dir=&quot;ltr&quot;&gt;&lt;p role=&quot;presentation&quot; style=&quot;text-align: left; line-height: 1.2; margin-top: 0pt; margin-bottom: 0pt; font-size: 13px;&quot; dir=&quot;ltr&quot;&gt;&lt;span style=&quot;font-size: 13px; color: rgb(0, 0, 0); font-weight: 400; font-style: normal; font-variant: normal; text-decoration: none; vertical-align: baseline; white-space: pre-wrap;&quot;&gt;IaC template scanning&lt;/span&gt;&lt;/p&gt;&lt;/li&gt;&lt;li aria-level=&quot;1&quot; style=&quot;list-style-type: disc; font-size: 13px; color: rgb(0, 0, 0); font-weight: 400; font-style: normal; font-variant: normal; text-decoration: none; vertical-align: baseline; white-space: pre; margin-left: -15pt;&quot; dir=&quot;ltr&quot;&gt;&lt;p role=&quot;presentation&quot; style=&quot;text-align: left; line-height: 1.2; margin-top: 0pt; margin-bottom: 0pt; font-size: 13px;&quot; dir=&quot;ltr&quot;&gt;&lt;span style=&quot;font-size: 13px; color: rgb(0, 0, 0); font-weight: 400; font-style: normal; font-variant: normal; text-decoration: none; vertical-align: baseline; white-space: pre-wrap;&quot;&gt;Pull Request bot comment&lt;/span&gt;&lt;/p&gt;&lt;/li&gt;&lt;li aria-level=&quot;1&quot; style=&quot;list-style-type: disc; font-size: 13px; color: rgb(0, 0, 0); font-weight: 400; font-style: normal; font-variant: normal; text-decoration: none; vertical-align: baseline; white-space: pre; margin-left: -15pt;&quot; dir=&quot;ltr&quot;&gt;&lt;p role=&quot;presentation&quot; style=&quot;text-align: left; line-height: 1.2; margin-top: 0pt; margin-bottom: 0pt; font-size: 13px;&quot; dir=&quot;ltr&quot;&gt;&lt;span style=&quot;font-size: 13px; color: rgb(0, 0, 0); font-weight: 400; font-style: normal; font-variant: normal; text-decoration: none; vertical-align: baseline; white-space: pre-wrap;&quot;&gt;Vulnerabilities scanning (Python, Java, JS)&lt;/span&gt;&lt;/p&gt;&lt;/li&gt;&lt;li aria-level=&quot;1&quot; style=&quot;list-style-type: disc; font-size: 13px; color: rgb(0, 0, 0); font-weight: 400; font-style: normal; font-variant: normal; text-decoration: none; vertical-align: baseline; white-space: pre; margin-left: -15pt;&quot; dir=&quot;ltr&quot;&gt;&lt;p role=&quot;presentation&quot; style=&quot;text-align: left; line-height: 1.2; margin-top: 0pt; margin-bottom: 0pt; font-size: 13px;&quot; dir=&quot;ltr&quot;&gt;&lt;span style=&quot;font-size: 13px; color: rgb(0, 0, 0); font-weight: 400; font-style: normal; font-variant: normal; text-decoration: none; vertical-align: baseline; white-space: pre-wrap;&quot;&gt;Compliance&lt;/span&gt;&lt;/p&gt;&lt;/li&gt;&lt;li aria-level=&quot;1&quot; style=&quot;list-style-type: disc; font-size: 13px; color: rgb(0, 0, 0); font-weight: 400; font-style: normal; font-variant: normal; text-decoration: none; vertical-align: baseline; white-space: pre; margin-left: -15pt;&quot; dir=&quot;ltr&quot;&gt;&lt;p role=&quot;presentation&quot; style=&quot;text-align: left; line-height: 1.2; margin-top: 0pt; margin-bottom: 0pt; font-size: 13px;&quot; dir=&quot;ltr&quot;&gt;&lt;span style=&quot;font-size: 13px; color: rgb(0, 0, 0); font-weight: 400; font-style: normal; font-variant: normal; text-decoration: none; vertical-align: baseline; white-space: pre-wrap;&quot;&gt;Secret Scanning&lt;/span&gt;&lt;/p&gt;&lt;/li&gt;&lt;li aria-level=&quot;1&quot; style=&quot;list-style-type: disc; font-size: 13px; color: rgb(0, 0, 0); font-weight: 400; font-style: normal; font-variant: normal; text-decoration: none; vertical-align: baseline; white-space: pre; margin-left: -15pt;&quot; dir=&quot;ltr&quot;&gt;&lt;p role=&quot;presentation&quot; style=&quot;text-align: left; line-height: 1.2; margin-top: 0pt; margin-bottom: 0pt; font-size: 13px;&quot; dir=&quot;ltr&quot;&gt;&lt;span style=&quot;font-size: 13px; color: rgb(0, 0, 0); font-weight: 400; font-style: normal; font-variant: normal; text-decoration: none; vertical-align: baseline; white-space: pre-wrap;&quot;&gt;SBOM Generation&lt;/span&gt;&lt;/p&gt;&lt;/li&gt;&lt;li aria-level=&quot;1&quot; style=&quot;list-style-type: disc; font-size: 13px; color: rgb(0, 0, 0); font-weight: 400; font-style: normal; font-variant: normal; text-decoration: none; vertical-align: baseline; white-space: pre; margin-left: -15pt;&quot; dir=&quot;ltr&quot;&gt;&lt;p role=&quot;presentation&quot; style=&quot;text-align: left; line-height: 1.2; margin-top: 0pt; margin-bottom: 0pt; font-size: 13px;&quot; dir=&quot;ltr&quot;&gt;&lt;span style=&quot;font-size: 13px; color: rgb(0, 0, 0); font-weight: 400; font-style: normal; font-variant: normal; text-decoration: none; vertical-align: baseline; white-space: pre-wrap;&quot;&gt;OSS License Scanning&lt;/span&gt;&lt;/p&gt;&lt;/li&gt;&lt;li aria-level=&quot;1&quot; style=&quot;list-style-type: disc; font-size: 13px; color: rgb(0, 0, 0); font-weight: 400; font-style: normal; font-variant: normal; text-decoration: none; vertical-align: baseline; white-space: pre; margin-left: -15pt;&quot; dir=&quot;ltr&quot;&gt;&lt;p role=&quot;presentation&quot; style=&quot;text-align: left; line-height: 1.2; margin-top: 0pt; margin-bottom: 0pt; font-size: 13px;&quot; dir=&quot;ltr&quot;&gt;&lt;span style=&quot;text-wrap: wrap; text-align: justify; background-color: initial;&quot;&gt;SAST* (Beta)&lt;/span&gt;&lt;/p&gt;&lt;/li&gt;&lt;/ul&gt;&lt;/b&gt;" style="whiteSpace=wrap;html=1;shape=mxgraph.basic.rectCallout;dx=54;dy=38;boundedLbl=1;sketch=1;jiggle=2;curveFitting=1;strokeColor=#d6b656;align=center;verticalAlign=middle;fontFamily=Gloria Hallelujah;fontSize=13;fontStyle=1;labelBackgroundColor=none;fillColor=#fff2cc;gradientColor=#ffd966;fontSource=https%3A%2F%2Ffonts.googleapis.com%2Fcss%3Ffamily%3DGloria%2BHallelujah;" parent="9NzEIoserUUer-4o71EP-1" vertex="1">
          <mxGeometry x="380" y="30" width="210" height="250" as="geometry" />
        </mxCell>
        <mxCell id="9NzEIoserUUer-4o71EP-58" value="&lt;span id=&quot;docs-internal-guid-3b90c343-7fff-3ddd-a99e-53f0f4e623fa&quot; style=&quot;&quot;&gt;&lt;p style=&quot;font-size: 13px; line-height: 1.2; margin-top: 0pt; margin-bottom: 0pt;&quot; dir=&quot;ltr&quot;&gt;&lt;span style=&quot;white-space-collapse: preserve; font-size: 13px;&quot;&gt;Integrate with Registry&lt;br&gt;&lt;/span&gt;&lt;/p&gt;&lt;span style=&quot;white-space-collapse: preserve;&quot;&gt;整合容器镜像库&lt;/span&gt;&lt;div style=&quot;font-size: 13px; text-align: justify;&quot;&gt;&lt;ul style=&quot;font-size: 13px;&quot;&gt;&lt;li style=&quot;font-size: 13px;&quot;&gt;Image vulnerability scanning&lt;/li&gt;&lt;li style=&quot;font-size: 13px;&quot;&gt;Sandbox Image Scanning&lt;/li&gt;&lt;/ul&gt;&lt;/div&gt;&lt;/span&gt;" style="whiteSpace=wrap;html=1;shape=mxgraph.basic.rectCallout;dx=36;dy=35;boundedLbl=1;sketch=1;jiggle=2;curveFitting=1;strokeColor=#d6b656;align=center;verticalAlign=middle;fontFamily=Gloria Hallelujah;fontSize=13;fontStyle=1;labelBackgroundColor=none;fillColor=#fff2cc;gradientColor=#ffd966;fontSource=https%3A%2F%2Ffonts.googleapis.com%2Fcss%3Ffamily%3DGloria%2BHallelujah;" parent="9NzEIoserUUer-4o71EP-1" vertex="1">
          <mxGeometry x="890" y="-30" width="240" height="130" as="geometry" />
        </mxCell>
        <mxCell id="9NzEIoserUUer-4o71EP-59" value="&lt;span style=&quot;&quot; id=&quot;docs-internal-guid-8a07c1f8-7fff-144c-3e6b-a0d386fec6b9&quot;&gt;&lt;font data-font-src=&quot;https://fonts.googleapis.com/css?family=Gloria+Hallelujah&quot; style=&quot;&quot;&gt;&lt;p dir=&quot;ltr&quot; style=&quot;font-size: 13px; line-height: 1.2; margin-top: 0pt; margin-bottom: 0pt;&quot;&gt;&lt;span style=&quot;white-space-collapse: preserve; font-size: 13px;&quot;&gt;Integrate with CI Tools&lt;br style=&quot;font-size: 13px;&quot;&gt;&lt;/span&gt;&lt;/p&gt;&lt;p dir=&quot;ltr&quot; style=&quot;line-height: 1.2; margin-top: 0pt; margin-bottom: 0pt;&quot;&gt;&lt;span style=&quot;background-color: initial; white-space-collapse: preserve;&quot;&gt;扫描流水线上的程式码&lt;/span&gt;&lt;/p&gt;&lt;ul style=&quot;font-size: 13px;&quot;&gt;&lt;li style=&quot;text-align: left; font-size: 13px;&quot;&gt;&lt;span style=&quot;white-space-collapse: preserve; font-size: 13px;&quot;&gt;IaC template scanning&lt;/span&gt;&lt;/li&gt;&lt;li style=&quot;text-align: left; font-size: 13px;&quot;&gt;&lt;span style=&quot;white-space-collapse: preserve; font-size: 13px;&quot;&gt;Vulnerabilities scanning&lt;/span&gt;&lt;/li&gt;&lt;li style=&quot;text-align: left; font-size: 13px;&quot;&gt;&lt;span style=&quot;white-space-collapse: preserve; font-size: 13px;&quot;&gt;Code Compliance&lt;br&gt;&lt;/span&gt;&lt;/li&gt;&lt;li style=&quot;text-align: left; font-size: 13px;&quot;&gt;&lt;span style=&quot;white-space-collapse: preserve; font-size: 13px;&quot;&gt;SCA, SAST* (Beta), SBOM, OSS License Scanning&lt;/span&gt;&lt;/li&gt;&lt;/ul&gt;&lt;/font&gt;&lt;/span&gt;&lt;p style=&quot;font-size: 13px;&quot;&gt;&lt;/p&gt;&lt;p style=&quot;font-size: 13px;&quot;&gt;&lt;/p&gt;" style="shape=callout;whiteSpace=wrap;html=1;perimeter=calloutPerimeter;sketch=1;jiggle=2;curveFitting=1;strokeColor=#d6b656;align=center;verticalAlign=middle;fontFamily=Gloria Hallelujah;fontSize=13;fontStyle=1;labelBackgroundColor=none;fillColor=#fff2cc;position2=0.19;base=55;direction=west;size=30;position=0.24;gradientColor=#ffd966;fontSource=https%3A%2F%2Ffonts.googleapis.com%2Fcss%3Ffamily%3DGloria%2BHallelujah;" parent="9NzEIoserUUer-4o71EP-1" vertex="1">
          <mxGeometry x="500" y="550" width="220" height="170" as="geometry" />
        </mxCell>
        <mxCell id="9NzEIoserUUer-4o71EP-60" value="&lt;span style=&quot;&quot; id=&quot;docs-internal-guid-8a07c1f8-7fff-144c-3e6b-a0d386fec6b9&quot;&gt;&lt;font data-font-src=&quot;https://fonts.googleapis.com/css?family=Gloria+Hallelujah&quot; style=&quot;&quot;&gt;&lt;p dir=&quot;ltr&quot; style=&quot;font-size: 13px; line-height: 1.2; margin-top: 0pt; margin-bottom: 0pt;&quot;&gt;&lt;span style=&quot;white-space-collapse: preserve; font-size: 13px;&quot;&gt;Secret Manager&lt;br&gt;&lt;/span&gt;&lt;/p&gt;&lt;span style=&quot;white-space-collapse: preserve;&quot;&gt;密秘管理及扫描&lt;/span&gt;&lt;ul style=&quot;font-size: 13px;&quot;&gt;&lt;li style=&quot;text-align: left; font-size: 13px;&quot;&gt;&lt;span style=&quot;white-space-collapse: preserve; font-size: 13px;&quot;&gt;Inject Secret to Container&lt;/span&gt;&lt;/li&gt;&lt;li style=&quot;text-align: left; font-size: 13px;&quot;&gt;&lt;span style=&quot;white-space-collapse: preserve; font-size: 13px;&quot;&gt;Policy based secret Distribution&lt;/span&gt;&lt;/li&gt;&lt;li style=&quot;text-align: left; font-size: 13px;&quot;&gt;&lt;span style=&quot;white-space-collapse: preserve; font-size: 13px;&quot;&gt;Secret Injection as Env/File&lt;/span&gt;&lt;/li&gt;&lt;/ul&gt;&lt;/font&gt;&lt;/span&gt;&lt;p style=&quot;font-size: 13px;&quot;&gt;&lt;/p&gt;&lt;p style=&quot;font-size: 13px;&quot;&gt;&lt;/p&gt;" style="shape=callout;whiteSpace=wrap;html=1;perimeter=calloutPerimeter;sketch=1;jiggle=2;curveFitting=1;strokeColor=#d6b656;align=center;verticalAlign=middle;fontFamily=Gloria Hallelujah;fontSize=13;fontStyle=1;labelBackgroundColor=none;fillColor=#fff2cc;position2=1;base=22;direction=west;size=20;position=0.86;gradientColor=#ffd966;fontSource=https%3A%2F%2Ffonts.googleapis.com%2Fcss%3Ffamily%3DGloria%2BHallelujah;" parent="9NzEIoserUUer-4o71EP-1" vertex="1">
          <mxGeometry x="1000" y="710" width="250" height="140" as="geometry" />
        </mxCell>
        <mxCell id="9NzEIoserUUer-4o71EP-61" value="&lt;span id=&quot;docs-internal-guid-3b90c343-7fff-3ddd-a99e-53f0f4e623fa&quot; style=&quot;&quot;&gt;&lt;p style=&quot;font-size: 13px; line-height: 1.2; margin-top: 0pt; margin-bottom: 0pt;&quot; dir=&quot;ltr&quot;&gt;&lt;/p&gt;&lt;div style=&quot;font-size: 13px; text-align: center;&quot;&gt;&lt;span style=&quot;white-space-collapse: preserve; font-size: 13px;&quot;&gt;Integrate with IaC Tools&lt;/span&gt;&lt;/div&gt;&lt;div style=&quot;text-align: center;&quot;&gt;&lt;span style=&quot;background-color: initial; text-align: left; white-space-collapse: preserve;&quot;&gt;连用IaC码的安全扫描&lt;/span&gt;&lt;/div&gt;&lt;span style=&quot;font-size: 13px; white-space-collapse: preserve;&quot;&gt;&lt;ul style=&quot;font-size: 13px;&quot;&gt;&lt;li style=&quot;text-align: center; font-size: 13px;&quot;&gt;&lt;span style=&quot;white-space-collapse: preserve; font-size: 13px;&quot;&gt;IaC template scanning&lt;/span&gt;&lt;/li&gt;&lt;li style=&quot;font-size: 13px;&quot;&gt;&lt;span style=&quot;white-space-collapse: preserve; font-size: 13px;&quot;&gt;Config Drift Detection&lt;br style=&quot;font-size: 13px;&quot;&gt;&lt;/span&gt;&lt;/li&gt;&lt;/ul&gt;&lt;/span&gt;&lt;p style=&quot;font-size: 13px;&quot;&gt;&lt;/p&gt;&lt;/span&gt;" style="whiteSpace=wrap;html=1;shape=mxgraph.basic.rectCallout;dx=36;dy=35;boundedLbl=1;sketch=1;jiggle=2;curveFitting=1;strokeColor=#d6b656;align=left;verticalAlign=middle;fontFamily=Gloria Hallelujah;fontSize=13;fontStyle=1;labelBackgroundColor=none;fillColor=#fff2cc;gradientColor=#ffd966;fontSource=https%3A%2F%2Ffonts.googleapis.com%2Fcss%3Ffamily%3DGloria%2BHallelujah;" parent="9NzEIoserUUer-4o71EP-1" vertex="1">
          <mxGeometry x="980" y="140" width="220" height="150" as="geometry" />
        </mxCell>
        <mxCell id="9NzEIoserUUer-4o71EP-62" value="Runtime Defence&lt;div&gt;运行环境扫瞄&lt;br&gt;&lt;div style=&quot;font-size: 13px;&quot;&gt;&lt;div style=&quot;font-size: 13px;&quot;&gt;&lt;ul style=&quot;font-size: 13px;&quot;&gt;&lt;li style=&quot;text-align: left; font-size: 13px;&quot;&gt;Container asset discovery&lt;/li&gt;&lt;li style=&quot;text-align: left; font-size: 13px;&quot;&gt;Vulnerabilities scanning&lt;/li&gt;&lt;li style=&quot;text-align: left; font-size: 13px;&quot;&gt;Compliance&lt;/li&gt;&lt;li style=&quot;text-align: left; font-size: 13px;&quot;&gt;Anti-malware&lt;/li&gt;&lt;li style=&quot;text-align: left; font-size: 13px;&quot;&gt;Process protection&lt;/li&gt;&lt;li style=&quot;text-align: left; font-size: 13px;&quot;&gt;Network protection&lt;/li&gt;&lt;li style=&quot;text-align: left; font-size: 13px;&quot;&gt;File system protection&lt;/li&gt;&lt;li style=&quot;text-align: left; font-size: 13px;&quot;&gt;WAAS &amp;amp; API Security&lt;/li&gt;&lt;li style=&quot;text-align: left; font-size: 13px;&quot;&gt;Serverless and on-demand container service supported&lt;/li&gt;&lt;li style=&quot;text-align: left; font-size: 13px;&quot;&gt;Virtual Patches&lt;br&gt;&lt;/li&gt;&lt;/ul&gt;&lt;/div&gt;&lt;/div&gt;&lt;/div&gt;" style="whiteSpace=wrap;html=1;shape=mxgraph.basic.rectCallout;dx=36;dy=35;boundedLbl=1;sketch=1;jiggle=2;curveFitting=1;strokeColor=#d6b656;align=center;verticalAlign=middle;fontFamily=Gloria Hallelujah;fontSize=13;fontStyle=1;labelBackgroundColor=none;fillColor=#fff2cc;gradientColor=#ffd966;fontSource=https%3A%2F%2Ffonts.googleapis.com%2Fcss%3Ffamily%3DGloria%2BHallelujah;" parent="9NzEIoserUUer-4o71EP-1" vertex="1">
          <mxGeometry x="1300" y="50" width="240" height="280" as="geometry" />
        </mxCell>
        <mxCell id="9NzEIoserUUer-4o71EP-63" value="安全软件开发生命周期" style="text;html=1;align=center;verticalAlign=middle;whiteSpace=wrap;rounded=0;fontFamily=Gloria Hallelujah;fontSize=30;fontColor=default;fontStyle=5;labelBackgroundColor=none;fontSource=https%3A%2F%2Ffonts.googleapis.com%2Fcss%3Ffamily%3DGloria%2BHallelujah;" parent="9NzEIoserUUer-4o71EP-1" vertex="1">
          <mxGeometry x="90" y="-40" width="380" height="30" as="geometry" />
        </mxCell>
        <mxCell id="9NzEIoserUUer-4o71EP-64" style="edgeStyle=orthogonalEdgeStyle;curved=1;rounded=0;orthogonalLoop=1;jettySize=auto;html=1;exitX=1;exitY=0.3333333333333333;exitDx=0;exitDy=0;exitPerimeter=0;strokeColor=#4D4D4D;strokeWidth=2;align=center;verticalAlign=middle;fontFamily=Gloria Hallelujah;fontSize=12;fontColor=default;fontStyle=1;labelBackgroundColor=default;endArrow=classic;flowAnimation=0;sketch=1;curveFitting=1;jiggle=2;fontSource=https%3A%2F%2Ffonts.googleapis.com%2Fcss%3Ffamily%3DGloria%2BHallelujah;" parent="9NzEIoserUUer-4o71EP-1" source="9NzEIoserUUer-4o71EP-65" edge="1">
          <mxGeometry relative="1" as="geometry">
            <mxPoint x="220" y="450" as="targetPoint" />
          </mxGeometry>
        </mxCell>
        <mxCell id="9NzEIoserUUer-4o71EP-65" value="Developer" style="shape=umlActor;verticalLabelPosition=bottom;verticalAlign=top;html=1;outlineConnect=0;sketch=1;jiggle=2;curveFitting=1;strokeColor=default;align=center;fontFamily=Gloria Hallelujah;fontSize=14;fontColor=default;fontStyle=1;labelBackgroundColor=default;fillColor=default;fontSource=https%3A%2F%2Ffonts.googleapis.com%2Fcss%3Ffamily%3DGloria%2BHallelujah;" parent="9NzEIoserUUer-4o71EP-1" vertex="1">
          <mxGeometry x="120" y="500" width="30" height="60" as="geometry" />
        </mxCell>
        <mxCell id="9NzEIoserUUer-4o71EP-66" style="edgeStyle=orthogonalEdgeStyle;curved=1;rounded=0;sketch=1;jiggle=2;curveFitting=1;orthogonalLoop=1;jettySize=auto;html=1;exitX=0.5;exitY=0.5;exitDx=0;exitDy=0;exitPerimeter=0;entryX=0;entryY=0.25;entryDx=0;entryDy=0;strokeColor=#4D4D4D;strokeWidth=2;align=center;verticalAlign=middle;fontFamily=Gloria Hallelujah;fontSize=12;fontColor=default;fontStyle=1;labelBackgroundColor=default;endArrow=classic;flowAnimation=0;fontSource=https%3A%2F%2Ffonts.googleapis.com%2Fcss%3Ffamily%3DGloria%2BHallelujah;" parent="9NzEIoserUUer-4o71EP-1" source="9NzEIoserUUer-4o71EP-67" target="9NzEIoserUUer-4o71EP-20" edge="1">
          <mxGeometry relative="1" as="geometry" />
        </mxCell>
        <mxCell id="9NzEIoserUUer-4o71EP-67" value="DevOps" style="shape=umlActor;verticalLabelPosition=bottom;verticalAlign=top;html=1;outlineConnect=0;sketch=1;jiggle=2;curveFitting=1;strokeColor=default;align=center;fontFamily=Gloria Hallelujah;fontSize=14;fontColor=default;fontStyle=1;labelBackgroundColor=default;fillColor=default;fontSource=https%3A%2F%2Ffonts.googleapis.com%2Fcss%3Ffamily%3DGloria%2BHallelujah;" parent="9NzEIoserUUer-4o71EP-1" vertex="1">
          <mxGeometry x="590" y="-60" width="30" height="60" as="geometry" />
        </mxCell>
        <mxCell id="9NzEIoserUUer-4o71EP-68" style="edgeStyle=orthogonalEdgeStyle;curved=1;rounded=0;sketch=1;jiggle=2;curveFitting=1;orthogonalLoop=1;jettySize=auto;html=1;strokeColor=#4D4D4D;strokeWidth=2;align=center;verticalAlign=middle;fontFamily=Gloria Hallelujah;fontSize=12;fontColor=default;fontStyle=1;labelBackgroundColor=default;endArrow=classic;flowAnimation=0;fontSource=https%3A%2F%2Ffonts.googleapis.com%2Fcss%3Ffamily%3DGloria%2BHallelujah;" parent="9NzEIoserUUer-4o71EP-1" source="9NzEIoserUUer-4o71EP-69" edge="1">
          <mxGeometry relative="1" as="geometry">
            <mxPoint x="1360" y="540" as="targetPoint" />
          </mxGeometry>
        </mxCell>
        <mxCell id="9NzEIoserUUer-4o71EP-69" value="SecOps/SRE" style="shape=umlActor;verticalLabelPosition=bottom;verticalAlign=top;html=1;outlineConnect=0;sketch=1;jiggle=2;curveFitting=1;strokeColor=default;align=center;fontFamily=Gloria Hallelujah;fontSize=14;fontColor=default;fontStyle=1;labelBackgroundColor=default;fillColor=default;fontSource=https%3A%2F%2Ffonts.googleapis.com%2Fcss%3Ffamily%3DGloria%2BHallelujah;" parent="9NzEIoserUUer-4o71EP-1" vertex="1">
          <mxGeometry x="1420" y="570" width="30" height="60" as="geometry" />
        </mxCell>
      </root>
    </mxGraphModel>
  </diagram>
</mxfile>
